<?xml version="1.0" standalone="no"?>
<!DOCTYPE svg PUBLIC "-//W3C//DTD SVG 1.1//EN" "http://www.w3.org/Graphics/SVG/1.1/DTD/svg11.dtd" >
<svg xmlns="http://www.w3.org/2000/svg" xmlns:xlink="http://www.w3.org/1999/xlink" version="1.1">
<metadata>
Created by FontForge 20161116 at Fri Apr 13 10:50:16 2012
 By Jimmy Wärting
(c) 2012 Microsoft Corporation. All Rights Reserved.
</metadata>
<defs>
<font id="SegoeUI-SemiboldItalic" horiz-adv-x="0" >
  <font-face 
    font-family="Segoe UI Semibold"
    font-weight="600"
    font-style="italic"
    font-stretch="normal"
    units-per-em="2048"
    panose-1="2 11 7 2 4 2 4 9 2 3"
    ascent="1638"
    descent="-410"
    x-height="1024"
    cap-height="1434"
    bbox="-937 -514 3027 2170"
    underline-thickness="119"
    underline-position="-237"
    slope="-12"
    unicode-range="U+000D-FFFD"
  />
<missing-glyph horiz-adv-x="1322" 
d="M166 0v1398h990v-1398h-990zM314 148h694v1102h-694v-1102z" />
    <glyph glyph-name=".notdef" horiz-adv-x="1322" 
d="M166 0v1398h990v-1398h-990zM314 148h694v1102h-694v-1102z" />
    <glyph glyph-name="glyph1" 
 />
    <glyph glyph-name="uni000D" unicode="&#xd;" horiz-adv-x="149" 
 />
    <glyph glyph-name="space" unicode=" " horiz-adv-x="563" 
 />
    <glyph glyph-name="exclam" unicode="!" horiz-adv-x="681" 
d="M415 424h-196l186 1010h252zM409 121q0 -59 -42.5 -100.5t-107.5 -41.5q-61 0 -103 38.5t-42 94.5q0 61 43.5 102t108.5 41q59 0 101 -38.5t42 -95.5z" />
    <glyph glyph-name="quotedbl" unicode="&#x22;" horiz-adv-x="888" 
d="M807 997h-160l-20 446h200zM468 997h-160l-20 446h200z" />
    <glyph glyph-name="numbersign" unicode="#" horiz-adv-x="1190" 
d="M1182 907h-222l-59 -273h243l-35 -144h-237l-83 -371h-164l80 371h-239l-79 -371h-163l78 371h-225l29 144h227l57 272h-240l28 144h241l79 379h165l-77 -379h239l81 379h163l-78 -379h222zM555 907l-61 -273h243l59 273h-241z" />
    <glyph glyph-name="dollar" unicode="$" horiz-adv-x="1142" 
d="M1055 1178q-125 67 -263 84l-101 -474q299 -168 299 -382q0 -123 -54.5 -216t-159 -146t-255.5 -58l-43 -195h-123l41 198q-84 5 -181 31.5t-147 51.5l41 207q58 -37 153 -69t172 -40l98 456q-124 74 -184 132.5t-91 127t-31 152.5q0 117 58 209t167.5 145t254.5 55
l36 171h125l-38 -176q138 -11 266 -65zM667 1262q-104 -6 -162.5 -65t-58.5 -144q0 -56 28.5 -102.5t104.5 -99.5zM771 380q0 50 -28.5 92.5t-98.5 91.5l-84 -395q96 5 153.5 63.5t57.5 147.5z" />
    <glyph glyph-name="percent" unicode="%" horiz-adv-x="1732" 
d="M1638 424q0 -115 -50.5 -219t-140 -164.5t-202.5 -60.5q-99 0 -167 39t-104 108.5t-36 154.5q0 117 55.5 224.5t145.5 162.5t200 55q141 0 220 -81t79 -219zM383 0h-197l1234 1434h197zM870 1155q0 -122 -54.5 -228t-143.5 -161.5t-196 -55.5q-99 0 -166.5 38.5
t-103.5 107.5t-36 158q0 115 54 221t144 162.5t203 56.5q139 0 219 -80t80 -219zM1463 420q0 74 -34 117.5t-96 43.5t-112 -42t-79 -114t-29 -144t36 -115.5t101 -43.5q90 0 151.5 88t61.5 210zM695 1150q0 78 -35.5 120t-94.5 42q-62 0 -111.5 -41.5t-79 -112.5t-29.5 -145
t37 -117.5t100 -43.5q59 0 108.5 41.5t77 110t27.5 146.5z" />
    <glyph glyph-name="ampersand" unicode="&#x26;" horiz-adv-x="1480" 
d="M1409 761q-65 -278 -275 -492l198 -269h-274l-95 130q-206 -156 -469 -156q-132 0 -227 47.5t-144 131.5t-49 188q0 152 97 261.5t321 197.5q-97 146 -97 287q0 103 52 188t149 134t223 49q111 0 194.5 -39t128 -108.5t44.5 -156.5q0 -131 -95 -226.5t-300 -176.5
l236 -326q122 143 166 336h216zM965 1140q0 65 -42 104.5t-114 39.5q-85 0 -138.5 -52t-53.5 -136q0 -103 77 -210q159 67 215 123t56 131zM862 275l-79 108l-198 277q-145 -60 -210 -129t-65 -164q0 -94 61.5 -152.5t162.5 -58.5q177 0 328 119z" />
    <glyph glyph-name="quotesingle" unicode="'" horiz-adv-x="531" 
d="M460 998h-157l-20 445h199z" />
    <glyph glyph-name="parenleft" unicode="(" horiz-adv-x="690" 
d="M884 1434q-278 -283 -405.5 -560.5t-127.5 -575.5q0 -162 39.5 -323t111.5 -282h-193q-79 125 -123.5 290.5t-44.5 326.5q0 314 129 592.5t398 531.5h216z" />
    <glyph glyph-name="parenright" unicode=")" horiz-adv-x="690" 
d="M553 816q0 -315 -129.5 -592t-398.5 -531h-217q277 279 406 556.5t129 577.5q0 163 -40 323t-112 284h193q76 -119 122.5 -285.5t46.5 -332.5z" />
    <glyph glyph-name="asterisk" unicode="*" horiz-adv-x="894" 
d="M641 1032l195 -227l-148 -101l-147 259l-147 -259l-146 101l195 227l-275 46l57 164l256 -104l-33 296h186l-33 -296l257 104l57 -164z" />
    <glyph glyph-name="plus" unicode="+" horiz-adv-x="1426" 
d="M819 507v-394h-167v394h-395v169h395v394h167v-394h394v-169h-394z" />
    <glyph glyph-name="comma" unicode="," horiz-adv-x="500" 
d="M100 -259h-194l217 498h230z" />
    <glyph glyph-name="hyphen" unicode="-" horiz-adv-x="823" 
d="M672 471h-547l38 175h547z" />
    <glyph glyph-name="hyphen" unicode="&#x2010;" horiz-adv-x="823" 
d="M672 471h-547l38 175h547z" />
    <glyph glyph-name="period" unicode="." horiz-adv-x="500" 
d="M313 116q0 -61 -43.5 -100.5t-106.5 -39.5q-62 0 -103.5 38t-41.5 95q0 60 43.5 101t108.5 41q61 0 102 -39t41 -96z" />
    <glyph glyph-name="slash" unicode="/" horiz-adv-x="860" 
d="M48 -238h-243l1047 1672h242z" />
    <glyph glyph-name="zero" unicode="0" horiz-adv-x="1170" 
d="M1149 1019q0 -288 -88.5 -538.5t-235.5 -378t-333 -127.5q-182 0 -288.5 128.5t-106.5 354.5q0 265 89 503.5t239.5 367.5t340.5 129q178 0 280.5 -116.5t102.5 -322.5zM911 1018q0 122 -42.5 186t-120.5 64q-107 0 -194.5 -106t-152.5 -325t-65 -398q0 -127 46 -199.5
t130 -72.5q113 0 196.5 118.5t143 331t59.5 401.5z" />
    <glyph glyph-name="one" unicode="1" horiz-adv-x="843" 
d="M232 0l255 1196l-336 -81l45 207l586 136l-308 -1458h-242z" />
    <glyph glyph-name="two" unicode="2" horiz-adv-x="1040" 
d="M798 1078q0 85 -54 134.5t-156 49.5q-99 0 -196 -40t-178 -103l52 236q156 103 385 103q183 0 287 -90.5t104 -246.5q0 -117 -39 -208t-120.5 -171t-281.5 -205q-200 -123 -273 -193.5t-87 -139.5h635l-43 -204h-897l19 89q23 113 78.5 203.5t146.5 173.5t280 202
q132 83 204 146t103 123t31 141z" />
    <glyph glyph-name="three" unicode="3" horiz-adv-x="988" 
d="M996 1127q0 -156 -101.5 -259t-277.5 -132v-4q127 -22 197 -106t70 -205q0 -132 -67 -233.5t-195.5 -157t-306.5 -55.5q-97 0 -195.5 21t-178.5 61l46 206q65 -42 156.5 -69.5t170.5 -27.5q157 0 243 66t86 188q0 102 -77 162t-239 60h-116l41 191h135q172 0 269.5 66.5
t97.5 186.5q0 87 -59 134.5t-161 47.5q-158 0 -314 -78l45 210q161 58 335 58q182 0 289 -89.5t107 -241.5z" />
    <glyph glyph-name="four" unicode="4" horiz-adv-x="1154" 
d="M1115 1434l-197 -926h213l-41 -193h-213l-67 -315h-225l67 315h-649l41 195q234 212 459.5 462.5t374.5 461.5h237zM693 508l127 594q-230 -293 -538 -594h411z" />
    <glyph glyph-name="five" unicode="5" horiz-adv-x="1020" 
d="M504 881q204 0 317.5 -102t113.5 -284q0 -147 -76.5 -270.5t-211 -186.5t-311.5 -63q-92 0 -191.5 17t-151.5 46l46 208q51 -34 138.5 -57t162.5 -23q111 0 190 39.5t121 106.5t42 150q0 110 -67 168.5t-220 58.5q-136 0 -248 -14l187 759h730l-43 -203h-524l-90 -354z
" />
    <glyph glyph-name="six" unicode="6" horiz-adv-x="1115" 
d="M1101 1208q-97 60 -235 60q-122 0 -224 -67t-176 -190.5t-108 -279.5h4q53 80 142.5 129t191.5 49q164 0 258.5 -103t94.5 -289q0 -149 -67 -277t-180.5 -196t-255.5 -68q-208 0 -325 137t-117 384q0 267 102 490.5t281 347t397 123.5q152 0 261 -43zM814 496
q0 109 -55.5 167.5t-153.5 58.5q-116 0 -189.5 -85.5t-73.5 -207.5q0 -121 58 -190.5t157 -69.5q111 0 184 94t73 233z" />
    <glyph glyph-name="seven" unicode="7" horiz-adv-x="1027" 
d="M343 0h-258q97 270 291 590.5t456 640.5h-689l44 203h956l-29 -139q-323 -416 -500.5 -722t-270.5 -573z" />
    <glyph glyph-name="eight" unicode="8" horiz-adv-x="1142" 
d="M42 356q0 155 97 267.5t268 153.5q-155 97 -155 274q0 114 59.5 207.5t170.5 146.5t260 53q185 0 293 -91.5t108 -243.5q0 -137 -80 -232.5t-222 -137.5q93 -41 147 -121t54 -189q0 -128 -70 -236t-196 -169t-283 -61q-214 0 -332.5 100.5t-118.5 278.5zM290 370
q0 -96 58.5 -151.5t161.5 -55.5q121 0 202.5 82.5t81.5 207.5q0 94 -57.5 151t-150.5 57q-128 0 -212 -83t-84 -208zM486 1029q0 -81 48 -129.5t129 -48.5q96 0 169 71t73 172q0 81 -48.5 129.5t-133.5 48.5q-105 0 -171 -69t-66 -174z" />
    <glyph glyph-name="nine" unicode="9" horiz-adv-x="1124" 
d="M1095 941q0 -190 -54.5 -367.5t-155 -312t-243.5 -210t-332 -75.5q-87 0 -154 13t-102 30l34 206q99 -58 233 -58q197 0 334 142t186 388h-4q-124 -180 -325 -180q-113 0 -195.5 51.5t-127 144t-44.5 204.5q0 151 70 281t184.5 195.5t259.5 65.5q204 0 320 -139.5
t116 -378.5zM860 1001q0 116 -58.5 190t-152.5 74q-78 0 -138.5 -44t-93.5 -119t-33 -162q0 -110 55.5 -174t149.5 -64q80 0 141 38.5t95.5 108t34.5 152.5z" />
    <glyph glyph-name="colon" unicode=":" horiz-adv-x="500" 
d="M479 907q0 -61 -43.5 -101t-108.5 -40q-63 0 -103 39t-40 94q0 62 43.5 102t107.5 40q60 0 102 -38.5t42 -95.5zM313 116q0 -61 -43.5 -100.5t-106.5 -39.5q-62 0 -103.5 38t-41.5 95q0 60 43.5 101t108.5 41q61 0 102 -39t41 -96z" />
    <glyph glyph-name="semicolon" unicode=";" horiz-adv-x="500" 
d="M479 907q0 -61 -43.5 -101t-108.5 -40q-63 0 -103 39t-40 94q0 62 43.5 102t107.5 40q60 0 102 -38.5t42 -95.5zM73 -259h-193l216 498h231z" />
    <glyph glyph-name="less" unicode="&#x3c;" horiz-adv-x="1426" 
d="M233 531v112l897 463v-194l-654 -321v-4l654 -291v-192z" />
    <glyph glyph-name="equal" unicode="=" horiz-adv-x="1426" 
d="M257 721v170h956v-170h-956zM257 291v169h956v-169h-956z" />
    <glyph glyph-name="greater" unicode="&#x3e;" horiz-adv-x="1426" 
d="M318 104v193l656 289v5l-656 320v195l897 -463v-110z" />
    <glyph glyph-name="question" unicode="?" horiz-adv-x="900" 
d="M958 1139q0 -120 -66.5 -219.5t-210.5 -194.5q-102 -67 -147.5 -134t-64.5 -173h-206q32 158 83.5 245t154.5 157q124 86 172.5 148.5t48.5 132.5q0 76 -54.5 122t-139.5 46q-156 0 -293 -90l43 223q144 64 306 64q171 0 272.5 -88.5t101.5 -238.5zM465 121
q0 -60 -43.5 -101t-108.5 -41q-60 0 -101.5 38.5t-41.5 94.5q0 61 42 102t109 41q60 0 102 -39.5t42 -94.5z" />
    <glyph glyph-name="at" unicode="@" horiz-adv-x="1960" 
d="M1842 804q0 -171 -64 -315.5t-178.5 -226.5t-258.5 -82q-99 0 -157.5 47t-58.5 122q0 17 5 44h-5q-57 -103 -128.5 -157.5t-167.5 -54.5q-113 0 -182.5 87.5t-69.5 232.5q0 153 67.5 288.5t177 211t237.5 75.5q72 0 123.5 -31t71.5 -87h4l28 102h178q-163 -554 -163 -644
q0 -51 20 -70.5t62 -19.5q75 0 143 64t108 170.5t40 221.5q0 158 -67 275t-196.5 181.5t-314.5 64.5q-204 0 -375 -97.5t-267.5 -271t-96.5 -387.5q0 -281 161.5 -434t460.5 -153q132 0 269.5 25.5t212.5 63.5l-30 -160q-64 -31 -194 -53.5t-272 -22.5q-368 0 -577 195.5
t-209 535.5q0 261 122.5 470t337.5 324t475 115q224 0 388.5 -81t252 -229.5t87.5 -338.5zM1196 797q0 66 -35.5 102t-92.5 36q-81 0 -149.5 -58t-110 -159t-41.5 -212q0 -86 36 -132t92 -46q57 0 108 38.5t92.5 109.5t71 167.5t29.5 153.5z" />
    <glyph glyph-name="A" unicode="A" horiz-adv-x="1367" 
d="M992 0l-53 360h-561l-200 -360h-281l840 1434h281l227 -1434h-253zM839 1149v35l2 35h-5q-20 -60 -47 -110l-308 -549h432l-70 540q-4 18 -4 49z" />
    <glyph glyph-name="B" unicode="B" horiz-adv-x="1250" 
d="M1211 1117q0 -143 -87 -240.5t-248 -128.5v-4q122 -19 191.5 -97t69.5 -194q0 -208 -153 -330.5t-419 -122.5h-504l304 1434h452q185 0 289.5 -83.5t104.5 -233.5zM952 1069q0 84 -54 127t-154 43h-171l-87 -402h170q140 0 218 61.5t78 170.5zM877 446q0 90 -62.5 143
t-189.5 53h-180l-94 -447h206q156 0 238 65.5t82 185.5z" />
    <glyph glyph-name="C" unicode="C" horiz-adv-x="1304" 
d="M1319 1141q-167 100 -347 100q-174 0 -309.5 -79.5t-209.5 -220.5t-74 -318q0 -206 113.5 -319.5t307.5 -113.5q99 0 186 22t181 73l-53 -240q-161 -70 -373 -70q-187 0 -328.5 77.5t-217 220t-75.5 328.5q0 250 107.5 447.5t303.5 303.5t454 106q202 0 386 -78z" />
    <glyph glyph-name="D" unicode="D" horiz-adv-x="1500" 
d="M1450 854q0 -255 -108 -452t-303 -299.5t-461 -102.5h-517l305 1434h452q290 0 461 -155t171 -425zM1191 835q0 192 -111 291.5t-322 99.5h-188l-217 -1019h232q182 0 320 78t212 222.5t74 327.5z" />
    <glyph glyph-name="E" unicode="E" horiz-adv-x="1053" 
d="M1097 1226h-527l-86 -406h490l-45 -208h-489l-87 -405h561l-43 -207h-810l304 1434h777z" />
    <glyph glyph-name="F" unicode="F" horiz-adv-x="1034" 
d="M1099 1222h-529l-90 -418h490l-46 -210h-489l-125 -594h-249l304 1434h779z" />
    <glyph glyph-name="G" unicode="G" horiz-adv-x="1430" 
d="M1360 1135q-74 51 -177.5 81.5t-214.5 30.5q-174 0 -307.5 -77.5t-206 -218.5t-72.5 -323q0 -206 110.5 -325t301.5 -119q108 0 201 34l74 354h-312l44 204h559l-148 -694q-206 -108 -450 -108q-192 0 -337.5 79.5t-223 225t-77.5 332.5q0 245 106 440t300.5 301
t455.5 106q215 0 422 -88z" />
    <glyph glyph-name="H" unicode="H" horiz-adv-x="1507" 
d="M1220 0h-248l129 613h-661l-129 -613h-250l304 1434h250l-129 -601h662l129 601h248z" />
    <glyph glyph-name="I" unicode="I" horiz-adv-x="597" 
d="M310 0h-249l303 1434h250z" />
    <glyph glyph-name="J" unicode="J" horiz-adv-x="808" 
d="M95 -25q-43 0 -104 12.5t-87 26.5l43 229q24 -20 69 -37t87 -17q115 0 186 83.5t111 268.5l190 893h248l-190 -894q-63 -290 -199.5 -427.5t-353.5 -137.5z" />
    <glyph glyph-name="K" unicode="K" horiz-adv-x="1280" 
d="M1427 1434l-713 -705l443 -729h-301l-349 615q-25 43 -41 89h-4l-152 -704h-249l304 1434h250l-142 -670h4l48 56l591 614h311z" />
    <glyph glyph-name="L" unicode="L" horiz-adv-x="998" 
d="M861 0h-800l304 1434h250l-260 -1223h550z" />
    <glyph glyph-name="M" unicode="M" horiz-adv-x="1728" 
d="M1440 0h-228l193 910q28 126 76 296h-6q-51 -113 -161 -259l-406 -545h-154l-164 527q-18 55 -33 135t-17 142h-7q-35 -221 -52 -297l-194 -909h-226l304 1434h292l187 -590q30 -95 35 -179h5q55 120 113 198l429 571h319z" />
    <glyph glyph-name="N" unicode="N" horiz-adv-x="1587" 
d="M1301 0h-240l-489 1030q-6 13 -20.5 50t-17.5 53h-6l-9 -68l-12 -73l-211 -992h-235l303 1434h261l479 -1025q23 -51 33 -84h4q5 69 19 133l208 976h237z" />
    <glyph glyph-name="O" unicode="O" horiz-adv-x="1549" 
d="M1499 847q0 -232 -98.5 -434.5t-272.5 -320t-413 -117.5q-175 0 -309.5 77t-208 218t-73.5 319q0 188 59 348t171.5 281.5t252 180.5t304.5 59q173 0 307.5 -75.5t207.5 -215t73 -320.5zM1239 838q0 186 -95.5 294.5t-258.5 108.5q-136 0 -253.5 -85.5t-183 -240.5
t-65.5 -325q0 -183 93.5 -291.5t258.5 -108.5q143 0 257.5 84t180.5 241t66 323z" />
    <glyph glyph-name="P" unicode="P" horiz-adv-x="1234" 
d="M1246 1041q0 -156 -73 -274.5t-212 -183.5t-332 -65h-210l-109 -518h-249l304 1434h432q210 0 329.5 -104t119.5 -289zM987 1023q0 96 -65 153.5t-189 57.5h-161l-110 -518h175q164 0 257 81t93 226z" />
    <glyph glyph-name="Q" unicode="Q" horiz-adv-x="1549" 
d="M1499 843q0 -195 -73 -376.5t-203.5 -302.5t-295.5 -160l306 -361h-320l-228 333q-170 7 -297 86t-195.5 216.5t-68.5 307.5q0 240 103.5 445t284 316t402.5 111q266 0 425.5 -168.5t159.5 -446.5zM1239 835q0 190 -95 298t-254 108q-142 0 -258.5 -87t-182.5 -238
t-66 -327q0 -184 94.5 -291.5t257.5 -107.5q143 0 256.5 83.5t180.5 236.5t67 325z" />
    <glyph glyph-name="R" unicode="R" horiz-adv-x="1251" 
d="M1237 1074q0 -176 -117 -290t-308 -135v-4q113 -37 156 -209l110 -436h-265l-92 398q-21 92 -68.5 136.5t-128.5 44.5h-90l-124 -579h-249l304 1434h443q202 0 315.5 -95t113.5 -265zM977 1038q0 90 -55.5 144.5t-170.5 54.5h-178l-98 -460h165q158 0 247.5 70.5
t89.5 190.5z" />
    <glyph glyph-name="S" unicode="S" horiz-adv-x="1059" 
d="M1029 1160q-63 43 -151.5 69t-167.5 26q-77 0 -131 -26.5t-82.5 -70t-28.5 -95.5q0 -72 42 -128.5t161 -135.5q154 -103 213.5 -194.5t59.5 -204.5q0 -125 -63.5 -225.5t-178.5 -150t-272 -49.5q-102 0 -210 26.5t-187 69.5l42 229q76 -56 173 -89t189 -33
q119 0 184 51.5t65 145.5q0 72 -46 126t-174 135q-136 86 -197.5 182.5t-61.5 213.5q0 121 62 219t176 152.5t270 54.5q175 0 358 -72z" />
    <glyph glyph-name="T" unicode="T" horiz-adv-x="1139" 
d="M1246 1226h-406l-259 -1226h-248l259 1226h-413l45 208h1067z" />
    <glyph glyph-name="U" unicode="U" horiz-adv-x="1446" 
d="M650 -25q-226 0 -358.5 127.5t-132.5 341.5q0 104 24 215l167 775h249l-167 -771q-27 -135 -27 -196q0 -129 74 -203t200 -74q150 0 236.5 90.5t128.5 286.5l187 867h249l-185 -861q-48 -224 -127.5 -350t-205.5 -187t-312 -61z" />
    <glyph glyph-name="V" unicode="V" horiz-adv-x="1326" 
d="M667 0h-262l-199 1434h252l128 -1058q5 -47 5 -82l-3 -50h6q20 62 59 134l569 1056h275z" />
    <glyph glyph-name="W" unicode="W" horiz-adv-x="1983" 
d="M1456 0h-261l-78 1016q0 49 12 130h-4q-25 -81 -57 -149l-500 -997h-276l-93 1434h259l42 -1022v-15q0 -57 -12 -135h5q6 21 29 77.5t32 73.5l509 1021h248l69 -1047v-17q0 -61 -6 -107h4q13 50 54 145l462 1026h262z" />
    <glyph glyph-name="X" unicode="X" horiz-adv-x="1275" 
d="M843 714l293 -714h-280l-157 447q-21 60 -39 147h-4l-9 -18q-21 -50 -40 -73l-399 -503h-307l626 736l-290 698h288l144 -435q36 -107 38 -146h5l8 17q23 50 41 73l391 491h289z" />
    <glyph glyph-name="Y" unicode="Y" horiz-adv-x="1190" 
d="M602 0h-249l112 527l-263 907h266l146 -603l10 -54l5 -46h4q31 68 51 97l413 606h278l-662 -902z" />
    <glyph glyph-name="Z" unicode="Z" horiz-adv-x="1205" 
d="M333 207h750l-44 -207h-1113l24 118l998 1108h-702l44 208h1064l-25 -112z" />
    <glyph glyph-name="bracketleft" unicode="[" horiz-adv-x="690" 
d="M805 1274h-221l-306 -1440h220l-34 -160h-420l374 1760h420z" />
    <glyph glyph-name="backslash" unicode="\" horiz-adv-x="843" 
d="M511 -239l-347 1673h210l343 -1673h-206z" />
    <glyph glyph-name="bracketright" unicode="]" horiz-adv-x="690" 
d="M273 -326h-419l34 160h218l307 1439h-220l33 161h421z" />
    <glyph glyph-name="asciicircum" unicode="^" horiz-adv-x="1426" 
d="M1054 617l-310 602h-6l-287 -602h-195l426 841h114l454 -841h-196z" />
    <glyph glyph-name="underscore" unicode="_" horiz-adv-x="850" 
d="M-174 -297l24 119h850l-24 -119h-850z" />
    <glyph glyph-name="grave" unicode="`" horiz-adv-x="807" 
d="M539 1202l-249 326h208l208 -326h-167z" />
    <glyph glyph-name="a" unicode="a" horiz-adv-x="1162" 
d="M935 0h-245q0 25 6 91.5t12 102.5h-4q-63 -92 -108.5 -133.5t-98.5 -63.5t-120 -22q-146 0 -227 103t-81 285q0 186 87.5 354t234 250t341.5 82q161 0 383 -48l-141 -668q-15 -71 -27 -174.5t-12 -158.5zM843 853q-62 15 -137 15q-114 0 -201 -59.5t-140 -180.5t-53 -253
q0 -100 38.5 -154.5t112.5 -54.5q108 0 194.5 113t126.5 299z" />
    <glyph glyph-name="b" unicode="b" horiz-adv-x="1162" 
d="M1092 666q0 -190 -84.5 -356.5t-229 -250.5t-331.5 -84q-105 0 -213.5 27.5t-183.5 74.5l305 1439h243l-100 -471l-46 -197h5q72 105 152.5 153t176.5 48q145 0 225.5 -101t80.5 -282zM850 646q0 212 -161 212q-102 0 -190.5 -111.5t-121.5 -270.5l-60 -285
q65 -35 163 -35q106 0 189.5 66t132 183t48.5 241z" />
    <glyph glyph-name="c" unicode="c" horiz-adv-x="919" 
d="M882 782q-38 32 -94.5 54t-124.5 22q-95 0 -173.5 -56t-128.5 -161.5t-50 -221.5q0 -124 55.5 -188.5t158.5 -64.5q62 0 131.5 25t124.5 61l-42 -203q-142 -74 -282 -74q-182 0 -285 111.5t-103 308.5q0 178 77 330.5t214.5 238t311.5 85.5q73 0 145 -17.5t112 -44.5z
" />
    <glyph glyph-name="d" unicode="d" horiz-adv-x="1162" 
d="M935 0h-245q0 47 18 191h-4q-73 -112 -149.5 -164t-175.5 -52q-147 0 -228.5 101.5t-81.5 285.5q0 187 83.5 349.5t229 250t330.5 87.5q88 0 168 -18l104 485h238l-250 -1190q-12 -51 -24.5 -157t-12.5 -169zM843 850q-70 18 -136 18q-115 0 -202 -60t-140 -180.5
t-53 -250.5q0 -104 39.5 -157.5t114.5 -53.5q105 0 191 113t129 307z" />
    <glyph glyph-name="e" unicode="e" horiz-adv-x="1031" 
d="M1004 772q0 -185 -172 -272.5t-522 -91.5l-2 -11v-20q0 -104 62 -161.5t173 -57.5q76 0 162.5 27.5t158.5 70.5l-40 -199q-151 -82 -333 -82q-199 0 -310.5 111t-111.5 313q0 174 76 325.5t212 238t298 86.5q161 0 255 -76t94 -201zM770 766q0 50 -36.5 79.5t-100.5 29.5
q-106 0 -192 -87t-113 -214q442 0 442 192z" />
    <glyph glyph-name="f" unicode="f" horiz-adv-x="686" 
d="M881 1322q-56 27 -124 27q-77 0 -118.5 -46t-61.5 -141l-30 -138h237l-41 -186h-240l-252 -1178h-241l253 1178h-175l41 186h174l37 168q40 181 145 264.5t274 83.5q90 0 160 -24z" />
    <glyph glyph-name="g" unicode="g" horiz-adv-x="1162" 
d="M283 -481q-165 0 -317 76l43 204q143 -93 292 -93q155 0 246 85t130 273l26 125h-4q-75 -117 -151.5 -165.5t-169.5 -48.5q-144 0 -226.5 100.5t-82.5 284.5q0 190 83.5 351.5t228.5 249.5t329 88q163 0 405 -46l-191 -905q-46 -217 -125 -337t-205.5 -181t-310.5 -61z
M843 853q-62 15 -152 15q-104 0 -192 -66t-137.5 -179t-49.5 -246q0 -103 40 -157t109 -54q70 0 133 48t115 149t75 212z" />
    <glyph glyph-name="h" unicode="h" horiz-adv-x="1183" 
d="M1093 773q0 -54 -30 -197l-122 -576h-242l124 592q20 107 20 131q0 135 -122 135q-65 0 -137.5 -51.5t-128 -135.5t-73.5 -171l-107 -500h-243l323 1516h242l-152 -711h4q83 116 184 180t202 64q128 0 193 -72.5t65 -203.5z" />
    <glyph glyph-name="i" unicode="i" horiz-adv-x="590" 
d="M586 1371q0 -60 -43 -99.5t-105 -39.5q-60 0 -101.5 36t-41.5 95q0 61 44 99t106 38q58 0 99.5 -36.5t41.5 -92.5zM314 -17q-110 0 -167.5 55.5t-57.5 158.5q0 52 11 102l149 725h243l-136 -645q-21 -100 -21 -129q0 -76 87 -76q51 0 91 16l-38 -184q-86 -23 -161 -23z
" />
    <glyph glyph-name="j" unicode="j" horiz-adv-x="515" 
d="M586 1371q0 -60 -43 -99.5t-105 -39.5q-60 0 -101.5 36t-41.5 95q0 61 44 99t106 38q58 0 99.5 -36.5t41.5 -92.5zM-184 -481q-119 0 -183 31l40 198q23 -16 58.5 -27.5t60.5 -11.5q89 0 149.5 74.5t94.5 234.5l214 1006h242l-215 -1010q-56 -257 -169.5 -376
t-291.5 -119z" />
    <glyph glyph-name="k" unicode="k" horiz-adv-x="1077" 
d="M631 546l313 -546h-271l-281 536h-4l-114 -536h-242l323 1516h242l-199 -931h4l459 439h294z" />
    <glyph glyph-name="l" unicode="l" horiz-adv-x="590" 
d="M314 -17q-111 0 -169 55t-58 156q0 67 38 241.5t230 1080.5h243l-242 -1137q-21 -100 -21 -129q0 -76 87 -76q51 0 91 16l-38 -184q-77 -23 -161 -23z" />
    <glyph glyph-name="m" unicode="m" horiz-adv-x="1811" 
d="M1722 773q0 -50 -31 -197l-123 -576h-240l125 592q20 107 20 131q0 135 -119 135q-92 0 -195 -112.5t-130 -241.5l-106 -504h-242l126 592q20 107 20 131q0 135 -119 135q-61 0 -131 -53t-124 -137.5t-70 -164.5l-108 -503h-243l155 716q36 172 53 308h236
q-8 -85 -31 -220h4q79 116 177 180.5t195 64.5q235 0 252 -250q84 122 185.5 186t207.5 64q128 0 192 -71.5t64 -204.5z" />
    <glyph glyph-name="n" unicode="n" horiz-adv-x="1188" 
d="M1098 774q0 -51 -31 -198l-122 -576h-242l124 592q20 107 20 131q0 60 -31.5 97.5t-89.5 37.5q-64 0 -136.5 -50.5t-128.5 -135.5t-74 -169l-107 -503h-244l155 716q36 172 53 308h236q-8 -85 -31 -220h4q80 117 182.5 181t203.5 64q124 0 191.5 -71t67.5 -204z" />
    <glyph glyph-name="o" unicode="o" horiz-adv-x="1137" 
d="M1067 631q0 -186 -74.5 -339.5t-206 -235t-303.5 -81.5q-193 0 -303.5 111t-110.5 307q0 186 74.5 338t205.5 235t304 83q190 0 302 -111.5t112 -306.5zM823 625q0 107 -49.5 170t-137.5 63q-91 0 -165 -62.5t-116.5 -169.5t-42.5 -229q0 -108 50.5 -169.5t137.5 -61.5
q93 0 167.5 62.5t115 169.5t40.5 227z" />
    <glyph glyph-name="p" unicode="p" horiz-adv-x="1162" 
d="M1092 668q0 -187 -82 -351t-224.5 -253t-319.5 -89q-102 0 -194 29l-101 -477h-243l248 1170q12 52 25.5 157t16.5 170h239q0 -26 -8 -92.5t-14 -102.5h4q137 220 348 220q145 0 225 -102t80 -279zM850 646q0 106 -41 159t-117 53q-70 0 -135 -51t-117.5 -152t-74.5 -206
l-58 -266q21 -8 73 -17.5t92 -9.5q107 0 193.5 67t135.5 181.5t49 241.5z" />
    <glyph glyph-name="q" unicode="q" horiz-adv-x="1162" 
d="M803 -473h-241l95 451q21 95 48 199h-4q-136 -202 -322 -202q-146 0 -228 101.5t-82 286.5q0 190 87.5 356t234 248t334.5 82q190 0 389 -55zM842 849q-69 19 -139 19q-111 0 -198 -60.5t-140 -180.5t-53 -248q0 -106 39.5 -159.5t113.5 -53.5q106 0 192 109.5t126 292.5
z" />
    <glyph glyph-name="r" unicode="r" horiz-adv-x="773" 
d="M798 791q-61 32 -118 32q-104 0 -189.5 -105t-122.5 -280l-93 -438h-242l142 666q51 249 60 358h238q-10 -97 -28 -216h4q63 114 132.5 177.5t162.5 63.5q38 0 101 -15z" />
    <glyph glyph-name="s" unicode="s" horiz-adv-x="854" 
d="M771 806q-44 26 -104.5 45t-120.5 19q-84 0 -125.5 -35.5t-41.5 -91.5q0 -50 34 -83t98 -68q130 -73 177.5 -139t47.5 -155q0 -97 -50.5 -169t-147.5 -113t-237 -41q-76 0 -161 17t-130 41l40 198q55 -33 130.5 -56t145.5 -23q88 0 131 33t43 91q0 45 -29.5 78t-114.5 79
q-113 61 -164.5 129t-51.5 160q0 94 48.5 168.5t140 116.5t217.5 42q75 0 146.5 -13.5t120.5 -33.5z" />
    <glyph glyph-name="t" unicode="t" horiz-adv-x="715" 
d="M733 838h-249l-98 -463q-18 -87 -18 -117q0 -46 21 -66.5t69 -20.5q46 0 140 36l-40 -189q-100 -39 -198 -39q-237 0 -237 231q0 58 21 152l100 476h-164l44 186h159l53 245l254 67l-65 -312h251z" />
    <glyph glyph-name="u" unicode="u" horiz-adv-x="1184" 
d="M941 0h-240l31 217h-4q-81 -114 -181 -178t-204 -64q-127 0 -194 72.5t-67 203.5q0 49 31 196l122 577h242l-125 -589q-21 -112 -21 -134q0 -60 30 -95t90 -35q69 0 141.5 51t128.5 137.5t74 172.5l105 492h242l-147 -688q-39 -186 -54 -336z" />
    <glyph glyph-name="v" unicode="v" horiz-adv-x="1030" 
d="M520 0h-246l-148 1024h240l66 -606q11 -88 11 -168l-1 -29h4q43 102 92 196l321 607h267z" />
    <glyph glyph-name="w" unicode="w" horiz-adv-x="1551" 
d="M1112 0h-245l-40 644l-2 67q0 32 6 71h-4q-13 -54 -45 -117l-334 -665h-248l-79 1024h230l25 -716v-12q0 -47 -7 -94h6q25 72 31 86.5t366 735.5h225l37 -760q0 -20 -6 -64h7q8 35 49 124l308 700h237z" />
    <glyph glyph-name="x" unicode="x" horiz-adv-x="1027" 
d="M669 507l232 -507h-266l-110 293l-32 97h-5q-21 -32 -39.5 -58.5t-260.5 -331.5h-283l458 514l-224 510h266l104 -298q18 -51 29 -102h4q14 21 33 48t274 352h273z" />
    <glyph glyph-name="y" unicode="y" horiz-adv-x="1046" 
d="M-27 -481q-70 0 -133 21l42 194q39 -24 100 -24q126 0 214 135l103 160l-193 1019h251l96 -705l4 -65l-2 -42h5q25 64 48 106l383 706h257l-689 -1154q-114 -191 -226.5 -271t-259.5 -80z" />
    <glyph glyph-name="z" unicode="z" horiz-adv-x="960" 
d="M316 186h529l-40 -186h-886l19 93l707 745h-494l40 186h835l-23 -105z" />
    <glyph glyph-name="braceleft" unicode="{" horiz-adv-x="690" 
d="M304 539v-4q93 -49 93 -185q0 -51 -11 -104l-52 -237q-10 -43 -10 -80q0 -59 31.5 -86.5t97.5 -29.5l-32 -154q-145 0 -221.5 63t-76.5 185q0 47 12 101l56 261q9 40 9 74q0 126 -123 132l33 150q81 3 128 47t67 142l57 270q27 125 80 201t133.5 111.5t221.5 37.5
l-32 -157q-86 0 -133 -45.5t-67 -144.5l-58 -265q-53 -237 -203 -283z" />
    <glyph glyph-name="bar" unicode="|" horiz-adv-x="580" 
d="M201 -481v2048h199v-2048h-199z" />
    <glyph glyph-name="braceright" unicode="}" horiz-adv-x="690" 
d="M-109 -339l33 156q81 0 130 43.5t71 147.5l55 264q23 112 74.5 186t130.5 98v4q-94 51 -94 185q0 54 12 105l50 235q10 44 10 79q0 59 -31 87t-97 30l32 154q298 -4 298 -246q0 -49 -12 -103l-56 -260q-9 -42 -9 -74q0 -129 123 -133l-33 -150q-81 -2 -127.5 -47
t-67.5 -142l-58 -269q-27 -126 -81.5 -202.5t-135 -112t-217.5 -35.5z" />
    <glyph glyph-name="asciitilde" unicode="~" horiz-adv-x="1426" 
d="M1239 761q-6 -160 -85.5 -248.5t-210.5 -88.5q-54 0 -104.5 16.5t-156.5 81.5q-36 23 -76.5 44t-82.5 21q-64 0 -99 -45t-37 -123h-171q7 158 85.5 248t213.5 90q59 0 115.5 -19.5t177.5 -98.5q42 -28 71.5 -38.5t60.5 -10.5q56 0 91.5 47.5t37.5 123.5h170z" />
    <glyph glyph-name="Adieresis" unicode="&#xc4;" horiz-adv-x="1367" 
d="M992 0l-53 360h-561l-200 -360h-281l840 1434h281l227 -1434h-253zM839 1149v35l2 35h-5q-20 -60 -47 -110l-308 -549h432l-70 540q-4 18 -4 49zM1237 1684q0 -50 -35 -84.5t-91 -34.5t-91 35t-35 84q0 51 36 83.5t89 32.5q54 0 90.5 -33t36.5 -83zM816 1684
q0 -51 -37.5 -85t-89.5 -34q-51 0 -89 33.5t-38 85.5q0 49 36 82.5t91 33.5q54 0 90.5 -33t36.5 -83z" />
    <glyph glyph-name="Aring" unicode="&#xc5;" horiz-adv-x="1367" 
d="M992 0l-53 360h-560l-201 -360h-281l820 1397q-67 52 -67 145q0 57 29 107t82 79t121 29q103 0 165 -59.5t62 -150.5q0 -51 -23 -92t-61 -65l220 -1390h-253zM989 1547q0 45 -31 74t-81 29q-46 0 -76.5 -29.5t-30.5 -73.5q0 -49 29 -78t78 -29t80.5 31t31.5 76zM913 560
l-73 546l-2 29v43l2 36h-6q-10 -35 -30.5 -77.5t-322.5 -576.5h432z" />
    <glyph glyph-name="Ccedilla" unicode="&#xc7;" horiz-adv-x="1304" 
d="M1319 1141q-167 100 -347 100q-174 0 -309.5 -79.5t-209.5 -220.5t-74 -318q0 -206 113.5 -319.5t307.5 -113.5q99 0 186 22t181 73l-53 -240q-161 -70 -373 -70q-187 0 -328.5 77.5t-217 220t-75.5 328.5q0 250 107.5 447.5t303.5 303.5t454 106q202 0 386 -78z
M920 -234q0 -98 -84.5 -155t-231.5 -57q-30 0 -99 6l25 113q35 -7 75 -7q77 0 116 23t39 62q0 70 -115 70l-51 -3l41 182h125l-21 -93q84 -2 132.5 -39.5t48.5 -101.5z" />
    <glyph glyph-name="Eacute" unicode="&#xc9;" horiz-adv-x="1053" 
d="M1097 1226h-527l-86 -406h490l-45 -208h-489l-87 -405h561l-43 -207h-810l304 1434h777zM804 1565h-179l302 326h225z" />
    <glyph glyph-name="Ntilde" unicode="&#xd1;" horiz-adv-x="1587" 
d="M1301 0h-240l-489 1030q-6 13 -20.5 50t-17.5 53h-6l-9 -68l-12 -73l-211 -992h-235l303 1434h261l479 -1025q23 -51 33 -84h4q5 69 19 133l208 976h237zM1375 1836q-12 -114 -78.5 -182.5t-159.5 -68.5q-50 0 -83.5 13.5t-60.5 30t-51 30t-54 13.5q-51 0 -78.5 -32
t-33.5 -74h-125q10 111 78 181.5t168 70.5q46 0 78 -14t58 -31t51 -31t59 -14q43 0 71.5 30t35.5 78h125z" />
    <glyph glyph-name="Odieresis" unicode="&#xd6;" horiz-adv-x="1549" 
d="M1499 847q0 -232 -98.5 -434.5t-272.5 -320t-413 -117.5q-175 0 -309.5 77t-208 218t-73.5 319q0 188 59 348t171.5 281.5t252 180.5t304.5 59q173 0 307.5 -75.5t207.5 -215t73 -320.5zM1239 838q0 186 -95.5 294.5t-258.5 108.5q-136 0 -253.5 -85.5t-183 -240.5
t-65.5 -325q0 -183 93.5 -291.5t258.5 -108.5q143 0 257.5 84t180.5 241t66 323zM1281 1685q0 -50 -35 -84.5t-91 -34.5t-91 35t-35 84q0 51 36 83.5t89 32.5q54 0 90.5 -33t36.5 -83zM860 1685q0 -51 -37.5 -85t-89.5 -34q-51 0 -89 33.5t-38 85.5q0 49 36 82.5t91 33.5
q54 0 90.5 -33t36.5 -83z" />
    <glyph glyph-name="Udieresis" unicode="&#xdc;" horiz-adv-x="1446" 
d="M650 -25q-226 0 -358.5 127.5t-132.5 341.5q0 104 24 215l167 775h249l-167 -771q-27 -135 -27 -196q0 -129 74 -203t200 -74q150 0 236.5 90.5t128.5 286.5l187 867h249l-185 -861q-48 -224 -127.5 -350t-205.5 -187t-312 -61zM1274 1685q0 -50 -35 -84.5t-91 -34.5
t-91 35t-35 84q0 51 36 83.5t89 32.5q54 0 90.5 -33t36.5 -83zM853 1685q0 -51 -37.5 -85t-89.5 -34q-51 0 -89 33.5t-38 85.5q0 49 36 82.5t91 33.5q54 0 90.5 -33t36.5 -83z" />
    <glyph glyph-name="aacute" unicode="&#xe1;" horiz-adv-x="1162" 
d="M935 0h-245q0 25 6 91.5t12 102.5h-4q-63 -92 -108.5 -133.5t-98.5 -63.5t-120 -22q-146 0 -227 103t-81 285q0 186 87.5 354t234 250t341.5 82q161 0 383 -48l-141 -668q-15 -71 -27 -174.5t-12 -158.5zM843 853q-62 15 -137 15q-114 0 -201 -59.5t-140 -180.5t-53 -253
q0 -100 38.5 -154.5t112.5 -54.5q108 0 194.5 113t126.5 299zM730 1202h-179l302 326h225z" />
    <glyph glyph-name="agrave" unicode="&#xe0;" horiz-adv-x="1162" 
d="M935 0h-245q0 25 6 91.5t12 102.5h-4q-63 -92 -108.5 -133.5t-98.5 -63.5t-120 -22q-146 0 -227 103t-81 285q0 186 87.5 354t234 250t341.5 82q161 0 383 -48l-141 -668q-15 -71 -27 -174.5t-12 -158.5zM843 853q-62 15 -137 15q-114 0 -201 -59.5t-140 -180.5t-53 -253
q0 -100 38.5 -154.5t112.5 -54.5q108 0 194.5 113t126.5 299zM740 1202l-249 326h208l208 -326h-167z" />
    <glyph glyph-name="acircumflex" unicode="&#xe2;" horiz-adv-x="1162" 
d="M935 0h-245q0 25 6 91.5t12 102.5h-4q-63 -92 -108.5 -133.5t-98.5 -63.5t-120 -22q-146 0 -227 103t-81 285q0 186 87.5 354t234 250t341.5 82q161 0 383 -48l-141 -668q-15 -71 -27 -174.5t-12 -158.5zM843 853q-62 15 -137 15q-114 0 -201 -59.5t-140 -180.5t-53 -253
q0 -100 38.5 -154.5t112.5 -54.5q108 0 194.5 113t126.5 299zM887 1202l-115 211l-205 -211h-166l293 329h191l157 -329h-155z" />
    <glyph glyph-name="adieresis" unicode="&#xe4;" horiz-adv-x="1162" 
d="M935 0h-245q0 25 6 91.5t12 102.5h-4q-63 -92 -108.5 -133.5t-98.5 -63.5t-120 -22q-146 0 -227 103t-81 285q0 186 87.5 354t234 250t341.5 82q161 0 383 -48l-141 -668q-15 -71 -27 -174.5t-12 -158.5zM843 853q-62 15 -137 15q-114 0 -201 -59.5t-140 -180.5t-53 -253
q0 -100 38.5 -154.5t112.5 -54.5q108 0 194.5 113t126.5 299zM1068 1321q0 -50 -35 -84.5t-91 -34.5t-91 35t-35 84q0 51 36 83.5t89 32.5q54 0 90.5 -33t36.5 -83zM647 1321q0 -51 -37.5 -85t-89.5 -34q-51 0 -89 33.5t-38 85.5q0 49 36 82.5t91 33.5q54 0 90.5 -33
t36.5 -83z" />
    <glyph glyph-name="atilde" unicode="&#xe3;" horiz-adv-x="1162" 
d="M935 0h-245q0 25 6 91.5t12 102.5h-4q-63 -92 -108.5 -133.5t-98.5 -63.5t-120 -22q-146 0 -227 103t-81 285q0 186 87.5 354t234 250t341.5 82q161 0 383 -48l-141 -668q-15 -71 -27 -174.5t-12 -158.5zM843 853q-62 15 -137 15q-114 0 -201 -59.5t-140 -180.5t-53 -253
q0 -100 38.5 -154.5t112.5 -54.5q108 0 194.5 113t126.5 299zM1094 1472q-12 -114 -78.5 -182.5t-159.5 -68.5q-50 0 -83.5 13.5t-60.5 30t-51 30t-54 13.5q-51 0 -78.5 -32t-33.5 -74h-125q10 111 78 181.5t168 70.5q46 0 78 -14t58 -31t51 -31t59 -14q43 0 71.5 30
t35.5 78h125z" />
    <glyph glyph-name="aring" unicode="&#xe5;" horiz-adv-x="1162" 
d="M935 0h-245q0 25 6 91.5t12 102.5h-4q-63 -92 -108.5 -133.5t-98.5 -63.5t-120 -22q-146 0 -227 103t-81 285q0 186 87.5 354t234 250t341.5 82q161 0 383 -48l-141 -668q-15 -71 -27 -174.5t-12 -158.5zM843 853q-62 15 -137 15q-114 0 -201 -59.5t-140 -180.5t-53 -253
q0 -100 38.5 -154.5t112.5 -54.5q108 0 194.5 113t126.5 299zM977 1376q0 -92 -65.5 -151t-159.5 -59t-156.5 56t-62.5 147q0 94 64 152t160 58q98 0 159 -56t61 -147zM861 1374q0 45 -30.5 73.5t-78.5 28.5q-45 0 -74.5 -30t-29.5 -72q0 -48 28 -76.5t76 -28.5
q47 0 78 29.5t31 75.5z" />
    <glyph glyph-name="ccedilla" unicode="&#xe7;" horiz-adv-x="919" 
d="M882 782q-38 32 -94.5 54t-124.5 22q-95 0 -173.5 -56t-128.5 -161.5t-50 -221.5q0 -124 55.5 -188.5t158.5 -64.5q62 0 131.5 25t124.5 61l-42 -203q-142 -74 -282 -74q-182 0 -285 111.5t-103 308.5q0 178 77 330.5t214.5 238t311.5 85.5q73 0 145 -17.5t112 -44.5z
M634 -234q0 -98 -84.5 -155t-231.5 -57q-30 0 -99 6l25 113q35 -7 75 -7q77 0 116 23t39 62q0 70 -115 70l-51 -3l41 182h125l-21 -93q84 -2 132.5 -39.5t48.5 -101.5z" />
    <glyph glyph-name="eacute" unicode="&#xe9;" horiz-adv-x="1031" 
d="M1004 772q0 -185 -172 -272.5t-522 -91.5l-2 -11v-20q0 -104 62 -161.5t173 -57.5q76 0 162.5 27.5t158.5 70.5l-40 -199q-151 -82 -333 -82q-199 0 -310.5 111t-111.5 313q0 174 76 325.5t212 238t298 86.5q161 0 255 -76t94 -201zM770 766q0 50 -36.5 79.5t-100.5 29.5
q-106 0 -192 -87t-113 -214q442 0 442 192zM663 1202h-179l302 326h225z" />
    <glyph glyph-name="egrave" unicode="&#xe8;" horiz-adv-x="1031" 
d="M1004 772q0 -185 -172 -272.5t-522 -91.5l-2 -11v-20q0 -104 62 -161.5t173 -57.5q76 0 162.5 27.5t158.5 70.5l-40 -199q-151 -82 -333 -82q-199 0 -310.5 111t-111.5 313q0 174 76 325.5t212 238t298 86.5q161 0 255 -76t94 -201zM770 766q0 50 -36.5 79.5t-100.5 29.5
q-106 0 -192 -87t-113 -214q442 0 442 192zM680 1202l-249 326h208l208 -326h-167z" />
    <glyph glyph-name="ecircumflex" unicode="&#xea;" horiz-adv-x="1031" 
d="M1004 772q0 -185 -172 -272.5t-522 -91.5l-2 -11v-20q0 -104 62 -161.5t173 -57.5q76 0 162.5 27.5t158.5 70.5l-40 -199q-151 -82 -333 -82q-199 0 -310.5 111t-111.5 313q0 174 76 325.5t212 238t298 86.5q161 0 255 -76t94 -201zM770 766q0 50 -36.5 79.5t-100.5 29.5
q-106 0 -192 -87t-113 -214q442 0 442 192zM829 1202l-115 211l-205 -211h-166l293 329h191l157 -329h-155z" />
    <glyph glyph-name="edieresis" unicode="&#xeb;" horiz-adv-x="1031" 
d="M1004 772q0 -185 -172 -272.5t-522 -91.5l-2 -11v-20q0 -104 62 -161.5t173 -57.5q76 0 162.5 27.5t158.5 70.5l-40 -199q-151 -82 -333 -82q-199 0 -310.5 111t-111.5 313q0 174 76 325.5t212 238t298 86.5q161 0 255 -76t94 -201zM770 766q0 50 -36.5 79.5t-100.5 29.5
q-106 0 -192 -87t-113 -214q442 0 442 192zM1001 1321q0 -50 -35 -84.5t-91 -34.5t-91 35t-35 84q0 51 36 83.5t89 32.5q54 0 90.5 -33t36.5 -83zM580 1321q0 -51 -37.5 -85t-89.5 -34q-51 0 -89 33.5t-38 85.5q0 49 36 82.5t91 33.5q54 0 90.5 -33t36.5 -83z" />
    <glyph glyph-name="iacute" unicode="&#xed;" horiz-adv-x="590" 
d="M314 -17q-111 0 -169 55t-58 156q0 67 26 184l136 646h243l-136 -645q-21 -100 -21 -129q0 -76 87 -76q51 0 91 16l-38 -184q-77 -23 -161 -23zM383 1202h-179l302 326h225z" />
    <glyph glyph-name="igrave" unicode="&#xec;" horiz-adv-x="590" 
d="M314 -17q-111 0 -169 55t-58 156q0 67 26 184l136 646h243l-136 -645q-21 -100 -21 -129q0 -76 87 -76q51 0 91 16l-38 -184q-77 -23 -161 -23zM439 1202l-249 326h208l208 -326h-167z" />
    <glyph glyph-name="icircumflex" unicode="&#xee;" horiz-adv-x="590" 
d="M314 -17q-111 0 -169 55t-58 156q0 67 26 184l136 646h243l-136 -645q-21 -100 -21 -129q0 -76 87 -76q51 0 91 16l-38 -184q-77 -23 -161 -23zM562 1202l-115 211l-205 -211h-166l293 329h191l157 -329h-155z" />
    <glyph glyph-name="idieresis" unicode="&#xef;" horiz-adv-x="590" 
d="M314 -17q-111 0 -169 55t-58 156q0 67 26 184l136 646h243l-136 -645q-21 -100 -21 -129q0 -76 87 -76q51 0 91 16l-38 -184q-77 -23 -161 -23zM746 1321q0 -50 -35 -84.5t-91 -34.5t-91 35t-35 84q0 51 36 83.5t89 32.5q54 0 90.5 -33t36.5 -83zM325 1321
q0 -51 -37.5 -85t-89.5 -34q-51 0 -89 33.5t-38 85.5q0 49 36 82.5t91 33.5q54 0 90.5 -33t36.5 -83z" />
    <glyph glyph-name="ntilde" unicode="&#xf1;" horiz-adv-x="1188" 
d="M1098 774q0 -51 -31 -198l-122 -576h-242l124 592q20 107 20 131q0 60 -31.5 97.5t-89.5 37.5q-64 0 -136.5 -50.5t-128.5 -135.5t-74 -169l-107 -503h-244l155 716q36 172 53 308h236q-8 -85 -31 -220h4q80 117 182.5 181t203.5 64q124 0 191.5 -71t67.5 -204z
M1086 1472q-12 -114 -78.5 -182.5t-159.5 -68.5q-50 0 -83.5 13.5t-60.5 30t-51 30t-54 13.5q-51 0 -78.5 -32t-33.5 -74h-125q10 111 78 181.5t168 70.5q46 0 78 -14t58 -31t51 -31t59 -14q43 0 71.5 30t35.5 78h125z" />
    <glyph glyph-name="oacute" unicode="&#xf3;" horiz-adv-x="1137" 
d="M1067 631q0 -186 -74.5 -339.5t-206 -235t-303.5 -81.5q-193 0 -303.5 111t-110.5 307q0 186 74.5 338t205.5 235t304 83q190 0 302 -111.5t112 -306.5zM823 625q0 107 -49.5 170t-137.5 63q-91 0 -165 -62.5t-116.5 -169.5t-42.5 -229q0 -108 50.5 -169.5t137.5 -61.5
q93 0 167.5 62.5t115 169.5t40.5 227zM676 1202h-179l302 326h225z" />
    <glyph glyph-name="ograve" unicode="&#xf2;" horiz-adv-x="1137" 
d="M1067 631q0 -186 -74.5 -339.5t-206 -235t-303.5 -81.5q-193 0 -303.5 111t-110.5 307q0 186 74.5 338t205.5 235t304 83q190 0 302 -111.5t112 -306.5zM823 625q0 107 -49.5 170t-137.5 63q-91 0 -165 -62.5t-116.5 -169.5t-42.5 -229q0 -108 50.5 -169.5t137.5 -61.5
q93 0 167.5 62.5t115 169.5t40.5 227zM714 1202l-249 326h208l208 -326h-167z" />
    <glyph glyph-name="ocircumflex" unicode="&#xf4;" horiz-adv-x="1137" 
d="M1067 631q0 -186 -74.5 -339.5t-206 -235t-303.5 -81.5q-193 0 -303.5 111t-110.5 307q0 186 74.5 338t205.5 235t304 83q190 0 302 -111.5t112 -306.5zM823 625q0 107 -49.5 170t-137.5 63q-91 0 -165 -62.5t-116.5 -169.5t-42.5 -229q0 -108 50.5 -169.5t137.5 -61.5
q93 0 167.5 62.5t115 169.5t40.5 227zM835 1202l-115 211l-205 -211h-166l293 329h191l157 -329h-155z" />
    <glyph glyph-name="odieresis" unicode="&#xf6;" horiz-adv-x="1137" 
d="M1067 631q0 -186 -74.5 -339.5t-206 -235t-303.5 -81.5q-193 0 -303.5 111t-110.5 307q0 186 74.5 338t205.5 235t304 83q190 0 302 -111.5t112 -306.5zM823 625q0 107 -49.5 170t-137.5 63q-91 0 -165 -62.5t-116.5 -169.5t-42.5 -229q0 -108 50.5 -169.5t137.5 -61.5
q93 0 167.5 62.5t115 169.5t40.5 227zM1028 1321q0 -50 -35 -84.5t-91 -34.5t-91 35t-35 84q0 51 36 83.5t89 32.5q54 0 90.5 -33t36.5 -83zM607 1321q0 -51 -37.5 -85t-89.5 -34q-51 0 -89 33.5t-38 85.5q0 49 36 82.5t91 33.5q54 0 90.5 -33t36.5 -83z" />
    <glyph glyph-name="otilde" unicode="&#xf5;" horiz-adv-x="1137" 
d="M1067 631q0 -186 -74.5 -339.5t-206 -235t-303.5 -81.5q-193 0 -303.5 111t-110.5 307q0 186 74.5 338t205.5 235t304 83q190 0 302 -111.5t112 -306.5zM823 625q0 107 -49.5 170t-137.5 63q-91 0 -165 -62.5t-116.5 -169.5t-42.5 -229q0 -108 50.5 -169.5t137.5 -61.5
q93 0 167.5 62.5t115 169.5t40.5 227zM1057 1472q-12 -114 -78.5 -182.5t-159.5 -68.5q-50 0 -83.5 13.5t-60.5 30t-51 30t-54 13.5q-51 0 -78.5 -32t-33.5 -74h-125q10 111 78 181.5t168 70.5q46 0 78 -14t58 -31t51 -31t59 -14q43 0 71.5 30t35.5 78h125z" />
    <glyph glyph-name="uacute" unicode="&#xfa;" horiz-adv-x="1184" 
d="M941 0h-240l31 217h-4q-81 -114 -181 -178t-204 -64q-127 0 -194 72.5t-67 203.5q0 49 31 196l122 577h242l-125 -589q-21 -112 -21 -134q0 -60 30 -95t90 -35q69 0 141.5 51t128.5 137.5t74 172.5l105 492h242l-147 -688q-39 -186 -54 -336zM717 1202h-179l302 326h225z
" />
    <glyph glyph-name="ugrave" unicode="&#xf9;" horiz-adv-x="1184" 
d="M941 0h-240l31 217h-4q-81 -114 -181 -178t-204 -64q-127 0 -194 72.5t-67 203.5q0 49 31 196l122 577h242l-125 -589q-21 -112 -21 -134q0 -60 30 -95t90 -35q69 0 141.5 51t128.5 137.5t74 172.5l105 492h242l-147 -688q-39 -186 -54 -336zM730 1202l-249 326h208
l208 -326h-167z" />
    <glyph glyph-name="ucircumflex" unicode="&#xfb;" horiz-adv-x="1184" 
d="M941 0h-240l31 217h-4q-81 -114 -181 -178t-204 -64q-127 0 -194 72.5t-67 203.5q0 49 31 196l122 577h242l-125 -589q-21 -112 -21 -134q0 -60 30 -95t90 -35q69 0 141.5 51t128.5 137.5t74 172.5l105 492h242l-147 -688q-39 -186 -54 -336zM868 1202l-115 211
l-205 -211h-166l293 329h191l157 -329h-155z" />
    <glyph glyph-name="udieresis" unicode="&#xfc;" horiz-adv-x="1184" 
d="M941 0h-240l31 217h-4q-81 -114 -181 -178t-204 -64q-127 0 -194 72.5t-67 203.5q0 49 31 196l122 577h242l-125 -589q-21 -112 -21 -134q0 -60 30 -95t90 -35q69 0 141.5 51t128.5 137.5t74 172.5l105 492h242l-147 -688q-39 -186 -54 -336zM1063 1321q0 -50 -35 -84.5
t-91 -34.5t-91 35t-35 84q0 51 36 83.5t89 32.5q54 0 90.5 -33t36.5 -83zM642 1321q0 -51 -37.5 -85t-89.5 -34q-51 0 -89 33.5t-38 85.5q0 49 36 82.5t91 33.5q54 0 90.5 -33t36.5 -83z" />
    <glyph glyph-name="dagger" unicode="&#x2020;" horiz-adv-x="800" 
d="M836 880l-261 30l-190 -695h-103l105 695l-274 -30l40 188l292 -25l48 390h197l-117 -390l303 25z" />
    <glyph glyph-name="degree" unicode="&#xb0;" horiz-adv-x="775" 
d="M806 1177q0 -115 -82 -198t-200 -83q-116 0 -198 82t-82 199q0 115 81.5 196t198.5 81q118 0 200 -81.5t82 -195.5zM668 1177q0 58 -41.5 100.5t-102.5 42.5q-60 0 -101.5 -42t-41.5 -101q0 -61 43 -104t100 -43q56 0 100 43t44 104z" />
    <glyph glyph-name="cent" unicode="&#xa2;" horiz-adv-x="1142" 
d="M1032 952q-61 59 -171 77l-145 -678q112 13 215 84l-43 -207q-88 -55 -211 -69l-43 -202h-145l42 200q-164 19 -256.5 130.5t-92.5 284.5q0 269 159 452.5t418 199.5l41 193h144l-42 -199q125 -17 176 -53zM716 1024q-138 -31 -216.5 -149t-78.5 -276q0 -99 43 -157.5
t111 -79.5z" />
    <glyph glyph-name="sterling" unicode="&#xa3;" horiz-adv-x="1142" 
d="M1117 1202q-84 61 -196 61q-207 0 -264 -275l-39 -186h280l-39 -179h-279l-32 -143q-46 -202 -217 -289h657l-40 -191h-937l40 182q115 30 179 102.5t88 185.5l33 153h-185l37 179h186l47 222q45 209 177 321.5t324 112.5q71 0 130 -13.5t94 -31.5z" />
    <glyph glyph-name="section" unicode="&#xa7;" horiz-adv-x="956" 
d="M921 1262q-44 27 -105.5 45.5t-116.5 18.5q-86 0 -134.5 -34.5t-48.5 -96.5q0 -36 14.5 -62t39.5 -49t116 -77q108 -65 154 -129.5t46 -152.5q0 -93 -61 -175.5t-161 -124.5q59 -80 59 -166q0 -96 -48.5 -169.5t-140 -114t-217.5 -40.5q-79 0 -158 18t-122 42l40 186
q53 -35 123 -57.5t132 -22.5q95 0 142 37t47 95q0 34 -16.5 62t-46.5 54.5t-115 77.5q-178 109 -178 270q0 93 54 167.5t164 122.5q-70 90 -70 177q0 152 108.5 239.5t286.5 87.5q54 0 125 -12.5t125 -35.5zM687 691q0 49 -31 87.5t-94 74.5l-75 48q-55 -23 -90.5 -64.5
t-35.5 -97.5q0 -53 25.5 -88t100.5 -84q19 -13 38.5 -23.5t38.5 -27.5q57 27 90 74t33 101z" />
    <glyph glyph-name="bullet" unicode="&#x2022;" horiz-adv-x="846" 
d="M707 596q0 -111 -79.5 -188.5t-187.5 -77.5q-109 0 -187 77.5t-78 188.5t79.5 188.5t186.5 77.5q110 0 188 -78t78 -188z" />
    <glyph glyph-name="paragraph" unicode="&#xb6;" horiz-adv-x="990" 
d="M827 1301v-1301h-141v1301h-137v-1301h-142v869q-110 2 -185 82.5t-75 202.5q0 125 81 202.5t196 77.5h525v-133h-122z" />
    <glyph glyph-name="germandbls" unicode="&#xdf;" horiz-adv-x="1170" 
d="M1148 1205q0 -101 -45 -182.5t-122 -138t-173 -81.5v-4q137 -28 214.5 -124t77.5 -235q0 -133 -61.5 -240t-175 -166t-268.5 -59q-60 0 -119 10t-88 23l45 204q30 -21 75 -33.5t85 -12.5q119 0 189.5 78t70.5 200q0 123 -76.5 189.5t-213.5 69.5l37 179q142 19 222 98
t80 200q0 75 -44.5 122t-115.5 47q-98 0 -157.5 -70.5t-88.5 -210.5l-228 -1068h-243l235 1101q93 439 502 439q179 0 282.5 -92t103.5 -243z" />
    <glyph glyph-name="uni00AD" unicode="&#xad;" horiz-adv-x="823" 
d="M672 471h-547l38 175h547z" />
    <glyph glyph-name="registered" unicode="&#xae;" horiz-adv-x="1808" 
d="M904 255q-251 0 -428.5 175t-177.5 423q0 247 177.5 424t428.5 177q250 0 428 -177t178 -424q0 -248 -178 -423t-428 -175zM905 1354q-206 0 -352.5 -148t-146.5 -354t146.5 -351.5t352.5 -145.5q207 0 352 145.5t145 351.5t-145 354t-352 148zM1214 483h-177l-73 174
q-56 130 -121 130h-44v-304h-144v752h226q141 0 217 -55t76 -150q0 -77 -46.5 -131.5t-137.5 -73.5v-3q63 -13 125 -139zM799 1115v-214h82q139 0 139 108q0 55 -37.5 80.5t-117.5 25.5h-66z" />
    <glyph glyph-name="copyright" unicode="&#xa9;" horiz-adv-x="1827" 
d="M1709 719q0 -206 -100.5 -378t-275 -269t-384.5 -97t-383 92.5t-273 262.5t-100 383q0 207 99.5 377.5t274.5 269t388 98.5q209 0 383 -94.5t272.5 -265t98.5 -379.5zM1597 715q0 178 -83.5 326.5t-233 233t-328.5 84.5q-183 0 -332.5 -84.5t-232.5 -233.5t-83 -326
q0 -181 86 -330.5t235.5 -233t326.5 -83.5q178 0 328.5 88t233.5 235.5t83 323.5zM1255 280q-127 -68 -271 -68q-136 0 -248.5 63t-176 173.5t-63.5 245.5q0 155 65.5 275t184.5 185t268 65q130 0 238 -54v-193q-42 34 -108.5 54t-140.5 20q-88 0 -160.5 -41.5t-113 -118
t-40.5 -177.5q0 -147 90.5 -238t230.5 -91q70 0 139 23.5t106 52.5v-176z" />
    <glyph glyph-name="trademark" unicode="&#x2122;" horiz-adv-x="1581" 
d="M1350 772v461h-5l-189 -461h-97l-180 461h-4v-461h-125v662h171l192 -475h4l199 475h163v-662h-129zM482 1323v-551h-134v550h-189v112h515v-111h-192z" />
    <glyph glyph-name="acute" unicode="&#xb4;" horiz-adv-x="807" 
d="M532 1202h-179l302 326h225z" />
    <glyph glyph-name="dieresis" unicode="&#xa8;" horiz-adv-x="807" 
d="M894 1321q0 -50 -35 -84.5t-91 -34.5t-91 35t-35 84q0 51 36 83.5t89 32.5q54 0 90.5 -33t36.5 -83zM473 1321q0 -51 -37.5 -85t-89.5 -34q-51 0 -89 33.5t-38 85.5q0 49 36 82.5t91 33.5q54 0 90.5 -33t36.5 -83z" />
    <glyph glyph-name="notequal" unicode="&#x2260;" horiz-adv-x="1426" 
d="M670 291l-150 -291h-193l152 291h-221v169h309l135 261h-444v170h532l153 297h191l-152 -297h232v-170h-319l-136 -261h455v-169h-544z" />
    <glyph glyph-name="AE" unicode="&#xc6;" horiz-adv-x="1842" 
d="M1875 1225h-530l-86 -405h491l-44 -208h-491l-87 -405h561l-42 -207h-810l77 360h-492l-261 -360h-293l1075 1434h976zM1043 1227l-470 -656h385l138 656h-53z" />
    <glyph glyph-name="Oslash" unicode="&#xd8;" horiz-adv-x="1549" 
d="M1394 1220q105 -163 105 -377q0 -236 -105 -442t-278 -316t-406 -110q-112 0 -214.5 36.5t-181.5 107.5l-168 -172l-101 99l176 179q-97 159 -97 364q0 368 222.5 617t565.5 249q229 0 386 -133l154 157l99 -98zM1140 1159q-100 95 -247 95q-146 0 -264 -82
t-188.5 -243.5t-70.5 -341.5q0 -93 31 -178zM1251 842q0 106 -38 193l-741 -756q93 -105 259 -105q147 0 263.5 83.5t186.5 244.5t70 340z" />
    <glyph glyph-name="infinity" unicode="&#x221e;" horiz-adv-x="1668" 
d="M1621 592q0 -106 -50.5 -198t-137 -145t-191.5 -53q-230 0 -382 263q-76 -124 -176 -191t-204 -67q-168 0 -273.5 108.5t-105.5 285.5q0 105 50.5 197.5t138 145t190.5 52.5q121 0 214 -64.5t168 -197.5q73 120 170.5 188.5t209.5 68.5q108 0 195 -48.5t135.5 -139.5
t48.5 -205zM1440 593q0 97 -60 161.5t-154 64.5q-78 0 -146 -55t-134 -173q60 -116 127.5 -171t152.5 -55q96 0 155 63t59 165zM776 597q-61 116 -128.5 171.5t-153.5 55.5q-93 0 -153 -63.5t-60 -166.5q0 -98 61 -160.5t153 -62.5q78 0 146.5 54t134.5 172z" />
    <glyph glyph-name="plusminus" unicode="&#xb1;" horiz-adv-x="1426" 
d="M816 672v-395h-167v395h-394v168h394v398h167v-398h395v-168h-395zM254 0v168h955v-168h-955z" />
    <glyph glyph-name="lessequal" unicode="&#x2264;" horiz-adv-x="1426" 
d="M296 653v116l898 449v-193l-656 -310v-4l656 -280v-195zM265 0v168h957v-168h-957z" />
    <glyph glyph-name="greaterequal" unicode="&#x2265;" horiz-adv-x="1426" 
d="M296 236v195l655 277v5l-655 312v193l898 -449v-116zM265 0v168h957v-168h-957z" />
    <glyph glyph-name="yen" unicode="&#xa5;" horiz-adv-x="1142" 
d="M800 785h268l-34 -164h-320l-39 -180h320l-34 -164h-319l-61 -277h-235l59 277h-327l34 164h327l39 180h-329l36 164h273l-210 649h244l126 -508l23 -103h5q15 27 31.5 55t366.5 556h250z" />
    <glyph glyph-name="mu" unicode="&#xb5;" horiz-adv-x="1218" 
d="M728 217q-147 -242 -353 -242q-38 0 -69.5 14t-41.5 37l-100 -461h-234l305 1459h242l-123 -578q-21 -105 -21 -133q0 -142 118 -142q70 0 143 52.5t128.5 139.5t74.5 177l103 484h242l-145 -685q-11 -53 -11 -88q0 -36 21.5 -55.5t59.5 -19.5q32 0 68 11l-39 -185
q-75 -21 -166 -21q-99 0 -150.5 45t-51.5 131l4 60h-4z" />
    <glyph glyph-name="partialdiff" unicode="&#x2202;" horiz-adv-x="1139" 
d="M1100 922q0 -166 -38.5 -353.5t-116.5 -319.5t-197 -203t-267 -71q-184 0 -289.5 109.5t-105.5 299.5q0 176 71 328t186 233t259 81q94 0 156 -36.5t106 -114.5h4l2 55q0 193 -63.5 284t-193.5 91q-56 0 -128.5 -22t-127.5 -54l50 202q133 64 268 64q213 0 319 -137.5
t106 -435.5zM841 668q-24 87 -75 134.5t-119 47.5q-88 0 -161 -63.5t-116 -172t-43 -222.5q0 -106 47.5 -166t131.5 -60q125 0 217.5 138.5t117.5 363.5z" />
    <glyph glyph-name="summation" unicode="&#x2211;" horiz-adv-x="1288" 
d="M83 -470v126l640 836l-609 804v138h1120v-210h-771l546 -726l-578 -765h839v-203h-1187z" />
    <glyph glyph-name="product" unicode="&#x220f;" horiz-adv-x="1582" 
d="M1204 -470v1684h-751v-1684h-245v1904h1243v-1904h-247z" />
    <glyph glyph-name="integral" unicode="&#x222b;" horiz-adv-x="1142" 
d="M996 1323q-53 25 -113 25q-81 0 -121.5 -51t-40.5 -140v-1276q0 -166 -102 -267t-271 -101q-84 0 -139 19v197q47 -26 111 -26q81 0 121.5 51.5t40.5 139.5v1276q0 168 104 268.5t271 100.5q84 0 139 -19v-197z" />
    <glyph glyph-name="ordfeminine" unicode="&#xaa;" horiz-adv-x="927" 
d="M833 715h-187l5 66l7 66h-4q-105 -151 -252 -151q-98 0 -156 69t-58 207q0 128 62 246.5t167 177.5t243 59q125 0 301 -34l-98 -474q-8 -40 -19 -117t-11 -115zM752 1307q-48 13 -101 13q-77 0 -137.5 -41.5t-98.5 -123.5t-38 -170q0 -148 106 -148q73 0 137.5 81
t93.5 205z" />
    <glyph glyph-name="ordmasculine" unicode="&#xba;" horiz-adv-x="924" 
d="M957 1143q0 -125 -52.5 -227.5t-150 -161t-224.5 -58.5q-155 0 -247 89.5t-92 237.5q0 120 54 219.5t151.5 155.5t219.5 56q160 0 250.5 -83t90.5 -228zM770 1131q0 84 -43 132t-122 48q-103 0 -165 -83.5t-62 -206.5q0 -84 43.5 -133.5t118.5 -49.5q104 0 167 83t63 210
z" />
    <glyph glyph-name="Omega" unicode="&#x2126;" horiz-adv-x="1580" 
d="M1556 895q0 -223 -126 -405t-352 -287h336l-43 -203h-558l48 234q211 106 317 269.5t106 365.5q0 169 -102 271.5t-270 102.5q-146 0 -264 -71.5t-184 -203t-66 -300.5q0 -129 44.5 -233t148.5 -201l-49 -234h-558l42 203h354q-118 89 -183.5 219t-65.5 277
q0 225 103 398t285 267t405 94q186 0 330.5 -71t223 -200t78.5 -292z" />
    <glyph glyph-name="ae" unicode="&#xe6;" horiz-adv-x="1726" 
d="M1701 772q0 -184 -172.5 -272.5t-524.5 -91.5l-1 -28q0 -104 61.5 -163t174.5 -59q76 0 162.5 27.5t158.5 70.5l-39 -199q-154 -82 -333 -82q-157 0 -258 76t-130 214h-4q-185 -290 -421 -290q-143 0 -224.5 99.5t-81.5 276.5q0 133 52.5 268.5t142.5 231t214.5 147
t278.5 51.5q167 0 326 -69q120 69 274 69q155 0 249.5 -76t94.5 -201zM1465 765q0 51 -38 80.5t-100 29.5q-107 0 -191 -83.5t-112 -216.5q441 0 441 190zM906 837q-70 31 -155 31q-124 0 -221.5 -64.5t-158 -189.5t-60.5 -251q0 -89 31 -143t94 -54q92 0 183 106.5
t170 315.5q65 173 117 249z" />
    <glyph glyph-name="oslash" unicode="&#xf8;" horiz-adv-x="1137" 
d="M1020 843q47 -88 47 -212q0 -184 -74.5 -338t-206.5 -236t-303 -82q-180 0 -286 100l-146 -136l-89 101l153 142q-46 96 -46 211q0 186 75.5 339.5t207.5 235t302 81.5q169 0 281 -99l169 158l90 -102zM778 802q-49 65 -139 65q-98 0 -176.5 -60t-123 -168t-44.5 -234
q0 -26 4 -50zM840 621q0 37 -4 54l-481 -451q23 -30 60.5 -48.5t82.5 -18.5q100 0 178 60t121 167.5t43 236.5z" />
    <glyph glyph-name="questiondown" unicode="&#xbf;" horiz-adv-x="900" 
d="M734 918q0 -62 -45 -101.5t-105 -39.5q-62 0 -103.5 38t-41.5 96q0 60 43.5 101t108.5 41q63 0 103 -38.5t40 -96.5zM320 -434q-171 0 -273 90t-102 237q0 119 65 218t213 196q97 64 142.5 127.5t69.5 178.5h205q-34 -169 -86 -251.5t-151 -149.5q-119 -78 -169.5 -144
t-50.5 -138q0 -79 52 -123.5t135 -44.5q153 0 293 92l-33 -223q-63 -28 -145 -46.5t-165 -18.5z" />
    <glyph glyph-name="uni00A0" unicode="&#xa0;" horiz-adv-x="563" 
 />
    <glyph glyph-name="exclamdown" unicode="&#xa1;" horiz-adv-x="681" 
d="M563 918q0 -62 -45 -101.5t-104 -39.5q-62 0 -103.5 38t-41.5 96q0 60 43.5 101t108.5 41q62 0 102 -39t40 -96zM272 -401h-251l243 1009h196z" />
    <glyph glyph-name="logicalnot" unicode="&#xac;" horiz-adv-x="1426" 
d="M1035 260v410h-790v167h957v-577h-167z" />
    <glyph glyph-name="radical" unicode="&#x221a;" horiz-adv-x="1331" 
d="M787 -2h-154l-320 746h-176v139h307l258 -616l326 1249h158z" />
    <glyph glyph-name="florin" unicode="&#x192;" horiz-adv-x="1142" 
d="M1059 1224q-60 34 -117 34q-60 0 -102.5 -37.5t-59.5 -110.5l-39 -173h176l-41 -177h-173l-136 -616q-49 -220 -137 -320t-235 -100q-35 0 -75 6.5t-64 17.5l25 178q39 -26 86 -26q68 0 107.5 59t69.5 191l134 609h-126l41 178h122l41 183q34 152 127.5 236t238.5 84
q90 0 173 -31z" />
    <glyph glyph-name="approxequal" unicode="&#x2248;" horiz-adv-x="1426" 
d="M1247 979q-6 -157 -84.5 -247t-212.5 -90q-58 0 -112 19t-148 79q-37 23 -77 44t-82 21q-64 0 -98.5 -43.5t-38.5 -122.5h-170q7 161 86 248.5t213 87.5q39 0 73.5 -7.5t65.5 -21t98 -54.5q79 -51 116 -66.5t72 -15.5q57 0 92 47t37 122h170zM1247 549
q-6 -157 -84.5 -247t-212.5 -90q-57 0 -109.5 18t-150.5 81q-37 23 -77 44t-82 21q-62 0 -97 -42.5t-40 -125.5h-170q7 159 85.5 248.5t213.5 89.5q54 0 108.5 -17t128.5 -65l57 -36q73 -48 131 -48q57 0 92 47t37 122h170z" />
    <glyph glyph-name="uni0394" unicode="&#x394;" horiz-adv-x="1435" 
d="M1270 106l-22 -106h-1279l24 106l779 1328h293zM879 1182l1 35h-6q-10 -20 -23 -52t-34 -68l-508 -890h700l-120 848q-10 67 -10 127z" />
    <glyph glyph-name="guillemotleft" unicode="&#xab;" horiz-adv-x="1126" 
d="M764 199l-242 338l369 342h230l-383 -356l235 -324h-209zM314 199l-243 338l370 342h230l-383 -356l235 -324h-209z" />
    <glyph glyph-name="guillemotright" unicode="&#xbb;" horiz-adv-x="1126" 
d="M685 202h-230l384 355l-236 325h208l244 -338zM235 202h-230l384 355l-236 325h209l242 -338z" />
    <glyph glyph-name="ellipsis" unicode="&#x2026;" horiz-adv-x="1689" 
d="M1471 121q0 -61 -44 -101.5t-106 -40.5q-60 0 -102 38.5t-42 94.5q0 61 43.5 102.5t107.5 41.5q61 0 102 -39.5t41 -95.5zM909 121q0 -61 -44 -101.5t-106 -40.5q-61 0 -103 38.5t-42 94.5q0 62 44.5 103t107.5 41q61 0 102 -39.5t41 -95.5zM347 121q0 -61 -44 -101.5
t-107 -40.5q-59 0 -101 38.5t-42 94.5q0 61 43.5 102.5t107.5 41.5q61 0 102 -39.5t41 -95.5z" />
    <glyph glyph-name="Agrave" unicode="&#xc0;" horiz-adv-x="1367" 
d="M992 0l-53 360h-561l-200 -360h-281l840 1434h281l227 -1434h-253zM839 1149v35l2 35h-5q-20 -60 -47 -110l-308 -549h432l-70 540q-4 18 -4 49zM909 1566l-249 326h208l208 -326h-167z" />
    <glyph glyph-name="Atilde" unicode="&#xc3;" horiz-adv-x="1367" 
d="M992 0l-53 360h-561l-200 -360h-281l840 1434h281l227 -1434h-253zM839 1149v35l2 35h-5q-20 -60 -47 -110l-308 -549h432l-70 540q-4 18 -4 49zM1260 1836q-12 -114 -78.5 -182.5t-159.5 -68.5q-50 0 -83.5 13.5t-60.5 30t-51 30t-54 13.5q-51 0 -78.5 -32t-33.5 -74
h-125q10 111 78 181.5t168 70.5q46 0 78 -14t58 -31t51 -31t59 -14q43 0 71.5 30t35.5 78h125z" />
    <glyph glyph-name="Otilde" unicode="&#xd5;" horiz-adv-x="1549" 
d="M1499 847q0 -232 -98.5 -434.5t-272.5 -320t-413 -117.5q-175 0 -309.5 77t-208 218t-73.5 319q0 188 59 348t171.5 281.5t252 180.5t304.5 59q173 0 307.5 -75.5t207.5 -215t73 -320.5zM1239 838q0 186 -95.5 294.5t-258.5 108.5q-136 0 -253.5 -85.5t-183 -240.5
t-65.5 -325q0 -183 93.5 -291.5t258.5 -108.5q143 0 257.5 84t180.5 241t66 323zM1312 1835q-12 -114 -78.5 -182.5t-159.5 -68.5q-50 0 -83.5 13.5t-60.5 30t-51 30t-54 13.5q-51 0 -78.5 -32t-33.5 -74h-125q10 111 78 181.5t168 70.5q46 0 78 -14t58 -31t51 -31t59 -14
q43 0 71.5 30t35.5 78h125z" />
    <glyph glyph-name="OE" unicode="&#x152;" horiz-adv-x="1884" 
d="M1927 1226h-527l-87 -406h491l-44 -208h-491l-86 -405h561l-43 -207h-700l-67 -4q-92 -10 -140 -15.5t-93 -5.5q-167 0 -300.5 78t-206 219t-72.5 321q0 249 97.5 442.5t276 308t411.5 114.5q73 0 195 -12q112 -12 155 -12h715zM1147 1208q-88 33 -255 33
q-143 0 -257.5 -81.5t-183.5 -239t-69 -332.5q0 -182 94 -290t261 -108q92 0 202 30z" />
    <glyph glyph-name="oe" unicode="&#x153;" horiz-adv-x="1760" 
d="M1734 772q0 -185 -172 -272.5t-523 -91.5l-2 -17v-17q0 -100 61.5 -158t172.5 -58q77 0 165 27.5t158 70.5l-40 -199q-144 -82 -318 -82q-131 0 -222 53t-134 157h-4q-69 -98 -171 -154t-226 -56q-188 0 -299 113.5t-111 304.5q0 184 71.5 335t201 236t290.5 85
q118 0 206 -55t133 -159h4q164 214 408 214q108 0 187 -35t121.5 -99t42.5 -143zM1500 763q0 54 -37.5 83t-99.5 29q-106 0 -191.5 -85.5t-112.5 -215.5q441 0 441 189zM819 625q0 109 -47 171t-136 62q-91 0 -165 -62.5t-116.5 -169.5t-42.5 -229q0 -108 50.5 -169.5
t137.5 -61.5q92 0 165.5 62t113.5 169t40 228z" />
    <glyph glyph-name="endash" unicode="&#x2013;" horiz-adv-x="1024" 
d="M-8 471l36 175h1024l-36 -175h-1024z" />
    <glyph glyph-name="emdash" unicode="&#x2014;" horiz-adv-x="2048" 
d="M-8 471l36 175h2048l-36 -175h-2048z" />
    <glyph glyph-name="quotedblleft" unicode="&#x201c;" horiz-adv-x="888" 
d="M780 997h-201l210 446h157zM406 997h-201l208 446h158z" />
    <glyph glyph-name="quotedblright" unicode="&#x201d;" horiz-adv-x="888" 
d="M753 997h-155l167 446h199zM379 997h-155l167 446h199z" />
    <glyph glyph-name="quoteleft" unicode="&#x2018;" horiz-adv-x="514" 
d="M406 997h-201l208 446h159z" />
    <glyph glyph-name="quoteright" unicode="&#x2019;" horiz-adv-x="514" 
d="M379 997h-155l167 446h199z" />
    <glyph glyph-name="divide" unicode="&#xf7;" horiz-adv-x="1426" 
d="M857 979q0 -54 -37 -88t-86 -34q-51 0 -87.5 35.5t-36.5 86.5q0 53 35 89t89 36q57 0 90 -33.5t33 -91.5zM255 507v169h957v-169h-957zM857 199q0 -51 -35.5 -85t-87.5 -34q-51 0 -87.5 35t-36.5 84q0 54 36 91t88 37q62 0 92.5 -34.5t30.5 -93.5z" />
    <glyph glyph-name="lozenge" unicode="&#x25ca;" horiz-adv-x="1198" 
d="M676 0h-96l-460 715l460 719h96l462 -717zM630 1240l-328 -523l328 -525l327 525z" />
    <glyph glyph-name="ydieresis" unicode="&#xff;" horiz-adv-x="1046" 
d="M-27 -481q-70 0 -133 21l42 194q39 -24 100 -24q126 0 214 135l103 160l-193 1019h251l96 -705l4 -65l-2 -42h5q25 64 48 106l383 706h257l-689 -1154q-114 -191 -226.5 -271t-259.5 -80zM981 1321q0 -50 -35 -84.5t-91 -34.5t-91 35t-35 84q0 51 36 83.5t89 32.5
q54 0 90.5 -33t36.5 -83zM560 1321q0 -51 -37.5 -85t-89.5 -34q-51 0 -89 33.5t-38 85.5q0 49 36 82.5t91 33.5q54 0 90.5 -33t36.5 -83z" />
    <glyph glyph-name="Ydieresis" unicode="&#x178;" horiz-adv-x="1190" 
d="M602 0h-249l112 527l-263 907h266l146 -603l10 -54l5 -46h4q31 68 51 97l413 606h278l-662 -902zM1137 1686q0 -50 -35 -84.5t-91 -34.5t-91 35t-35 84q0 51 36 83.5t89 32.5q54 0 90.5 -33t36.5 -83zM716 1686q0 -51 -37.5 -85t-89.5 -34q-51 0 -89 33.5t-38 85.5
q0 49 36 82.5t91 33.5q54 0 90.5 -33t36.5 -83z" />
    <glyph glyph-name="fraction" unicode="&#x2044;" horiz-adv-x="464" 
d="M-204 0h-196l1180 1434h195z" />
    <glyph glyph-name="fraction" unicode="&#x2215;" horiz-adv-x="464" 
d="M-204 0h-196l1180 1434h195z" />
    <glyph glyph-name="Euro" unicode="&#x20ac;" horiz-adv-x="1142" 
d="M1206 1176q-120 91 -250 91q-162 0 -278.5 -85.5t-178.5 -246.5h526l-31 -139h-542q-18 -83 -22 -186h524l-29 -140h-490q20 -155 102 -229t211 -74q134 0 273 78l-34 -212q-136 -59 -279 -59q-218 0 -353 132.5t-153 363.5h-157l30 140h123q8 121 23 186h-105l28 139
h114q85 249 271.5 386t440.5 137q81 0 158.5 -18t119.5 -42z" />
    <glyph glyph-name="guilsinglleft" unicode="&#x2039;" horiz-adv-x="676" 
d="M314 199l-242 338l369 342h231l-383 -356l235 -324h-210z" />
    <glyph glyph-name="guilsinglright" unicode="&#x203a;" horiz-adv-x="676" 
d="M235 202h-230l383 355l-236 325h210l242 -338z" />
    <glyph glyph-name="uniFB01" unicode="&#xfb01;" horiz-adv-x="1278" 
d="M881 1322q-56 27 -124 27q-77 0 -118.5 -46t-61.5 -141l-30 -138h237l-41 -186h-240l-252 -1178h-241l253 1178h-175l41 186h174l37 168q40 181 145 264.5t274 83.5q90 0 160 -24zM1274 1371q0 -60 -43 -99.5t-105 -39.5q-60 0 -101.5 36t-41.5 95q0 61 44 99t106 38
q58 0 99.5 -36.5t41.5 -92.5zM1002 -17q-110 0 -167.5 55.5t-57.5 158.5q0 52 11 102l149 725h243l-136 -645q-21 -100 -21 -129q0 -76 87 -76q51 0 91 16l-38 -184q-86 -23 -161 -23z" />
    <glyph glyph-name="uniFB02" unicode="&#xfb02;" horiz-adv-x="1278" 
d="M881 1322q-56 27 -124 27q-77 0 -118.5 -46t-61.5 -141l-30 -138h237l-41 -186h-240l-252 -1178h-241l253 1178h-175l41 186h174l37 168q40 181 145 264.5t274 83.5q90 0 160 -24zM1002 -17q-111 0 -169 55t-58 156q0 67 38 241.5t230 1080.5h243l-242 -1137
q-21 -100 -21 -129q0 -76 87 -76q51 0 91 16l-38 -184q-77 -23 -161 -23z" />
    <glyph glyph-name="daggerdbl" unicode="&#x2021;" horiz-adv-x="800" 
d="M756 500l-295 25l-28 -310h-197l102 310l-304 -25l39 188l259 -30l81 166l-11 166l-271 -30l40 188l295 -25l28 310h197l-102 -310l305 25l-40 -188l-259 30l-80 -166l10 -166l271 30z" />
    <glyph glyph-name="periodcentered" unicode="&#xb7;" horiz-adv-x="500" 
d="M423 641q0 -59 -42.5 -100.5t-108.5 -41.5q-63 0 -103 39t-40 95q0 61 43.5 101t106.5 40q62 0 103 -38.5t41 -94.5z" />
    <glyph glyph-name="quotesinglbase" unicode="&#x201a;" horiz-adv-x="514" 
d="M118 -225h-155l167 444h198z" />
    <glyph glyph-name="quotedblbase" unicode="&#x201e;" horiz-adv-x="888" 
d="M492 -228h-156l168 445h199zM118 -228h-155l167 445h198z" />
    <glyph glyph-name="perthousand" unicode="&#x2030;" horiz-adv-x="2536" 
d="M2441 424q0 -116 -49.5 -219.5t-139 -164t-203.5 -60.5q-99 0 -167 39t-104 107t-36 156q0 117 55.5 224.5t145.5 162.5t200 55q140 0 219 -80t79 -220zM1638 424q0 -115 -50.5 -219t-140 -164.5t-202.5 -60.5q-99 0 -167 39t-104 108.5t-36 154.5q0 117 55.5 224.5
t145.5 162.5t200 55q141 0 220 -81t79 -219zM383 0h-197l1234 1434h197zM870 1155q0 -122 -54.5 -228t-143.5 -161.5t-196 -55.5q-99 0 -166.5 38.5t-103.5 107.5t-36 158q0 115 54 221t144 162.5t203 56.5q139 0 219 -80t80 -219zM2268 420q0 77 -34.5 119t-96.5 42
t-112 -42.5t-78.5 -114.5t-28.5 -143q0 -72 36 -115.5t101 -43.5q90 0 151.5 88t61.5 210zM1463 420q0 74 -34 117.5t-96 43.5t-112 -42t-79 -114t-29 -144t36 -115.5t101 -43.5q90 0 151.5 88t61.5 210zM695 1150q0 78 -35.5 120t-94.5 42q-62 0 -111.5 -41.5t-79 -112.5
t-29.5 -145t37 -117.5t100 -43.5q59 0 108.5 41.5t77 110t27.5 146.5z" />
    <glyph glyph-name="Acircumflex" unicode="&#xc2;" horiz-adv-x="1367" 
d="M992 0l-53 360h-561l-200 -360h-281l840 1434h281l227 -1434h-253zM839 1149v35l2 35h-5q-20 -60 -47 -110l-308 -549h432l-70 540q-4 18 -4 49zM1053 1565l-115 211l-205 -211h-166l293 329h191l157 -329h-155z" />
    <glyph glyph-name="Ecircumflex" unicode="&#xca;" horiz-adv-x="1053" 
d="M1097 1226h-527l-86 -406h490l-45 -208h-489l-87 -405h561l-43 -207h-810l304 1434h777zM943 1565l-115 211l-205 -211h-166l293 329h191l157 -329h-155z" />
    <glyph glyph-name="Aacute" unicode="&#xc1;" horiz-adv-x="1367" 
d="M992 0l-53 360h-561l-200 -360h-281l840 1434h281l227 -1434h-253zM839 1149v35l2 35h-5q-20 -60 -47 -110l-308 -549h432l-70 540q-4 18 -4 49zM872 1566h-179l302 326h225z" />
    <glyph glyph-name="Edieresis" unicode="&#xcb;" horiz-adv-x="1053" 
d="M1097 1226h-527l-86 -406h490l-45 -208h-489l-87 -405h561l-43 -207h-810l304 1434h777zM1120 1685q0 -50 -35 -84.5t-91 -34.5t-91 35t-35 84q0 51 36 83.5t89 32.5q54 0 90.5 -33t36.5 -83zM699 1685q0 -51 -37.5 -85t-89.5 -34q-51 0 -89 33.5t-38 85.5q0 49 36 82.5
t91 33.5q54 0 90.5 -33t36.5 -83z" />
    <glyph glyph-name="Egrave" unicode="&#xc8;" horiz-adv-x="1053" 
d="M1097 1226h-527l-86 -406h490l-45 -208h-489l-87 -405h561l-43 -207h-810l304 1434h777zM797 1565l-249 326h208l208 -326h-167z" />
    <glyph glyph-name="Iacute" unicode="&#xcd;" horiz-adv-x="597" 
d="M310 0h-249l303 1434h250zM489 1565h-179l302 326h225z" />
    <glyph glyph-name="Icircumflex" unicode="&#xce;" horiz-adv-x="597" 
d="M310 0h-249l303 1434h250zM672 1565l-115 211l-205 -211h-166l293 329h191l157 -329h-155z" />
    <glyph glyph-name="Idieresis" unicode="&#xcf;" horiz-adv-x="597" 
d="M310 0h-249l303 1434h250zM856 1685q0 -50 -35 -84.5t-91 -34.5t-91 35t-35 84q0 51 36 83.5t89 32.5q54 0 90.5 -33t36.5 -83zM435 1685q0 -51 -37.5 -85t-89.5 -34q-51 0 -89 33.5t-38 85.5q0 49 36 82.5t91 33.5q54 0 90.5 -33t36.5 -83z" />
    <glyph glyph-name="Igrave" unicode="&#xcc;" horiz-adv-x="597" 
d="M310 0h-249l303 1434h250zM550 1566l-249 326h208l208 -326h-167z" />
    <glyph glyph-name="Oacute" unicode="&#xd3;" horiz-adv-x="1549" 
d="M1499 847q0 -232 -98.5 -434.5t-272.5 -320t-413 -117.5q-175 0 -309.5 77t-208 218t-73.5 319q0 188 59 348t171.5 281.5t252 180.5t304.5 59q173 0 307.5 -75.5t207.5 -215t73 -320.5zM1239 838q0 186 -95.5 294.5t-258.5 108.5q-136 0 -253.5 -85.5t-183 -240.5
t-65.5 -325q0 -183 93.5 -291.5t258.5 -108.5q143 0 257.5 84t180.5 241t66 323zM893 1566h-179l302 326h225z" />
    <glyph glyph-name="Ocircumflex" unicode="&#xd4;" horiz-adv-x="1549" 
d="M1499 847q0 -232 -98.5 -434.5t-272.5 -320t-413 -117.5q-175 0 -309.5 77t-208 218t-73.5 319q0 188 59 348t171.5 281.5t252 180.5t304.5 59q173 0 307.5 -75.5t207.5 -215t73 -320.5zM1239 838q0 186 -95.5 294.5t-258.5 108.5q-136 0 -253.5 -85.5t-183 -240.5
t-65.5 -325q0 -183 93.5 -291.5t258.5 -108.5q143 0 257.5 84t180.5 241t66 323zM1069 1566l-115 211l-205 -211h-166l293 329h191l157 -329h-155z" />
    <glyph glyph-name="Ograve" unicode="&#xd2;" horiz-adv-x="1549" 
d="M1499 847q0 -232 -98.5 -434.5t-272.5 -320t-413 -117.5q-175 0 -309.5 77t-208 218t-73.5 319q0 188 59 348t171.5 281.5t252 180.5t304.5 59q173 0 307.5 -75.5t207.5 -215t73 -320.5zM1239 838q0 186 -95.5 294.5t-258.5 108.5q-136 0 -253.5 -85.5t-183 -240.5
t-65.5 -325q0 -183 93.5 -291.5t258.5 -108.5q143 0 257.5 84t180.5 241t66 323zM945 1565l-249 326h208l208 -326h-167z" />
    <glyph glyph-name="Uacute" unicode="&#xda;" horiz-adv-x="1446" 
d="M650 -25q-226 0 -358.5 127.5t-132.5 341.5q0 104 24 215l167 775h249l-167 -771q-27 -135 -27 -196q0 -129 74 -203t200 -74q150 0 236.5 90.5t128.5 286.5l187 867h249l-185 -861q-48 -224 -127.5 -350t-205.5 -187t-312 -61zM932 1566h-179l302 326h225z" />
    <glyph glyph-name="Ucircumflex" unicode="&#xdb;" horiz-adv-x="1446" 
d="M650 -25q-226 0 -358.5 127.5t-132.5 341.5q0 104 24 215l167 775h249l-167 -771q-27 -135 -27 -196q0 -129 74 -203t200 -74q150 0 236.5 90.5t128.5 286.5l187 867h249l-185 -861q-48 -224 -127.5 -350t-205.5 -187t-312 -61zM1094 1565l-115 211l-205 -211h-166
l293 329h191l157 -329h-155z" />
    <glyph glyph-name="Ugrave" unicode="&#xd9;" horiz-adv-x="1446" 
d="M650 -25q-226 0 -358.5 127.5t-132.5 341.5q0 104 24 215l167 775h249l-167 -771q-27 -135 -27 -196q0 -129 74 -203t200 -74q150 0 236.5 90.5t128.5 286.5l187 867h249l-185 -861q-48 -224 -127.5 -350t-205.5 -187t-312 -61zM955 1565l-249 326h208l208 -326h-167z
" />
    <glyph glyph-name="dotlessi" unicode="&#x131;" horiz-adv-x="590" 
d="M314 -17q-111 0 -169 55t-58 156q0 67 26 184l136 646h243l-136 -645q-21 -100 -21 -129q0 -76 87 -76q51 0 91 16l-38 -184q-77 -23 -161 -23z" />
    <glyph glyph-name="circumflex" unicode="&#x2c6;" horiz-adv-x="807" 
d="M698 1202l-115 211l-205 -211h-166l293 329h191l157 -329h-155z" />
    <glyph glyph-name="tilde" unicode="&#x2dc;" horiz-adv-x="807" 
d="M921 1472q-12 -114 -78.5 -182.5t-159.5 -68.5q-50 0 -83.5 13.5t-60.5 30t-51 30t-54 13.5q-51 0 -78.5 -32t-33.5 -74h-125q10 111 78 181.5t168 70.5q46 0 78 -14t58 -31t51 -31t59 -14q43 0 71.5 30t35.5 78h125z" />
    <glyph glyph-name="uni02C9" unicode="&#x2c9;" horiz-adv-x="807" 
d="M808 1202h-547l27 140h547z" />
    <glyph glyph-name="breve" unicode="&#x2d8;" horiz-adv-x="807" 
d="M887 1483q-40 -134 -130.5 -207.5t-213.5 -73.5q-109 0 -179.5 61.5t-70.5 165.5q0 30 8 54h133l-3 -31q0 -56 35.5 -86t89.5 -30q142 0 191 147h140z" />
    <glyph glyph-name="dotaccent" unicode="&#x2d9;" horiz-adv-x="807" 
d="M685 1322q0 -51 -35 -85.5t-90 -34.5q-53 0 -89 34.5t-36 85.5t36 82.5t89 31.5q54 0 89.5 -31.5t35.5 -82.5z" />
    <glyph glyph-name="ring" unicode="&#x2da;" horiz-adv-x="807" 
d="M795 1376q0 -92 -65.5 -151t-159.5 -59t-156.5 56t-62.5 147q0 94 64 152t160 58q98 0 159 -56t61 -147zM679 1374q0 45 -30.5 73.5t-78.5 28.5q-45 0 -74.5 -30t-29.5 -72q0 -48 28 -76.5t76 -28.5q47 0 78 29.5t31 75.5z" />
    <glyph glyph-name="cedilla" unicode="&#xb8;" horiz-adv-x="807" 
d="M473 -234q0 -98 -84.5 -155t-231.5 -57q-30 0 -99 6l25 113q35 -7 75 -7q77 0 116 23t39 62q0 70 -115 70l-51 -3l41 182h125l-21 -93q84 -2 132.5 -39.5t48.5 -101.5z" />
    <glyph glyph-name="hungarumlaut" unicode="&#x2dd;" horiz-adv-x="807" 
d="M706 1202h-158l243 325h199zM387 1202h-159l245 325h194z" />
    <glyph glyph-name="ogonek" unicode="&#x2db;" horiz-adv-x="807" 
d="M356 0q-95 -89 -133.5 -140t-38.5 -94q0 -76 78 -76q40 0 93 25l-22 -122q-43 -25 -121 -25q-93 0 -136 44.5t-43 117.5q0 59 44.5 123.5t151.5 146.5h127z" />
    <glyph glyph-name="caron" unicode="&#x2c7;" horiz-adv-x="807" 
d="M635 1202h-193l-156 329h154l116 -210l206 210h165z" />
    <glyph glyph-name="Lslash" unicode="&#x141;" horiz-adv-x="998" 
d="M861 0h-800l116 546l-174 -72l43 210l177 73l142 677h250l-120 -567l304 130l-42 -209l-308 -132l-94 -445h550z" />
    <glyph glyph-name="lslash" unicode="&#x142;" horiz-adv-x="590" 
d="M315 -17q-111 0 -169 55t-58 156q0 35 7.5 88.5t61.5 303.5l-150 -85l41 204l152 84l156 727h243l-126 -591l161 90l-42 -202l-162 -88q-47 -223 -72.5 -343.5t-21.5 -131.5q0 -76 87 -76q51 0 91 16l-38 -184q-77 -23 -161 -23z" />
    <glyph glyph-name="Scaron" unicode="&#x160;" horiz-adv-x="1059" 
d="M1029 1160q-63 43 -151.5 69t-167.5 26q-77 0 -131 -26.5t-82.5 -70t-28.5 -95.5q0 -72 42 -128.5t161 -135.5q154 -103 213.5 -194.5t59.5 -204.5q0 -125 -63.5 -225.5t-178.5 -150t-272 -49.5q-102 0 -210 26.5t-187 69.5l42 229q76 -56 173 -89t189 -33
q119 0 184 51.5t65 145.5q0 72 -46 126t-174 135q-136 86 -197.5 182.5t-61.5 213.5q0 121 62 219t176 152.5t270 54.5q175 0 358 -72zM830 1566h-193l-156 329h154l116 -210l206 210h165z" />
    <glyph glyph-name="scaron" unicode="&#x161;" horiz-adv-x="854" 
d="M771 806q-44 26 -104.5 45t-120.5 19q-84 0 -125.5 -35.5t-41.5 -91.5q0 -50 34 -83t98 -68q130 -73 177.5 -139t47.5 -155q0 -97 -50.5 -169t-147.5 -113t-237 -41q-76 0 -161 17t-130 41l40 198q55 -33 130.5 -56t145.5 -23q88 0 131 33t43 91q0 45 -29.5 78t-114.5 79
q-113 61 -164.5 129t-51.5 160q0 94 48.5 168.5t140 116.5t217.5 42q75 0 146.5 -13.5t120.5 -33.5zM666 1202h-193l-156 329h154l116 -210l206 210h165z" />
    <glyph glyph-name="Zcaron" unicode="&#x17d;" horiz-adv-x="1205" 
d="M333 207h750l-44 -207h-1113l24 118l998 1108h-702l44 208h1064l-25 -112zM926 1566h-193l-156 329h154l116 -210l206 210h165z" />
    <glyph glyph-name="zcaron" unicode="&#x17e;" horiz-adv-x="960" 
d="M316 186h529l-40 -186h-886l19 93l707 745h-494l40 186h835l-23 -105zM733 1202h-193l-156 329h154l116 -210l206 210h165z" />
    <glyph glyph-name="brokenbar" unicode="&#xa6;" horiz-adv-x="580" 
d="M201 699v868h199v-868h-199zM201 -481v873h199v-873h-199z" />
    <glyph glyph-name="Eth" unicode="&#xd0;" horiz-adv-x="1500" 
d="M1450 846q0 -254 -108 -449t-303.5 -296t-463.5 -101h-514l133 620h-167l41 207h169l129 607h446q194 0 339.5 -72t222 -206.5t76.5 -309.5zM1191 827q0 195 -113 297t-320 102h-188l-86 -399h308l-43 -207h-308l-88 -413h219q294 0 456.5 165.5t162.5 454.5z" />
    <glyph glyph-name="eth" unicode="&#xf0;" horiz-adv-x="1137" 
d="M829 1307q106 -124 162.5 -282t56.5 -331q0 -205 -76.5 -373t-205.5 -257t-297 -89q-189 0 -294.5 112.5t-105.5 305.5q0 169 67 321.5t189 243.5t266 91q127 0 195 -89h4q-19 69 -62 146t-87 124l-291 -118l-54 110l258 104q-78 86 -221 190h280q78 -58 128 -113
l280 116l53 -110zM805 638q0 106 -48 163t-135 57q-82 0 -151.5 -58.5t-114 -171t-44.5 -235.5q0 -106 45 -166.5t130 -60.5q86 0 157 59.5t116 175.5t45 237z" />
    <glyph glyph-name="Yacute" unicode="&#xdd;" horiz-adv-x="1190" 
d="M602 0h-249l112 527l-263 907h266l146 -603l10 -54l5 -46h4q31 68 51 97l413 606h278l-662 -902zM808 1566h-179l302 326h225z" />
    <glyph glyph-name="yacute" unicode="&#xfd;" horiz-adv-x="1046" 
d="M-27 -481q-70 0 -133 21l42 194q39 -24 100 -24q126 0 214 135l103 160l-193 1019h251l96 -705l4 -65l-2 -42h5q25 64 48 106l383 706h257l-689 -1154q-114 -191 -226.5 -271t-259.5 -80zM655 1202h-179l302 326h225z" />
    <glyph glyph-name="Thorn" unicode="&#xde;" horiz-adv-x="1234" 
d="M1200 825q0 -157 -73.5 -276.5t-213 -184t-331.5 -64.5h-207l-65 -300h-249l304 1434h250l-46 -219h182q212 0 330.5 -103t118.5 -287zM941 806q0 99 -69.5 154.5t-194.5 55.5h-151l-110 -517h176q164 0 256.5 80.5t92.5 226.5z" />
    <glyph glyph-name="thorn" unicode="&#xfe;" horiz-adv-x="1162" 
d="M1092 668q0 -187 -82 -351t-224.5 -253t-319.5 -89q-102 0 -194 29l-101 -477h-243l421 1989h241l-102 -482q-23 -107 -53 -205h4q137 220 348 220q145 0 225 -102t80 -279zM850 646q0 106 -41 159t-117 53q-70 0 -135 -51t-117.5 -152t-74.5 -206l-58 -266
q21 -8 73 -17.5t92 -9.5q107 0 193.5 67t135.5 181.5t49 241.5z" />
    <glyph glyph-name="minus" unicode="&#x2212;" horiz-adv-x="1426" 
d="M257 507v169h957v-169h-957z" />
    <glyph glyph-name="multiply" unicode="&#xd7;" horiz-adv-x="1426" 
d="M1066 134l-338 340l-340 -340l-120 119l340 338l-340 340l118 119l342 -340l340 340l117 -121l-339 -338l340 -338z" />
    <glyph glyph-name="one.frac" horiz-adv-x="789" 
d="M145 584l31 143h178l116 533l-204 -48l33 153l385 89l-157 -727h181l-30 -143h-533z" />
    <glyph glyph-name="two.frac" horiz-adv-x="789" 
d="M95 584l29 133l299 243q109 87 146 141t37 107q0 39 -28 64t-79 25q-97 0 -221 -82l40 180q102 59 229 59q116 0 181.5 -59.5t65.5 -158.5q0 -63 -27.5 -118t-81 -110.5t-171.5 -144.5l-164 -125l-2 -4h358l-33 -150h-578z" />
    <glyph glyph-name="three.frac" horiz-adv-x="789" 
d="M726 827q0 -76 -42 -136t-121 -94t-192 -34q-69 0 -145 14.5t-107 32.5l33 154q34 -22 99.5 -39.5t122.5 -17.5q83 0 130 34.5t47 91.5q0 112 -178 112h-95l32 144h96q89 0 144 37t55 93q0 39 -29.5 64.5t-95.5 25.5q-98 0 -195 -52l34 159q40 16 98 27t113 11
q117 0 185 -55.5t68 -148.5q0 -86 -57.5 -143.5t-153.5 -80.5v-4q154 -38 154 -195z" />
    <glyph glyph-name="onehalf" unicode="&#xbd;" horiz-adv-x="1956" 
d="M495 0h-196l1180 1434h195zM142 584l31 143h178l116 533l-204 -48l33 153l385 89l-157 -727h181l-30 -143h-533zM1095 2l29 133l299 243q109 87 146 141t37 107q0 39 -28 64t-79 25q-97 0 -221 -82l40 180q102 59 229 59q116 0 181.5 -59.5t65.5 -158.5q0 -63 -27.5 -118
t-81 -110.5t-171.5 -144.5l-164 -125l-2 -4h358l-33 -150h-578z" />
    <glyph glyph-name="onequarter" unicode="&#xbc;" horiz-adv-x="1911" 
d="M500 0h-196l1180 1434h195zM135 584l31 143h178l116 533l-204 -48l33 153l385 89l-157 -727h181l-30 -143h-533zM1619 193l-42 -191h-172l41 191h-396l24 122l467 537h218l-113 -527h112l-28 -132h-111zM1558 714q-9 -15 -20 -30.5t-298 -358.5h234l64 302l24 86z" />
    <glyph glyph-name="threequarters" unicode="&#xbe;" horiz-adv-x="1986" 
d="M549 0h-196l1180 1434h195zM1694 193l-42 -191h-172l41 191h-396l24 122l467 537h218l-113 -527h112l-28 -132h-111zM1633 714q-9 -15 -20 -30.5t-298 -358.5h234l64 302l24 86zM739 827q0 -76 -42 -136t-121 -94t-192 -34q-69 0 -145 14.5t-107 32.5l33 154
q34 -22 99.5 -39.5t122.5 -17.5q83 0 130 34.5t47 91.5q0 112 -178 112h-95l32 144h96q89 0 144 37t55 93q0 39 -29.5 64.5t-95.5 25.5q-98 0 -195 -52l34 159q40 16 98 27t113 11q117 0 185 -55.5t68 -148.5q0 -86 -57.5 -143.5t-153.5 -80.5v-4q154 -38 154 -195z" />
    <glyph glyph-name="franc" unicode="&#x20a3;" horiz-adv-x="1031" 
d="M615 250h-254l-53 -250h-245l52 250h-146l36 172h147l215 1012h778l-44 -207h-532l-88 -417h490l-43 -206h-491l-39 -182h254z" />
    <glyph glyph-name="Gbreve" unicode="&#x11e;" horiz-adv-x="1430" 
d="M1360 1135q-74 51 -177.5 81.5t-214.5 30.5q-174 0 -307.5 -77.5t-206 -218.5t-72.5 -323q0 -206 110.5 -325t301.5 -119q108 0 201 34l74 354h-312l44 204h559l-148 -694q-206 -108 -450 -108q-192 0 -337.5 79.5t-223 225t-77.5 332.5q0 245 106 440t300.5 301
t455.5 106q215 0 422 -88zM1334 1847q-40 -134 -130.5 -207.5t-213.5 -73.5q-109 0 -179.5 61.5t-70.5 165.5q0 30 8 54h133l-3 -31q0 -56 35.5 -86t89.5 -30q142 0 191 147h140z" />
    <glyph glyph-name="gbreve" unicode="&#x11f;" horiz-adv-x="1162" 
d="M283 -481q-165 0 -317 76l43 204q143 -93 292 -93q155 0 246 85t130 273l26 125h-4q-75 -117 -151.5 -165.5t-169.5 -48.5q-144 0 -226.5 100.5t-82.5 284.5q0 190 83.5 351.5t228.5 249.5t329 88q163 0 405 -46l-191 -905q-46 -217 -125 -337t-205.5 -181t-310.5 -61z
M843 853q-62 15 -152 15q-104 0 -192 -66t-137.5 -179t-49.5 -246q0 -103 40 -157t109 -54q70 0 133 48t115 149t75 212zM1112 1483q-40 -134 -130.5 -207.5t-213.5 -73.5q-109 0 -179.5 61.5t-70.5 165.5q0 30 8 54h133l-3 -31q0 -56 35.5 -86t89.5 -30q142 0 191 147h140z
" />
    <glyph glyph-name="Idotaccent" unicode="&#x130;" horiz-adv-x="597" 
d="M310 0h-249l303 1434h250zM656 1686q0 -51 -35 -85.5t-90 -34.5q-53 0 -89 34.5t-36 85.5t36 82.5t89 31.5q54 0 89.5 -31.5t35.5 -82.5z" />
    <glyph glyph-name="Scedilla" unicode="&#x15e;" horiz-adv-x="1059" 
d="M1029 1160q-63 43 -151.5 69t-167.5 26q-77 0 -131 -26.5t-82.5 -70t-28.5 -95.5q0 -72 42 -128.5t161 -135.5q154 -103 213.5 -194.5t59.5 -204.5q0 -125 -63.5 -225.5t-178.5 -150t-272 -49.5q-102 0 -210 26.5t-187 69.5l42 229q76 -56 173 -89t189 -33
q119 0 184 51.5t65 145.5q0 72 -46 126t-174 135q-136 86 -197.5 182.5t-61.5 213.5q0 121 62 219t176 152.5t270 54.5q175 0 358 -72zM663 -234q0 -98 -84.5 -155t-231.5 -57q-30 0 -99 6l25 113q35 -7 75 -7q77 0 116 23t39 62q0 70 -115 70l-51 -3l41 182h125l-21 -93
q84 -2 132.5 -39.5t48.5 -101.5z" />
    <glyph glyph-name="scedilla" unicode="&#x15f;" horiz-adv-x="854" 
d="M771 806q-44 26 -104.5 45t-120.5 19q-84 0 -125.5 -35.5t-41.5 -91.5q0 -50 34 -83t98 -68q130 -73 177.5 -139t47.5 -155q0 -97 -50.5 -169t-147.5 -113t-237 -41q-76 0 -161 17t-130 41l40 198q55 -33 130.5 -56t145.5 -23q88 0 131 33t43 91q0 45 -29.5 78t-114.5 79
q-113 61 -164.5 129t-51.5 160q0 94 48.5 168.5t140 116.5t217.5 42q75 0 146.5 -13.5t120.5 -33.5zM543 -234q0 -98 -84.5 -155t-231.5 -57q-30 0 -99 6l25 113q35 -7 75 -7q77 0 116 23t39 62q0 70 -115 70l-51 -3l41 182h125l-21 -93q84 -2 132.5 -39.5t48.5 -101.5z" />
    <glyph glyph-name="Cacute" unicode="&#x106;" horiz-adv-x="1304" 
d="M1319 1141q-167 100 -347 100q-174 0 -309.5 -79.5t-209.5 -220.5t-74 -318q0 -206 113.5 -319.5t307.5 -113.5q99 0 186 22t181 73l-53 -240q-161 -70 -373 -70q-187 0 -328.5 77.5t-217 220t-75.5 328.5q0 250 107.5 447.5t303.5 303.5t454 106q202 0 386 -78z
M979 1566h-179l302 326h225z" />
    <glyph glyph-name="cacute" unicode="&#x107;" horiz-adv-x="919" 
d="M882 782q-38 32 -94.5 54t-124.5 22q-95 0 -173.5 -56t-128.5 -161.5t-50 -221.5q0 -124 55.5 -188.5t158.5 -64.5q62 0 131.5 25t124.5 61l-42 -203q-142 -74 -282 -74q-182 0 -285 111.5t-103 308.5q0 178 77 330.5t214.5 238t311.5 85.5q73 0 145 -17.5t112 -44.5z
M720 1202h-179l302 326h225z" />
    <glyph glyph-name="Ccaron" unicode="&#x10c;" horiz-adv-x="1304" 
d="M1319 1141q-167 100 -347 100q-174 0 -309.5 -79.5t-209.5 -220.5t-74 -318q0 -206 113.5 -319.5t307.5 -113.5q99 0 186 22t181 73l-53 -240q-161 -70 -373 -70q-187 0 -328.5 77.5t-217 220t-75.5 328.5q0 250 107.5 447.5t303.5 303.5t454 106q202 0 386 -78z
M1055 1566h-193l-156 329h154l116 -210l206 210h165z" />
    <glyph glyph-name="ccaron" unicode="&#x10d;" horiz-adv-x="919" 
d="M882 782q-38 32 -94.5 54t-124.5 22q-95 0 -173.5 -56t-128.5 -161.5t-50 -221.5q0 -124 55.5 -188.5t158.5 -64.5q62 0 131.5 25t124.5 61l-42 -203q-142 -74 -282 -74q-182 0 -285 111.5t-103 308.5q0 178 77 330.5t214.5 238t311.5 85.5q73 0 145 -17.5t112 -44.5z
M787 1202h-193l-156 329h154l116 -210l206 210h165z" />
    <glyph glyph-name="dcroat" unicode="&#x111;" horiz-adv-x="1162" 
d="M1184 1336h140l-32 -146h-139l-181 -864q-12 -51 -24.5 -157t-12.5 -169h-245q0 47 18 191h-4q-73 -112 -149.5 -164t-175.5 -52q-147 0 -228.5 101.5t-81.5 285.5q0 187 83.5 349.5t229 250t330.5 87.5q88 0 168 -18l34 159h-331l32 146h330l39 180h238zM843 850
q-70 18 -136 18q-115 0 -202 -60t-140 -180.5t-53 -250.5q0 -104 39.5 -157.5t114.5 -53.5q73 0 136 53.5t111 151.5t73 215z" />
    <glyph glyph-name="macron" unicode="&#xaf;" horiz-adv-x="850" 
d="M152 1393l24 119h850l-24 -119h-850z" />
    <glyph glyph-name="uni2219" unicode="&#x2219;" horiz-adv-x="499" 
d="M399 638q0 -59 -42 -99.5t-109 -40.5q-60 0 -103 41t-43 99q0 57 42 97.5t107 40.5q62 0 105 -39.5t43 -98.5z" />
    <glyph glyph-name="Abreve" unicode="&#x102;" horiz-adv-x="1367" 
d="M992 0l-53 360h-561l-200 -360h-281l840 1434h281l227 -1434h-253zM839 1149v35l2 35h-5q-20 -60 -47 -110l-308 -549h432l-70 540q-4 18 -4 49zM1242 1848q-40 -134 -130.5 -207.5t-213.5 -73.5q-109 0 -179.5 61.5t-70.5 165.5q0 30 8 54h133l-3 -31q0 -56 35.5 -86
t89.5 -30q142 0 191 147h140z" />
    <glyph glyph-name="abreve" unicode="&#x103;" horiz-adv-x="1162" 
d="M935 0h-245q0 25 6 91.5t12 102.5h-4q-63 -92 -108.5 -133.5t-98.5 -63.5t-120 -22q-146 0 -227 103t-81 285q0 186 87.5 354t234 250t341.5 82q161 0 383 -48l-141 -668q-15 -71 -27 -174.5t-12 -158.5zM843 853q-62 15 -137 15q-114 0 -201 -59.5t-140 -180.5t-53 -253
q0 -100 38.5 -154.5t112.5 -54.5q108 0 194.5 113t126.5 299zM1100 1483q-40 -134 -130.5 -207.5t-213.5 -73.5q-109 0 -179.5 61.5t-70.5 165.5q0 30 8 54h133l-3 -31q0 -56 35.5 -86t89.5 -30q142 0 191 147h140z" />
    <glyph glyph-name="Aogonek" unicode="&#x104;" horiz-adv-x="1367" 
d="M992 0l-53 360h-561l-200 -360h-281l840 1434h281l227 -1434h-253zM839 1149v35l2 35h-5q-20 -60 -47 -110l-308 -549h432l-70 540q-4 18 -4 49zM1119 0q-95 -89 -133.5 -140t-38.5 -94q0 -76 78 -76q40 0 93 25l-22 -122q-43 -25 -121 -25q-93 0 -136 44.5t-43 117.5
q0 59 44.5 123.5t151.5 146.5h127z" />
    <glyph glyph-name="aogonek" unicode="&#x105;" horiz-adv-x="1162" 
d="M935 0h-245q0 25 6 91.5t12 102.5h-4q-63 -92 -108.5 -133.5t-98.5 -63.5t-120 -22q-146 0 -227 103t-81 285q0 186 87.5 354t234 250t341.5 82q161 0 383 -48l-141 -668q-15 -71 -27 -174.5t-12 -158.5zM843 853q-62 15 -137 15q-114 0 -201 -59.5t-140 -180.5t-53 -253
q0 -100 38.5 -154.5t112.5 -54.5q108 0 194.5 113t126.5 299zM869 0q-95 -89 -133.5 -140t-38.5 -94q0 -76 78 -76q40 0 93 25l-22 -122q-43 -25 -121 -25q-93 0 -136 44.5t-43 117.5q0 59 44.5 123.5t151.5 146.5h127z" />
    <glyph glyph-name="Dcaron" unicode="&#x10e;" horiz-adv-x="1500" 
d="M1450 854q0 -255 -108 -452t-303 -299.5t-461 -102.5h-517l305 1434h452q290 0 461 -155t171 -425zM1191 835q0 192 -111 291.5t-322 99.5h-188l-217 -1019h232q182 0 320 78t212 222.5t74 327.5zM945 1566h-193l-156 329h154l116 -210l206 210h165z" />
    <glyph glyph-name="dcaron" unicode="&#x10f;" horiz-adv-x="1370" 
d="M935 0h-245q0 47 18 191h-4q-73 -112 -149.5 -164t-175.5 -52q-147 0 -228.5 101.5t-81.5 285.5q0 187 83.5 349.5t229 250t330.5 87.5q88 0 168 -18l104 485h238l-250 -1190q-12 -51 -24.5 -157t-12.5 -169zM843 850q-70 18 -136 18q-115 0 -202 -60t-140 -180.5
t-53 -250.5q0 -104 39.5 -157.5t114.5 -53.5q105 0 191 113t129 307zM1645 1516l-232 -306h-158l168 306h222z" />
    <glyph glyph-name="Dcroat" unicode="&#x110;" horiz-adv-x="1500" 
d="M1450 846q0 -254 -108 -449t-303.5 -296t-463.5 -101h-514l133 620h-167l41 207h169l129 607h446q194 0 339.5 -72t222 -206.5t76.5 -309.5zM1191 827q0 195 -113 297t-320 102h-188l-86 -399h308l-43 -207h-308l-88 -413h219q294 0 456.5 165.5t162.5 454.5z" />
    <glyph glyph-name="Eogonek" unicode="&#x118;" horiz-adv-x="1053" 
d="M1097 1226h-527l-86 -406h490l-45 -208h-489l-87 -405h561l-43 -207h-810l304 1434h777zM745 0q-95 -89 -133.5 -140t-38.5 -94q0 -76 78 -76q40 0 93 25l-22 -122q-43 -25 -121 -25q-93 0 -136 44.5t-43 117.5q0 59 44.5 123.5t151.5 146.5h127z" />
    <glyph glyph-name="eogonek" unicode="&#x119;" horiz-adv-x="1031" 
d="M1004 772q0 -185 -172 -272.5t-522 -91.5l-2 -11v-20q0 -104 62 -161.5t173 -57.5q76 0 162.5 27.5t158.5 70.5l-40 -199q-151 -82 -333 -82q-199 0 -310.5 111t-111.5 313q0 174 76 325.5t212 238t298 86.5q161 0 255 -76t94 -201zM770 766q0 50 -36.5 79.5t-100.5 29.5
q-106 0 -192 -87t-113 -214q442 0 442 192zM597 0q-95 -89 -133.5 -140t-38.5 -94q0 -76 78 -76q40 0 93 25l-22 -122q-43 -25 -121 -25q-93 0 -136 44.5t-43 117.5q0 59 44.5 123.5t151.5 146.5h127z" />
    <glyph glyph-name="Ecaron" unicode="&#x11a;" horiz-adv-x="1053" 
d="M1097 1226h-527l-86 -406h490l-45 -208h-489l-87 -405h561l-43 -207h-810l304 1434h777zM868 1566h-193l-156 329h154l116 -210l206 210h165z" />
    <glyph glyph-name="ecaron" unicode="&#x11b;" horiz-adv-x="1031" 
d="M1004 772q0 -185 -172 -272.5t-522 -91.5l-2 -11v-20q0 -104 62 -161.5t173 -57.5q76 0 162.5 27.5t158.5 70.5l-40 -199q-151 -82 -333 -82q-199 0 -310.5 111t-111.5 313q0 174 76 325.5t212 238t298 86.5q161 0 255 -76t94 -201zM770 766q0 50 -36.5 79.5t-100.5 29.5
q-106 0 -192 -87t-113 -214q442 0 442 192zM761 1202h-193l-156 329h154l116 -210l206 210h165z" />
    <glyph glyph-name="Lacute" unicode="&#x139;" horiz-adv-x="998" 
d="M861 0h-800l304 1434h250l-260 -1223h550zM830 1566h-179l302 326h225z" />
    <glyph glyph-name="lacute" unicode="&#x13a;" horiz-adv-x="590" 
d="M314 -17q-111 0 -169 55t-58 156q0 67 38 241.5t230 1080.5h243l-242 -1137q-21 -100 -21 -129q0 -76 87 -76q51 0 91 16l-38 -184q-77 -23 -161 -23zM518 1650h-179l302 326h225z" />
    <glyph glyph-name="Lcaron" unicode="&#x13d;" horiz-adv-x="998" 
d="M861 0h-800l304 1434h250l-260 -1223h550zM1158 1434l-232 -306h-158l168 306h222z" />
    <glyph glyph-name="lcaron" unicode="&#x13e;" horiz-adv-x="744" 
d="M314 -17q-111 0 -169 55t-58 156q0 67 38 241.5t230 1080.5h243l-242 -1137q-21 -100 -21 -129q0 -76 87 -76q51 0 91 16l-38 -184q-77 -23 -161 -23zM1024 1516l-232 -306h-158l168 306h222z" />
    <glyph glyph-name="Ldot" unicode="&#x13f;" horiz-adv-x="998" 
d="M861 0h-800l304 1434h250l-260 -1223h550zM961 771q0 -51 -35 -85.5t-90 -34.5q-53 0 -89 34.5t-36 85.5t36 82.5t89 31.5q54 0 89.5 -31.5t35.5 -82.5z" />
    <glyph glyph-name="ldot" unicode="&#x140;" horiz-adv-x="766" 
d="M314 -17q-111 0 -169 55t-58 156q0 67 38 241.5t230 1080.5h243l-242 -1137q-21 -100 -21 -129q0 -76 87 -76q51 0 91 16l-38 -184q-77 -23 -161 -23zM817 741q0 -51 -35 -85.5t-90 -34.5q-53 0 -89 34.5t-36 85.5t36 82.5t89 31.5q54 0 89.5 -31.5t35.5 -82.5z" />
    <glyph glyph-name="Nacute" unicode="&#x143;" horiz-adv-x="1587" 
d="M1301 0h-240l-489 1030q-6 13 -20.5 50t-17.5 53h-6l-9 -68l-12 -73l-211 -992h-235l303 1434h261l479 -1025q23 -51 33 -84h4q5 69 19 133l208 976h237zM1001 1566h-179l302 326h225z" />
    <glyph glyph-name="nacute" unicode="&#x144;" horiz-adv-x="1188" 
d="M1098 774q0 -51 -31 -198l-122 -576h-242l124 592q20 107 20 131q0 60 -31.5 97.5t-89.5 37.5q-64 0 -136.5 -50.5t-128.5 -135.5t-74 -169l-107 -503h-244l155 716q36 172 53 308h236q-8 -85 -31 -220h4q80 117 182.5 181t203.5 64q124 0 191.5 -71t67.5 -204zM796 1202
h-179l302 326h225z" />
    <glyph glyph-name="Ncaron" unicode="&#x147;" horiz-adv-x="1587" 
d="M1301 0h-240l-489 1030q-6 13 -20.5 50t-17.5 53h-6l-9 -68l-12 -73l-211 -992h-235l303 1434h261l479 -1025q23 -51 33 -84h4q5 69 19 133l208 976h237zM1079 1566h-193l-156 329h154l116 -210l206 210h165z" />
    <glyph glyph-name="ncaron" unicode="&#x148;" horiz-adv-x="1188" 
d="M1098 774q0 -51 -31 -198l-122 -576h-242l124 592q20 107 20 131q0 60 -31.5 97.5t-89.5 37.5q-64 0 -136.5 -50.5t-128.5 -135.5t-74 -169l-107 -503h-244l155 716q36 172 53 308h236q-8 -85 -31 -220h4q80 117 182.5 181t203.5 64q124 0 191.5 -71t67.5 -204zM830 1202
h-193l-156 329h154l116 -210l206 210h165z" />
    <glyph glyph-name="Ohungarumlaut" unicode="&#x150;" horiz-adv-x="1549" 
d="M1499 847q0 -232 -98.5 -434.5t-272.5 -320t-413 -117.5q-175 0 -309.5 77t-208 218t-73.5 319q0 188 59 348t171.5 281.5t252 180.5t304.5 59q173 0 307.5 -75.5t207.5 -215t73 -320.5zM1239 838q0 186 -95.5 294.5t-258.5 108.5q-136 0 -253.5 -85.5t-183 -240.5
t-65.5 -325q0 -183 93.5 -291.5t258.5 -108.5q143 0 257.5 84t180.5 241t66 323zM1108 1567h-158l243 325h199zM789 1567h-159l245 325h194z" />
    <glyph glyph-name="ohungarumlaut" unicode="&#x151;" horiz-adv-x="1137" 
d="M1067 631q0 -186 -74.5 -339.5t-206 -235t-303.5 -81.5q-193 0 -303.5 111t-110.5 307q0 186 74.5 338t205.5 235t304 83q190 0 302 -111.5t112 -306.5zM823 625q0 107 -49.5 170t-137.5 63q-91 0 -165 -62.5t-116.5 -169.5t-42.5 -229q0 -108 50.5 -169.5t137.5 -61.5
q93 0 167.5 62.5t115 169.5t40.5 227zM887 1202h-158l243 325h199zM568 1202h-159l245 325h194z" />
    <glyph glyph-name="Racute" unicode="&#x154;" horiz-adv-x="1251" 
d="M1237 1074q0 -176 -117 -290t-308 -135v-4q113 -37 156 -209l110 -436h-265l-92 398q-21 92 -68.5 136.5t-128.5 44.5h-90l-124 -579h-249l304 1434h443q202 0 315.5 -95t113.5 -265zM977 1038q0 90 -55.5 144.5t-170.5 54.5h-178l-98 -460h165q158 0 247.5 70.5
t89.5 190.5zM826 1566h-179l302 326h225z" />
    <glyph glyph-name="racute" unicode="&#x155;" horiz-adv-x="773" 
d="M798 791q-61 32 -118 32q-104 0 -189.5 -105t-122.5 -280l-93 -438h-242l142 666q51 249 60 358h238q-10 -97 -28 -216h4q63 114 132.5 177.5t162.5 63.5q38 0 101 -15zM592 1202h-179l302 326h225z" />
    <glyph glyph-name="Rcaron" unicode="&#x158;" horiz-adv-x="1251" 
d="M1237 1074q0 -176 -117 -290t-308 -135v-4q113 -37 156 -209l110 -436h-265l-92 398q-21 92 -68.5 136.5t-128.5 44.5h-90l-124 -579h-249l304 1434h443q202 0 315.5 -95t113.5 -265zM977 1038q0 90 -55.5 144.5t-170.5 54.5h-178l-98 -460h165q158 0 247.5 70.5
t89.5 190.5zM878 1566h-193l-156 329h154l116 -210l206 210h165z" />
    <glyph glyph-name="rcaron" unicode="&#x159;" horiz-adv-x="773" 
d="M798 791q-61 32 -118 32q-104 0 -189.5 -105t-122.5 -280l-93 -438h-242l142 666q51 249 60 358h238q-10 -97 -28 -216h4q63 114 132.5 177.5t162.5 63.5q38 0 101 -15zM661 1202h-193l-156 329h154l116 -210l206 210h165z" />
    <glyph glyph-name="Sacute" unicode="&#x15a;" horiz-adv-x="1059" 
d="M1029 1160q-63 43 -151.5 69t-167.5 26q-77 0 -131 -26.5t-82.5 -70t-28.5 -95.5q0 -72 42 -128.5t161 -135.5q154 -103 213.5 -194.5t59.5 -204.5q0 -125 -63.5 -225.5t-178.5 -150t-272 -49.5q-102 0 -210 26.5t-187 69.5l42 229q76 -56 173 -89t189 -33
q119 0 184 51.5t65 145.5q0 72 -46 126t-174 135q-136 86 -197.5 182.5t-61.5 213.5q0 121 62 219t176 152.5t270 54.5q175 0 358 -72zM775 1566h-179l302 326h225z" />
    <glyph glyph-name="sacute" unicode="&#x15b;" horiz-adv-x="854" 
d="M771 806q-44 26 -104.5 45t-120.5 19q-84 0 -125.5 -35.5t-41.5 -91.5q0 -50 34 -83t98 -68q130 -73 177.5 -139t47.5 -155q0 -97 -50.5 -169t-147.5 -113t-237 -41q-76 0 -161 17t-130 41l40 198q55 -33 130.5 -56t145.5 -23q88 0 131 33t43 91q0 45 -29.5 78t-114.5 79
q-113 61 -164.5 129t-51.5 160q0 94 48.5 168.5t140 116.5t217.5 42q75 0 146.5 -13.5t120.5 -33.5zM623 1202h-179l302 326h225z" />
    <glyph glyph-name="uni0162" unicode="&#x162;" horiz-adv-x="1139" 
d="M1246 1226h-406l-259 -1226h-248l259 1226h-413l45 208h1067zM656 -234q0 -98 -84.5 -155t-231.5 -57q-30 0 -99 6l25 113q35 -7 75 -7q77 0 116 23t39 62q0 70 -115 70l-51 -3l41 182h125l-21 -93q84 -2 132.5 -39.5t48.5 -101.5z" />
    <glyph glyph-name="uni0163" unicode="&#x163;" horiz-adv-x="715" 
d="M733 838h-249l-98 -463q-18 -87 -18 -117q0 -46 21 -66.5t69 -20.5q46 0 140 36l-40 -189q-100 -39 -198 -39q-237 0 -237 231q0 58 21 152l100 476h-164l44 186h159l53 245l254 67l-65 -312h251zM526 -234q0 -98 -84.5 -155t-231.5 -57q-30 0 -99 6l25 113q35 -7 75 -7
q77 0 116 23t39 62q0 70 -115 70l-51 -3l41 182h125l-21 -93q84 -2 132.5 -39.5t48.5 -101.5z" />
    <glyph glyph-name="Tcaron" unicode="&#x164;" horiz-adv-x="1139" 
d="M1246 1226h-406l-259 -1226h-248l259 1226h-413l45 208h1067zM864 1566h-193l-156 329h154l116 -210l206 210h165z" />
    <glyph glyph-name="tcaron" unicode="&#x165;" horiz-adv-x="889" 
d="M733 838h-249l-98 -463q-18 -87 -18 -117q0 -46 21 -66.5t69 -20.5q46 0 140 36l-40 -189q-100 -39 -198 -39q-237 0 -237 231q0 58 21 152l100 476h-164l44 186h159l53 245l254 67l-65 -312h251zM1095 1446l-232 -306h-158l168 306h222z" />
    <glyph glyph-name="Uring" unicode="&#x16e;" horiz-adv-x="1446" 
d="M650 -25q-226 0 -358.5 127.5t-132.5 341.5q0 104 24 215l167 775h249l-167 -771q-27 -135 -27 -196q0 -129 74 -203t200 -74q150 0 236.5 90.5t128.5 286.5l187 867h249l-185 -861q-48 -224 -127.5 -350t-205.5 -187t-312 -61zM1168 1762q0 -92 -65.5 -151t-159.5 -59
t-156.5 56t-62.5 147q0 94 64 152t160 58q98 0 159 -56t61 -147zM1052 1760q0 45 -30.5 73.5t-78.5 28.5q-45 0 -74.5 -30t-29.5 -72q0 -48 28 -76.5t76 -28.5q47 0 78 29.5t31 75.5z" />
    <glyph glyph-name="uring" unicode="&#x16f;" horiz-adv-x="1184" 
d="M941 0h-240l31 217h-4q-81 -114 -181 -178t-204 -64q-127 0 -194 72.5t-67 203.5q0 49 31 196l122 577h242l-125 -589q-21 -112 -21 -134q0 -60 30 -95t90 -35q69 0 141.5 51t128.5 137.5t74 172.5l105 492h242l-147 -688q-39 -186 -54 -336zM958 1376q0 -92 -65.5 -151
t-159.5 -59t-156.5 56t-62.5 147q0 94 64 152t160 58q98 0 159 -56t61 -147zM842 1374q0 45 -30.5 73.5t-78.5 28.5q-45 0 -74.5 -30t-29.5 -72q0 -48 28 -76.5t76 -28.5q47 0 78 29.5t31 75.5z" />
    <glyph glyph-name="Uhungarumlaut" unicode="&#x170;" horiz-adv-x="1446" 
d="M650 -25q-226 0 -358.5 127.5t-132.5 341.5q0 104 24 215l167 775h249l-167 -771q-27 -135 -27 -196q0 -129 74 -203t200 -74q150 0 236.5 90.5t128.5 286.5l187 867h249l-185 -861q-48 -224 -127.5 -350t-205.5 -187t-312 -61zM1113 1566h-158l243 325h199zM794 1566
h-159l245 325h194z" />
    <glyph glyph-name="uhungarumlaut" unicode="&#x171;" horiz-adv-x="1184" 
d="M941 0h-240l31 217h-4q-81 -114 -181 -178t-204 -64q-127 0 -194 72.5t-67 203.5q0 49 31 196l122 577h242l-125 -589q-21 -112 -21 -134q0 -60 30 -95t90 -35q69 0 141.5 51t128.5 137.5t74 172.5l105 492h242l-147 -688q-39 -186 -54 -336zM915 1202h-158l243 325h199z
M596 1202h-159l245 325h194z" />
    <glyph glyph-name="Zacute" unicode="&#x179;" horiz-adv-x="1205" 
d="M333 207h750l-44 -207h-1113l24 118l998 1108h-702l44 208h1064l-25 -112zM849 1567h-179l302 326h225z" />
    <glyph glyph-name="zacute" unicode="&#x17a;" horiz-adv-x="960" 
d="M316 186h529l-40 -186h-886l19 93l707 745h-494l40 186h835l-23 -105zM669 1202h-179l302 326h225z" />
    <glyph glyph-name="Zdotaccent" unicode="&#x17b;" horiz-adv-x="1205" 
d="M333 207h750l-44 -207h-1113l24 118l998 1108h-702l44 208h1064l-25 -112zM958 1686q0 -51 -35 -85.5t-90 -34.5q-53 0 -89 34.5t-36 85.5t36 82.5t89 31.5q54 0 89.5 -31.5t35.5 -82.5z" />
    <glyph glyph-name="zdotaccent" unicode="&#x17c;" horiz-adv-x="960" 
d="M316 186h529l-40 -186h-886l19 93l707 745h-494l40 186h835l-23 -105zM758 1322q0 -51 -35 -85.5t-90 -34.5q-53 0 -89 34.5t-36 85.5t36 82.5t89 31.5q54 0 89.5 -31.5t35.5 -82.5z" />
    <glyph glyph-name="Gamma" unicode="&#x393;" horiz-adv-x="1026" 
d="M1120 1223h-552l-260 -1223h-247l305 1434h799z" />
    <glyph glyph-name="Theta" unicode="&#x398;" horiz-adv-x="1549" 
d="M1499 847q0 -232 -98.5 -434.5t-272.5 -320t-413 -117.5q-175 0 -309.5 77t-208 218t-73.5 319q0 188 59 348t171.5 281.5t252 180.5t304.5 59q173 0 307.5 -75.5t207.5 -215t73 -320.5zM1239 838q0 186 -95.5 294.5t-258.5 108.5q-136 0 -253.5 -85.5t-183 -240.5
t-65.5 -325q0 -183 93.5 -291.5t258.5 -108.5q143 0 257.5 84t180.5 241t66 323zM1032 617h-487l42 197h486z" />
    <glyph glyph-name="Phi" unicode="&#x3a6;" horiz-adv-x="1617" 
d="M1601 817q0 -181 -84.5 -329t-229.5 -225t-331 -77h-116l-43 -207h-237l44 207h-58q-216 0 -343.5 125.5t-127.5 342.5q0 186 85.5 336.5t231.5 228t335 77.5h117l32 157h232l-33 -157h57q218 0 343.5 -128t125.5 -351zM1355 811q0 139 -73 217t-202 78h-45l-155 -732h69
q121 0 213.5 56.5t142.5 157.5t50 223zM729 1106q-121 0 -212.5 -55.5t-142.5 -156t-51 -224.5q0 -138 72 -217t203 -79h45l155 732h-69z" />
    <glyph glyph-name="alpha" unicode="&#x3b1;" horiz-adv-x="1307" 
d="M817 516q-11 187 -51.5 266.5t-111.5 79.5q-86 0 -163 -67t-126.5 -184.5t-49.5 -244.5q0 -87 37.5 -141.5t104.5 -54.5q173 0 319 266zM834 282q-89 -152 -194 -229.5t-240 -77.5q-155 0 -243 101.5t-88 280.5q0 183 78.5 343.5t214 254.5t289.5 94q116 0 189.5 -66.5
t105.5 -209.5h5q68 125 128 251h251l-310 -519q11 -176 38.5 -245.5t79.5 -69.5q44 0 70 13l-49 -198q-51 -17 -104 -17q-106 0 -158 72t-59 222h-4z" />
    <glyph glyph-name="delta" unicode="&#x3b4;" horiz-adv-x="1228" 
d="M1202 1246q-70 43 -166 70.5t-174 27.5q-103 0 -159.5 -34t-56.5 -96q0 -39 20.5 -73.5t58 -70t157.5 -121.5q140 -103 199.5 -209.5t59.5 -240.5q0 -248 -155 -386.5t-434 -138.5q-224 0 -354.5 117.5t-130.5 316.5q0 192 123.5 324t366.5 198q-157 132 -157 287
q0 154 122.5 236t356.5 82q95 0 196 -19t171 -51zM692 813q-380 -100 -380 -397q0 -117 66 -184t186 -67q155 0 244 85.5t89 233.5q0 89 -48 169.5t-157 159.5z" />
    <glyph glyph-name="epsilon" unicode="&#x3b5;" horiz-adv-x="953" 
d="M439 -25q-198 0 -305.5 76.5t-107.5 205.5q0 110 80 182t230 95l2 4q-74 21 -123.5 77t-49.5 134q0 143 121.5 221.5t346.5 78.5q87 0 172 -14.5t135 -38.5l-37 -187q-57 29 -133 47t-133 18q-103 0 -163 -37t-60 -108q0 -60 55.5 -92.5t157.5 -32.5q77 0 137 6l-32 -170
q-39 6 -144 6q-310 0 -310 -165q0 -130 214 -130q158 0 339 79l-42 -198q-164 -57 -350 -57z" />
    <glyph glyph-name="sigma" unicode="&#x3c3;" horiz-adv-x="1220" 
d="M1271 844h-231q41 -106 41 -237q0 -292 -155.5 -462t-420.5 -170q-203 0 -319.5 111.5t-116.5 310.5q0 293 174.5 460t482.5 167h584zM838 626q0 142 -26 216h-94q-188 0 -296.5 -120.5t-108.5 -323.5q0 -108 58.5 -170.5t155.5 -62.5q145 0 228 123.5t83 337.5z" />
    <glyph glyph-name="tau" unicode="&#x3c4;" horiz-adv-x="1066" 
d="M570 -17q-111 0 -171 56.5t-60 159.5q0 64 9 105l111 534h-115q-64 0 -140.5 -22t-143.5 -59l44 205q52 27 131.5 44.5t168.5 17.5h727l-40 -186h-393l-103 -491q-14 -62 -14 -99q0 -74 87 -74q51 0 91 16l-39 -184q-75 -23 -150 -23z" />
    <glyph glyph-name="phi" unicode="&#x3c6;" horiz-adv-x="1544" 
d="M1474 642q0 -198 -78.5 -347.5t-233.5 -234.5t-352 -85h-40l-96 -453h-230l96 453h-27q-205 0 -324.5 112t-119.5 305q0 174 78 340t219 292h260q-143 -124 -230.5 -290t-87.5 -325q0 -117 65.5 -182.5t187.5 -65.5h18l112 528q41 190 139 275t266 85q170 0 274 -113
t104 -294zM1237 635q0 109 -42 168.5t-114 59.5q-62 0 -100 -37t-56 -122l-115 -543h24q113 0 205.5 57t145 164t52.5 253z" />
    <glyph glyph-name="underscoredbl" unicode="&#x2017;" horiz-adv-x="850" 
d="M0 -277v119h850v-119h-850zM0 -514v119h850v-119h-850z" />
    <glyph glyph-name="exclamdbl" unicode="&#x203c;" horiz-adv-x="1133" 
d="M415 424h-196l186 1010h252zM409 121q0 -59 -42.5 -100.5t-107.5 -41.5q-61 0 -103 38.5t-42 94.5q0 61 43.5 102t108.5 41q59 0 101 -38.5t42 -95.5zM867 424h-196l186 1010h252zM861 121q0 -59 -42.5 -100.5t-107.5 -41.5q-61 0 -103 38.5t-42 94.5q0 61 43.5 102
t108.5 41q59 0 101 -38.5t42 -95.5z" />
    <glyph glyph-name="uni207F" unicode="&#x207f;" horiz-adv-x="844" 
d="M303 716h-170l153 719h170l-32 -145h4q50 74 121 119t147 45q85 0 132 -50t47 -141q0 -61 -15 -127l-89 -420h-170l92 432q10 48 10 82q0 38 -22 62t-67 24q-50 0 -98 -31.5t-85 -84t-47 -101.5z" />
    <glyph glyph-name="peseta" unicode="&#x20a7;" horiz-adv-x="2454" 
d="M1395 -20q-233 0 -233 226q0 60 16 129l74 349h-157l24 111q-67 -134 -210.5 -205.5t-347.5 -71.5h-146l-109 -518h-243l303 1434h352q216 0 336 -105.5t120 -293.5q0 -98 -26 -172h142l46 218l249 71l-60 -289h229l-39 -179h-229l-67 -314q-15 -78 -15 -110
q0 -91 80 -91q56 0 145 36l-40 -191q-85 -34 -194 -34zM2341 267q0 -136 -103 -213t-297 -77q-79 0 -162 15t-134 39l38 191q42 -25 117.5 -47t149.5 -22q80 0 129 26t49 71q0 33 -28.5 57.5t-137.5 70.5q-101 43 -146.5 98t-45.5 133q0 124 104 196t277 72q62 0 133 -12.5
t118 -32.5l-38 -182q-39 22 -104 37t-119 15q-155 0 -155 -85q0 -35 38 -58t116 -54q111 -46 156 -101t45 -137zM563 716q174 0 263.5 81.5t89.5 234.5q0 97 -67.5 150t-183.5 53h-97l-111 -519h106z" />
    <glyph glyph-name="IJ" unicode="&#x132;" horiz-adv-x="1414" 
d="M310 0h-249l303 1434h250zM701 -25q-43 0 -104 12.5t-87 26.5l43 229q24 -20 69 -37t87 -17q115 0 186 83.5t111 268.5l190 893h248l-190 -894q-63 -290 -199.5 -427.5t-353.5 -137.5z" />
    <glyph glyph-name="ij" unicode="&#x133;" horiz-adv-x="1106" 
d="M586 1371q0 -60 -43 -99.5t-105 -39.5q-60 0 -101.5 36t-41.5 95q0 61 44 99t106 38q58 0 99.5 -36.5t41.5 -92.5zM314 -17q-110 0 -167.5 55.5t-57.5 158.5q0 52 11 102l149 725h243l-136 -645q-21 -100 -21 -129q0 -76 87 -76q51 0 91 16l-38 -184q-86 -23 -161 -23z
M1177 1371q0 -60 -43 -99.5t-105 -39.5q-60 0 -101.5 36t-41.5 95q0 61 44 99t106 38q58 0 99.5 -36.5t41.5 -92.5zM407 -481q-119 0 -183 31l40 198q23 -16 58.5 -27.5t60.5 -11.5q89 0 149.5 74.5t94.5 234.5l214 1006h242l-215 -1010q-56 -257 -169.5 -376t-291.5 -119z
" />
    <glyph glyph-name="napostrophe" unicode="&#x149;" horiz-adv-x="1353" 
d="M1263 774q0 -51 -31 -198l-122 -576h-242l124 592q20 107 20 131q0 60 -31.5 97.5t-89.5 37.5q-64 0 -136.5 -50.5t-128.5 -135.5t-74 -169l-107 -503h-244l155 716q36 172 53 308h236q-8 -85 -31 -220h4q80 117 182.5 181t203.5 64q124 0 191.5 -71t67.5 -204zM252 997
h-155l167 446h199z" />
    <glyph glyph-name="minute" unicode="&#x2032;" horiz-adv-x="534" 
d="M549 1443l-116 -445h-157l75 445h198z" />
    <glyph glyph-name="second" unicode="&#x2033;" horiz-adv-x="881" 
d="M896 1443l-115 -446h-159l75 446h199zM557 1443l-115 -445h-159l75 445h199z" />
    <glyph glyph-name="uni2105" unicode="&#x2105;" horiz-adv-x="1645" 
d="M1572 424q0 -118 -50 -221.5t-139.5 -163t-202.5 -59.5q-142 0 -224 82t-82 219q0 115 51.5 217.5t143.5 163t205 60.5q140 0 219 -80t79 -218zM307 0h-197l1228 1434h197zM1398 419q0 161 -130 161q-92 0 -155.5 -89t-63.5 -210q0 -159 136 -159q92 0 152.5 88t60.5 209
zM745 1406l-31 -156q-78 61 -167 61q-97 0 -163.5 -84.5t-66.5 -206.5q0 -77 36 -121.5t102 -44.5q84 0 199 70l-33 -163q-97 -50 -192 -50q-133 0 -210.5 79t-77.5 221q0 123 53 225t149.5 160t212.5 58q115 0 189 -48z" />
    <glyph glyph-name="uni2113" unicode="&#x2113;" horiz-adv-x="662" 
d="M8 437l185 230v445q0 207 56.5 293t178.5 86q98 0 157.5 -63t59.5 -163t-75.5 -241t-247.5 -360v-408q0 -92 21 -129.5t75 -37.5q61 0 198 106v-131q-109 -89 -225 -89q-100 0 -149 64t-49 201v258l-105 -127zM322 842q131 184 169.5 266.5t38.5 155.5q0 126 -100 126
q-59 0 -83.5 -57.5t-24.5 -215.5v-275z" />
    <glyph glyph-name="H22073" unicode="&#x25a1;" horiz-adv-x="1237" 
d="M1090 944v-944h-945v944h945zM221 76h793v792h-793v-792z" />
    <glyph glyph-name="H18543" unicode="&#x25aa;" horiz-adv-x="725" 
d="M594 444h-463v463h463v-463z" />
    <glyph glyph-name="H18551" unicode="&#x25ab;" horiz-adv-x="725" 
d="M594 907v-463h-463v463h463zM518 831h-311v-311h311v311z" />
    <glyph glyph-name="H18533" unicode="&#x25cf;" horiz-adv-x="1237" 
d="M618 1018q122 0 222.5 -60.5t159.5 -164.5t59 -215q0 -118 -59.5 -220.5t-161.5 -161.5t-217 -59q-119 0 -222.5 60t-162 162t-58.5 219q0 120 60 221t164 160t216 59z" />
    <glyph glyph-name="openbullet" unicode="&#x25e6;" horiz-adv-x="725" 
d="M362 928q102 0 177 -73.5t75 -176.5q0 -104 -73 -178t-179 -74q-104 0 -177 74.5t-73 177.5q0 102 74 176t176 74zM362 852q-71 0 -122.5 -51t-51.5 -123q0 -74 51.5 -125t124.5 -51q72 0 123 51.5t51 124.5q0 72 -52.5 123t-123.5 51z" />
    <glyph glyph-name="Amacron" unicode="&#x100;" horiz-adv-x="1367" 
d="M992 0l-53 360h-561l-200 -360h-281l840 1434h281l227 -1434h-253zM839 1149v35l2 35h-5q-20 -60 -47 -110l-308 -549h432l-70 540q-4 18 -4 49zM1165 1566h-547l27 140h547z" />
    <glyph glyph-name="amacron" unicode="&#x101;" horiz-adv-x="1162" 
d="M935 0h-245q0 25 6 91.5t12 102.5h-4q-63 -92 -108.5 -133.5t-98.5 -63.5t-120 -22q-146 0 -227 103t-81 285q0 186 87.5 354t234 250t341.5 82q161 0 383 -48l-141 -668q-15 -71 -27 -174.5t-12 -158.5zM843 853q-62 15 -137 15q-114 0 -201 -59.5t-140 -180.5t-53 -253
q0 -100 38.5 -154.5t112.5 -54.5q108 0 194.5 113t126.5 299zM1033 1202h-547l27 140h547z" />
    <glyph glyph-name="Ccircumflex" unicode="&#x108;" horiz-adv-x="1304" 
d="M1319 1141q-167 100 -347 100q-174 0 -309.5 -79.5t-209.5 -220.5t-74 -318q0 -206 113.5 -319.5t307.5 -113.5q99 0 186 22t181 73l-53 -240q-161 -70 -373 -70q-187 0 -328.5 77.5t-217 220t-75.5 328.5q0 250 107.5 447.5t303.5 303.5t454 106q202 0 386 -78z
M1139 1567l-115 211l-205 -211h-166l293 329h191l157 -329h-155z" />
    <glyph glyph-name="ccircumflex" unicode="&#x109;" horiz-adv-x="919" 
d="M882 782q-38 32 -94.5 54t-124.5 22q-95 0 -173.5 -56t-128.5 -161.5t-50 -221.5q0 -124 55.5 -188.5t158.5 -64.5q62 0 131.5 25t124.5 61l-42 -203q-142 -74 -282 -74q-182 0 -285 111.5t-103 308.5q0 178 77 330.5t214.5 238t311.5 85.5q73 0 145 -17.5t112 -44.5z
M840 1202l-115 211l-205 -211h-166l293 329h191l157 -329h-155z" />
    <glyph glyph-name="Cdotaccent" unicode="&#x10a;" horiz-adv-x="1304" 
d="M1319 1141q-167 100 -347 100q-174 0 -309.5 -79.5t-209.5 -220.5t-74 -318q0 -206 113.5 -319.5t307.5 -113.5q99 0 186 22t181 73l-53 -240q-161 -70 -373 -70q-187 0 -328.5 77.5t-217 220t-75.5 328.5q0 250 107.5 447.5t303.5 303.5t454 106q202 0 386 -78z
M1143 1686q0 -51 -35 -85.5t-90 -34.5q-53 0 -89 34.5t-36 85.5t36 82.5t89 31.5q54 0 89.5 -31.5t35.5 -82.5z" />
    <glyph glyph-name="cdotaccent" unicode="&#x10b;" horiz-adv-x="919" 
d="M882 782q-38 32 -94.5 54t-124.5 22q-95 0 -173.5 -56t-128.5 -161.5t-50 -221.5q0 -124 55.5 -188.5t158.5 -64.5q62 0 131.5 25t124.5 61l-42 -203q-142 -74 -282 -74q-182 0 -285 111.5t-103 308.5q0 178 77 330.5t214.5 238t311.5 85.5q73 0 145 -17.5t112 -44.5z
M844 1322q0 -51 -35 -85.5t-90 -34.5q-53 0 -89 34.5t-36 85.5t36 82.5t89 31.5q54 0 89.5 -31.5t35.5 -82.5z" />
    <glyph glyph-name="Emacron" unicode="&#x112;" horiz-adv-x="1053" 
d="M1097 1226h-527l-86 -406h490l-45 -208h-489l-87 -405h561l-43 -207h-810l304 1434h777zM1043 1566h-547l27 140h547z" />
    <glyph glyph-name="emacron" unicode="&#x113;" horiz-adv-x="1031" 
d="M1004 772q0 -185 -172 -272.5t-522 -91.5l-2 -11v-20q0 -104 62 -161.5t173 -57.5q76 0 162.5 27.5t158.5 70.5l-40 -199q-151 -82 -333 -82q-199 0 -310.5 111t-111.5 313q0 174 76 325.5t212 238t298 86.5q161 0 255 -76t94 -201zM770 766q0 50 -36.5 79.5t-100.5 29.5
q-106 0 -192 -87t-113 -214q442 0 442 192zM936 1202h-547l27 140h547z" />
    <glyph glyph-name="Ebreve" unicode="&#x114;" horiz-adv-x="1053" 
d="M1097 1226h-527l-86 -406h490l-45 -208h-489l-87 -405h561l-43 -207h-810l304 1434h777zM1125 1848q-40 -134 -130.5 -207.5t-213.5 -73.5q-109 0 -179.5 61.5t-70.5 165.5q0 30 8 54h133l-3 -31q0 -56 35.5 -86t89.5 -30q142 0 191 147h140z" />
    <glyph glyph-name="ebreve" unicode="&#x115;" horiz-adv-x="1031" 
d="M1004 772q0 -185 -172 -272.5t-522 -91.5l-2 -11v-20q0 -104 62 -161.5t173 -57.5q76 0 162.5 27.5t158.5 70.5l-40 -199q-151 -82 -333 -82q-199 0 -310.5 111t-111.5 313q0 174 76 325.5t212 238t298 86.5q161 0 255 -76t94 -201zM770 766q0 50 -36.5 79.5t-100.5 29.5
q-106 0 -192 -87t-113 -214q442 0 442 192zM1016 1483q-40 -134 -130.5 -207.5t-213.5 -73.5q-109 0 -179.5 61.5t-70.5 165.5q0 30 8 54h133l-3 -31q0 -56 35.5 -86t89.5 -30q142 0 191 147h140z" />
    <glyph glyph-name="Edotaccent" unicode="&#x116;" horiz-adv-x="1053" 
d="M1097 1226h-527l-86 -406h490l-45 -208h-489l-87 -405h561l-43 -207h-810l304 1434h777zM921 1686q0 -51 -35 -85.5t-90 -34.5q-53 0 -89 34.5t-36 85.5t36 82.5t89 31.5q54 0 89.5 -31.5t35.5 -82.5z" />
    <glyph glyph-name="edotaccent" unicode="&#x117;" horiz-adv-x="1031" 
d="M1004 772q0 -185 -172 -272.5t-522 -91.5l-2 -11v-20q0 -104 62 -161.5t173 -57.5q76 0 162.5 27.5t158.5 70.5l-40 -199q-151 -82 -333 -82q-199 0 -310.5 111t-111.5 313q0 174 76 325.5t212 238t298 86.5q161 0 255 -76t94 -201zM770 766q0 50 -36.5 79.5t-100.5 29.5
q-106 0 -192 -87t-113 -214q442 0 442 192zM821 1322q0 -51 -35 -85.5t-90 -34.5q-53 0 -89 34.5t-36 85.5t36 82.5t89 31.5q54 0 89.5 -31.5t35.5 -82.5z" />
    <glyph glyph-name="Gcircumflex" unicode="&#x11c;" horiz-adv-x="1430" 
d="M1360 1135q-74 51 -177.5 81.5t-214.5 30.5q-174 0 -307.5 -77.5t-206 -218.5t-72.5 -323q0 -206 110.5 -325t301.5 -119q108 0 201 34l74 354h-312l44 204h559l-148 -694q-206 -108 -450 -108q-192 0 -337.5 79.5t-223 225t-77.5 332.5q0 245 106 440t300.5 301
t455.5 106q215 0 422 -88zM1139 1567l-115 211l-205 -211h-166l293 329h191l157 -329h-155z" />
    <glyph glyph-name="gcircumflex" unicode="&#x11d;" horiz-adv-x="1162" 
d="M283 -481q-165 0 -317 76l43 204q143 -93 292 -93q155 0 246 85t130 273l26 125h-4q-75 -117 -151.5 -165.5t-169.5 -48.5q-144 0 -226.5 100.5t-82.5 284.5q0 190 83.5 351.5t228.5 249.5t329 88q163 0 405 -46l-191 -905q-46 -217 -125 -337t-205.5 -181t-310.5 -61z
M843 853q-62 15 -152 15q-104 0 -192 -66t-137.5 -179t-49.5 -246q0 -103 40 -157t109 -54q70 0 133 48t115 149t75 212zM920 1202l-115 211l-205 -211h-166l293 329h191l157 -329h-155z" />
    <glyph glyph-name="Gdotaccent" unicode="&#x120;" horiz-adv-x="1430" 
d="M1360 1135q-74 51 -177.5 81.5t-214.5 30.5q-174 0 -307.5 -77.5t-206 -218.5t-72.5 -323q0 -206 110.5 -325t301.5 -119q108 0 201 34l74 354h-312l44 204h559l-148 -694q-206 -108 -450 -108q-192 0 -337.5 79.5t-223 225t-77.5 332.5q0 245 106 440t300.5 301
t455.5 106q215 0 422 -88zM1161 1686q0 -51 -35 -85.5t-90 -34.5q-53 0 -89 34.5t-36 85.5t36 82.5t89 31.5q54 0 89.5 -31.5t35.5 -82.5z" />
    <glyph glyph-name="gdotaccent" unicode="&#x121;" horiz-adv-x="1162" 
d="M283 -481q-165 0 -317 76l43 204q143 -93 292 -93q155 0 246 85t130 273l26 125h-4q-75 -117 -151.5 -165.5t-169.5 -48.5q-144 0 -226.5 100.5t-82.5 284.5q0 190 83.5 351.5t228.5 249.5t329 88q163 0 405 -46l-191 -905q-46 -217 -125 -337t-205.5 -181t-310.5 -61z
M843 853q-62 15 -152 15q-104 0 -192 -66t-137.5 -179t-49.5 -246q0 -103 40 -157t109 -54q70 0 133 48t115 149t75 212zM891 1322q0 -51 -35 -85.5t-90 -34.5q-53 0 -89 34.5t-36 85.5t36 82.5t89 31.5q54 0 89.5 -31.5t35.5 -82.5z" />
    <glyph glyph-name="uni0122" unicode="&#x122;" horiz-adv-x="1430" 
d="M1360 1135q-74 51 -177.5 81.5t-214.5 30.5q-174 0 -307.5 -77.5t-206 -218.5t-72.5 -323q0 -206 110.5 -325t301.5 -119q108 0 201 34l74 354h-312l44 204h559l-148 -694q-206 -108 -450 -108q-192 0 -337.5 79.5t-223 225t-77.5 332.5q0 245 106 440t300.5 301
t455.5 106q215 0 422 -88zM910 -119l-232 -306h-158l168 306h222z" />
    <glyph glyph-name="uni0123" unicode="&#x123;" horiz-adv-x="1162" 
d="M283 -481q-165 0 -317 76l43 204q143 -93 292 -93q155 0 246 85t130 273l26 125h-4q-75 -117 -151.5 -165.5t-169.5 -48.5q-144 0 -226.5 100.5t-82.5 284.5q0 190 83.5 351.5t228.5 249.5t329 88q163 0 405 -46l-191 -905q-46 -217 -125 -337t-205.5 -181t-310.5 -61z
M843 853q-62 15 -152 15q-104 0 -192 -66t-137.5 -179t-49.5 -246q0 -103 40 -157t109 -54q70 0 133 48t115 149t75 212zM593.928 1201.85l231.972 305.963h157.98l-167.979 -305.963h-221.973z" />
    <glyph glyph-name="Hcircumflex" unicode="&#x124;" horiz-adv-x="1507" 
d="M1220 0h-248l129 613h-661l-129 -613h-250l304 1434h250l-129 -601h662l129 601h248zM1116 1566l-115 211l-205 -211h-166l293 329h191l157 -329h-155z" />
    <glyph glyph-name="hcircumflex" unicode="&#x125;" horiz-adv-x="1183" 
d="M1093 773q0 -54 -30 -197l-122 -576h-242l124 592q20 107 20 131q0 135 -122 135q-65 0 -137.5 -51.5t-128 -135.5t-73.5 -171l-107 -500h-243l323 1516h242l-152 -711h4q83 116 184 180t202 64q128 0 193 -72.5t65 -203.5zM965 1648l-115 211l-205 -211h-166l293 329
h191l157 -329h-155z" />
    <glyph glyph-name="Hbar" unicode="&#x126;" horiz-adv-x="1507" 
d="M1220 0h-248l129 613h-661l-129 -613h-250l217 1023h-162l39 178h161l49 233h250l-50 -233h661l51 233h248l-49 -233h161l-38 -178h-162zM1148 833l40 190h-661l-41 -190h662z" />
    <glyph glyph-name="hbar" unicode="&#x127;" horiz-adv-x="1183" 
d="M1093 773q0 -54 -30 -197l-122 -576h-242l124 592q20 107 20 131q0 135 -122 135q-65 0 -137.5 -51.5t-128 -135.5t-73.5 -171l-107 -500h-243l254 1190h-123l30 146h124l38 180h242l-39 -180h330l-30 -146h-330l-83 -385h4q83 116 184 180t202 64q128 0 193 -72.5
t65 -203.5z" />
    <glyph glyph-name="Itilde" unicode="&#x128;" horiz-adv-x="597" 
d="M310 0h-249l303 1434h250zM876 1826q-12 -114 -78.5 -182.5t-159.5 -68.5q-50 0 -83.5 13.5t-60.5 30t-51 30t-54 13.5q-51 0 -78.5 -32t-33.5 -74h-125q10 111 78 181.5t168 70.5q46 0 78 -14t58 -31t51 -31t59 -14q43 0 71.5 30t35.5 78h125z" />
    <glyph glyph-name="itilde" unicode="&#x129;" horiz-adv-x="590" 
d="M314 -17q-111 0 -169 55t-58 156q0 67 26 184l136 646h243l-136 -645q-21 -100 -21 -129q0 -76 87 -76q51 0 91 16l-38 -184q-77 -23 -161 -23zM787 1472q-12 -114 -78.5 -182.5t-159.5 -68.5q-50 0 -83.5 13.5t-60.5 30t-51 30t-54 13.5q-51 0 -78.5 -32t-33.5 -74h-125
q10 111 78 181.5t168 70.5q46 0 78 -14t58 -31t51 -31t59 -14q43 0 71.5 30t35.5 78h125z" />
    <glyph glyph-name="Imacron" unicode="&#x12a;" horiz-adv-x="597" 
d="M310 0h-249l303 1434h250zM778 1566h-547l27 140h547z" />
    <glyph glyph-name="imacron" unicode="&#x12b;" horiz-adv-x="590" 
d="M314 -17q-111 0 -169 55t-58 156q0 67 26 184l136 646h243l-136 -645q-21 -100 -21 -129q0 -76 87 -76q51 0 91 16l-38 -184q-77 -23 -161 -23zM676 1202h-547l27 140h547z" />
    <glyph glyph-name="Ibreve" unicode="&#x12c;" horiz-adv-x="597" 
d="M310 0h-249l303 1434h250zM874 1847q-40 -134 -130.5 -207.5t-213.5 -73.5q-109 0 -179.5 61.5t-70.5 165.5q0 30 8 54h133l-3 -31q0 -56 35.5 -86t89.5 -30q142 0 191 147h140z" />
    <glyph glyph-name="ibreve" unicode="&#x12d;" horiz-adv-x="590" 
d="M314 -17q-111 0 -169 55t-58 156q0 67 26 184l136 646h243l-136 -645q-21 -100 -21 -129q0 -76 87 -76q51 0 91 16l-38 -184q-77 -23 -161 -23zM755 1483q-40 -134 -130.5 -207.5t-213.5 -73.5q-109 0 -179.5 61.5t-70.5 165.5q0 30 8 54h133l-3 -31q0 -56 35.5 -86
t89.5 -30q142 0 191 147h140z" />
    <glyph glyph-name="Iogonek" unicode="&#x12e;" horiz-adv-x="597" 
d="M310 0h-249l303 1434h250zM284 0q-95 -89 -133.5 -140t-38.5 -94q0 -76 78 -76q40 0 93 25l-22 -122q-43 -25 -121 -25q-93 0 -136 44.5t-43 117.5q0 59 44.5 123.5t151.5 146.5h127z" />
    <glyph glyph-name="iogonek" unicode="&#x12f;" horiz-adv-x="590" 
d="M586 1371q0 -60 -43 -99.5t-105 -39.5q-60 0 -101.5 36t-41.5 95q0 61 44 99t106 38q58 0 99.5 -36.5t41.5 -92.5zM314 -17q-110 0 -167.5 55.5t-57.5 158.5q0 52 11 102l149 725h243l-136 -645q-21 -100 -21 -129q0 -76 87 -76q51 0 91 16l-38 -184q-86 -23 -161 -23z
M392 0q-95 -89 -133.5 -140t-38.5 -94q0 -76 78 -76q40 0 93 25l-22 -122q-43 -25 -121 -25q-93 0 -136 44.5t-43 117.5q0 59 44.5 123.5t151.5 146.5h127z" />
    <glyph glyph-name="Jcircumflex" unicode="&#x134;" horiz-adv-x="808" 
d="M95 -25q-43 0 -104 12.5t-87 26.5l43 229q24 -20 69 -37t87 -17q115 0 186 83.5t111 268.5l190 893h248l-190 -894q-63 -290 -199.5 -427.5t-353.5 -137.5zM878 1566l-115 211l-205 -211h-166l293 329h191l157 -329h-155z" />
    <glyph glyph-name="jcircumflex" unicode="&#x135;" horiz-adv-x="515" 
d="M-184 -481q-119 0 -183 31l40 198q23 -16 58.5 -27.5t60.5 -11.5q89 0 149.5 74.5t94.5 234.5l214 1006h242l-215 -1010q-56 -257 -169.5 -376t-291.5 -119zM549 1202l-115 211l-205 -211h-166l293 329h191l157 -329h-155z" />
    <glyph glyph-name="uni0136" unicode="&#x136;" horiz-adv-x="1280" 
d="M1427 1434l-713 -705l443 -729h-301l-349 615q-25 43 -41 89h-4l-152 -704h-249l304 1434h250l-142 -670h4l48 56l591 614h311zM699 -115l-167 -306h-158l103 306h222z" />
    <glyph glyph-name="uni0137" unicode="&#x137;" horiz-adv-x="1077" 
d="M631 546l313 -546h-271l-281 536h-4l-114 -536h-242l323 1516h242l-199 -931h4l459 439h294zM597 -115l-167 -306h-158l103 306h222z" />
    <glyph glyph-name="kgreenlandic" unicode="&#x138;" horiz-adv-x="1077" 
d="M629 537l315 -537h-271l-282 528h-5l-112 -528h-242l218 1024h241l-94 -448h4l460 448h294z" />
    <glyph glyph-name="uni013B" unicode="&#x13b;" horiz-adv-x="998" 
d="M861 0h-800l304 1434h250l-260 -1223h550zM654 -234q0 -98 -84.5 -155t-231.5 -57q-30 0 -99 6l25 113q35 -7 75 -7q77 0 116 23t39 62q0 70 -115 70l-51 -3l41 182h125l-21 -93q84 -2 132.5 -39.5t48.5 -101.5z" />
    <glyph glyph-name="uni013C" unicode="&#x13c;" horiz-adv-x="590" 
d="M314 -17q-111 0 -169 55t-58 156q0 67 38 241.5t230 1080.5h243l-242 -1137q-21 -100 -21 -129q0 -76 87 -76q51 0 91 16l-38 -184q-77 -23 -161 -23zM470 -234q0 -98 -84.5 -155t-231.5 -57q-30 0 -99 6l25 113q35 -7 75 -7q77 0 116 23t39 62q0 70 -115 70l-51 -3
l41 182h125l-21 -93q84 -2 132.5 -39.5t48.5 -101.5z" />
    <glyph glyph-name="uni0145" unicode="&#x145;" horiz-adv-x="1587" 
d="M1301 0h-240l-489 1030q-6 13 -20.5 50t-17.5 53h-6l-9 -68l-12 -73l-211 -992h-235l303 1434h261l479 -1025q23 -51 33 -84h4q5 69 19 133l208 976h237zM813 -115l-167 -306h-158l103 306h222z" />
    <glyph glyph-name="uni0146" unicode="&#x146;" horiz-adv-x="1188" 
d="M1098 774q0 -51 -31 -198l-122 -576h-242l124 592q20 107 20 131q0 60 -31.5 97.5t-89.5 37.5q-64 0 -136.5 -50.5t-128.5 -135.5t-74 -169l-107 -503h-244l155 716q36 172 53 308h236q-8 -85 -31 -220h4q80 117 182.5 181t203.5 64q124 0 191.5 -71t67.5 -204zM608 -115
l-167 -306h-158l103 306h222z" />
    <glyph glyph-name="Eng" unicode="&#x14a;" horiz-adv-x="1587" 
d="M535 1135h-6q-4 -29 -8.5 -68.5t-12.5 -72.5l-212 -994h-235l303 1434h275l467 -1020q23 -51 33 -84h4q5 69 19 133l206 971h237l-302 -1424q-89 -431 -506 -431q-52 0 -112.5 12.5t-85.5 25.5l44 223q27 -21 79 -36.5t89 -15.5q97 0 153.5 53t83.5 163l-479 1043
q-31 76 -34 88z" />
    <glyph glyph-name="eng" unicode="&#x14b;" horiz-adv-x="1188" 
d="M469 -424q-39 0 -82 8.5t-72 22.5l40 198q21 -15 57.5 -27t61.5 -12q90 0 151 74.5t94 234.5l108 517q20 107 20 131q0 60 -31.5 97.5t-89.5 37.5q-64 0 -136.5 -50.5t-128.5 -135.5t-74 -169l-107 -503h-244l155 716q36 172 53 308h236q-8 -85 -31 -220h4
q80 117 182.5 181t203.5 64q124 0 191.5 -71t67.5 -204q0 -51 -31 -198l-107 -505q-57 -266 -171.5 -380.5t-319.5 -114.5z" />
    <glyph glyph-name="Omacron" unicode="&#x14c;" horiz-adv-x="1549" 
d="M1499 847q0 -232 -98.5 -434.5t-272.5 -320t-413 -117.5q-175 0 -309.5 77t-208 218t-73.5 319q0 188 59 348t171.5 281.5t252 180.5t304.5 59q173 0 307.5 -75.5t207.5 -215t73 -320.5zM1239 838q0 186 -95.5 294.5t-258.5 108.5q-136 0 -253.5 -85.5t-183 -240.5
t-65.5 -325q0 -183 93.5 -291.5t258.5 -108.5q143 0 257.5 84t180.5 241t66 323zM1212 1566h-547l27 140h547z" />
    <glyph glyph-name="omacron" unicode="&#x14d;" horiz-adv-x="1137" 
d="M1067 631q0 -186 -74.5 -339.5t-206 -235t-303.5 -81.5q-193 0 -303.5 111t-110.5 307q0 186 74.5 338t205.5 235t304 83q190 0 302 -111.5t112 -306.5zM823 625q0 107 -49.5 170t-137.5 63q-91 0 -165 -62.5t-116.5 -169.5t-42.5 -229q0 -108 50.5 -169.5t137.5 -61.5
q93 0 167.5 62.5t115 169.5t40.5 227zM941 1202h-547l27 140h547z" />
    <glyph glyph-name="Obreve" unicode="&#x14e;" horiz-adv-x="1549" 
d="M1499 847q0 -232 -98.5 -434.5t-272.5 -320t-413 -117.5q-175 0 -309.5 77t-208 218t-73.5 319q0 188 59 348t171.5 281.5t252 180.5t304.5 59q173 0 307.5 -75.5t207.5 -215t73 -320.5zM1239 838q0 186 -95.5 294.5t-258.5 108.5q-136 0 -253.5 -85.5t-183 -240.5
t-65.5 -325q0 -183 93.5 -291.5t258.5 -108.5q143 0 257.5 84t180.5 241t66 323zM1286 1848q-40 -134 -130.5 -207.5t-213.5 -73.5q-109 0 -179.5 61.5t-70.5 165.5q0 30 8 54h133l-3 -31q0 -56 35.5 -86t89.5 -30q142 0 191 147h140z" />
    <glyph glyph-name="obreve" unicode="&#x14f;" horiz-adv-x="1137" 
d="M1067 631q0 -186 -74.5 -339.5t-206 -235t-303.5 -81.5q-193 0 -303.5 111t-110.5 307q0 186 74.5 338t205.5 235t304 83q190 0 302 -111.5t112 -306.5zM823 625q0 107 -49.5 170t-137.5 63q-91 0 -165 -62.5t-116.5 -169.5t-42.5 -229q0 -108 50.5 -169.5t137.5 -61.5
q93 0 167.5 62.5t115 169.5t40.5 227zM1029 1483q-40 -134 -130.5 -207.5t-213.5 -73.5q-109 0 -179.5 61.5t-70.5 165.5q0 30 8 54h133l-3 -31q0 -56 35.5 -86t89.5 -30q142 0 191 147h140z" />
    <glyph glyph-name="uni0156" unicode="&#x156;" horiz-adv-x="1251" 
d="M1237 1074q0 -176 -117 -290t-308 -135v-4q113 -37 156 -209l110 -436h-265l-92 398q-21 92 -68.5 136.5t-128.5 44.5h-90l-124 -579h-249l304 1434h443q202 0 315.5 -95t113.5 -265zM977 1038q0 90 -55.5 144.5t-170.5 54.5h-178l-98 -460h165q158 0 247.5 70.5
t89.5 190.5zM680 -115l-167 -306h-158l103 306h222z" />
    <glyph glyph-name="uni0157" unicode="&#x157;" horiz-adv-x="773" 
d="M798 791q-61 32 -118 32q-104 0 -189.5 -105t-122.5 -280l-93 -438h-242l142 666q51 249 60 358h238q-10 -97 -28 -216h4q63 114 132.5 177.5t162.5 63.5q38 0 101 -15zM486 -115l-167 -306h-158l103 306h222z" />
    <glyph glyph-name="Scircumflex" unicode="&#x15c;" horiz-adv-x="1059" 
d="M1029 1160q-63 43 -151.5 69t-167.5 26q-77 0 -131 -26.5t-82.5 -70t-28.5 -95.5q0 -72 42 -128.5t161 -135.5q154 -103 213.5 -194.5t59.5 -204.5q0 -125 -63.5 -225.5t-178.5 -150t-272 -49.5q-102 0 -210 26.5t-187 69.5l42 229q76 -56 173 -89t189 -33
q119 0 184 51.5t65 145.5q0 72 -46 126t-174 135q-136 86 -197.5 182.5t-61.5 213.5q0 121 62 219t176 152.5t270 54.5q175 0 358 -72zM911 1566l-115 211l-205 -211h-166l293 329h191l157 -329h-155z" />
    <glyph glyph-name="scircumflex" unicode="&#x15d;" horiz-adv-x="854" 
d="M771 806q-44 26 -104.5 45t-120.5 19q-84 0 -125.5 -35.5t-41.5 -91.5q0 -50 34 -83t98 -68q130 -73 177.5 -139t47.5 -155q0 -97 -50.5 -169t-147.5 -113t-237 -41q-76 0 -161 17t-130 41l40 198q55 -33 130.5 -56t145.5 -23q88 0 131 33t43 91q0 45 -29.5 78t-114.5 79
q-113 61 -164.5 129t-51.5 160q0 94 48.5 168.5t140 116.5t217.5 42q75 0 146.5 -13.5t120.5 -33.5zM742 1202l-115 211l-205 -211h-166l293 329h191l157 -329h-155z" />
    <glyph glyph-name="Tbar" unicode="&#x166;" horiz-adv-x="1139" 
d="M1246 1226h-406l-90 -427h240l-46 -209h-238l-125 -590h-248l124 590h-243l45 209h242l91 427h-413l45 208h1067z" />
    <glyph glyph-name="tbar" unicode="&#x167;" horiz-adv-x="715" 
d="M733 838h-249l-37 -175h235l-31 -146h-235q-35 -167 -41.5 -204t-6.5 -55q0 -46 21 -66.5t69 -20.5q46 0 140 36l-40 -189q-100 -39 -198 -39q-237 0 -237 231q0 27 6.5 72t47.5 235h-154l31 146h153l37 175h-164l44 186h159l53 245l254 67l-65 -312h251z" />
    <glyph glyph-name="Utilde" unicode="&#x168;" horiz-adv-x="1446" 
d="M650 -25q-226 0 -358.5 127.5t-132.5 341.5q0 104 24 215l167 775h249l-167 -771q-27 -135 -27 -196q0 -129 74 -203t200 -74q150 0 236.5 90.5t128.5 286.5l187 867h249l-185 -861q-48 -224 -127.5 -350t-205.5 -187t-312 -61zM1311 1812q-12 -114 -78.5 -182.5
t-159.5 -68.5q-50 0 -83.5 13.5t-60.5 30t-51 30t-54 13.5q-51 0 -78.5 -32t-33.5 -74h-125q10 111 78 181.5t168 70.5q46 0 78 -14t58 -31t51 -31t59 -14q43 0 71.5 30t35.5 78h125z" />
    <glyph glyph-name="utilde" unicode="&#x169;" horiz-adv-x="1184" 
d="M941 0h-240l31 217h-4q-81 -114 -181 -178t-204 -64q-127 0 -194 72.5t-67 203.5q0 49 31 196l122 577h242l-125 -589q-21 -112 -21 -134q0 -60 30 -95t90 -35q69 0 141.5 51t128.5 137.5t74 172.5l105 492h242l-147 -688q-39 -186 -54 -336zM1095 1472
q-12 -114 -78.5 -182.5t-159.5 -68.5q-50 0 -83.5 13.5t-60.5 30t-51 30t-54 13.5q-51 0 -78.5 -32t-33.5 -74h-125q10 111 78 181.5t168 70.5q46 0 78 -14t58 -31t51 -31t59 -14q43 0 71.5 30t35.5 78h125z" />
    <glyph glyph-name="Umacron" unicode="&#x16a;" horiz-adv-x="1446" 
d="M650 -25q-226 0 -358.5 127.5t-132.5 341.5q0 104 24 215l167 775h249l-167 -771q-27 -135 -27 -196q0 -129 74 -203t200 -74q150 0 236.5 90.5t128.5 286.5l187 867h249l-185 -861q-48 -224 -127.5 -350t-205.5 -187t-312 -61zM1197 1566h-547l27 140h547z" />
    <glyph glyph-name="umacron" unicode="&#x16b;" horiz-adv-x="1184" 
d="M941 0h-240l31 217h-4q-81 -114 -181 -178t-204 -64q-127 0 -194 72.5t-67 203.5q0 49 31 196l122 577h242l-125 -589q-21 -112 -21 -134q0 -60 30 -95t90 -35q69 0 141.5 51t128.5 137.5t74 172.5l105 492h242l-147 -688q-39 -186 -54 -336zM993 1202h-547l27 140h547z
" />
    <glyph glyph-name="Ubreve" unicode="&#x16c;" horiz-adv-x="1446" 
d="M650 -25q-226 0 -358.5 127.5t-132.5 341.5q0 104 24 215l167 775h249l-167 -771q-27 -135 -27 -196q0 -129 74 -203t200 -74q150 0 236.5 90.5t128.5 286.5l187 867h249l-185 -861q-48 -224 -127.5 -350t-205.5 -187t-312 -61zM1269 1847q-40 -134 -130.5 -207.5
t-213.5 -73.5q-109 0 -179.5 61.5t-70.5 165.5q0 30 8 54h133l-3 -31q0 -56 35.5 -86t89.5 -30q142 0 191 147h140z" />
    <glyph glyph-name="ubreve" unicode="&#x16d;" horiz-adv-x="1184" 
d="M941 0h-240l31 217h-4q-81 -114 -181 -178t-204 -64q-127 0 -194 72.5t-67 203.5q0 49 31 196l122 577h242l-125 -589q-21 -112 -21 -134q0 -60 30 -95t90 -35q69 0 141.5 51t128.5 137.5t74 172.5l105 492h242l-147 -688q-39 -186 -54 -336zM1060 1483
q-40 -134 -130.5 -207.5t-213.5 -73.5q-109 0 -179.5 61.5t-70.5 165.5q0 30 8 54h133l-3 -31q0 -56 35.5 -86t89.5 -30q142 0 191 147h140z" />
    <glyph glyph-name="Uogonek" unicode="&#x172;" horiz-adv-x="1446" 
d="M650 -25q-226 0 -358.5 127.5t-132.5 341.5q0 104 24 215l167 775h249l-167 -771q-27 -135 -27 -196q0 -129 74 -203t200 -74q150 0 236.5 90.5t128.5 286.5l187 867h249l-185 -861q-48 -224 -127.5 -350t-205.5 -187t-312 -61zM731 0q-95 -89 -133.5 -140t-38.5 -94
q0 -76 78 -76q40 0 93 25l-22 -122q-43 -25 -121 -25q-93 0 -136 44.5t-43 117.5q0 59 44.5 123.5t151.5 146.5h127z" />
    <glyph glyph-name="uogonek" unicode="&#x173;" horiz-adv-x="1184" 
d="M941 0h-240l31 217h-4q-81 -114 -181 -178t-204 -64q-127 0 -194 72.5t-67 203.5q0 49 31 196l122 577h242l-125 -589q-21 -112 -21 -134q0 -60 30 -95t90 -35q69 0 141.5 51t128.5 137.5t74 172.5l105 492h242l-147 -688q-39 -186 -54 -336zM881 0q-95 -89 -133.5 -140
t-38.5 -94q0 -76 78 -76q40 0 93 25l-22 -122q-43 -25 -121 -25q-93 0 -136 44.5t-43 117.5q0 59 44.5 123.5t151.5 146.5h127z" />
    <glyph glyph-name="Wcircumflex" unicode="&#x174;" horiz-adv-x="1983" 
d="M1456 0h-261l-78 1016q0 49 12 130h-4q-25 -81 -57 -149l-500 -997h-276l-93 1434h259l42 -1022v-15q0 -57 -12 -135h5q6 21 29 77.5t32 73.5l509 1021h248l69 -1047v-17q0 -61 -6 -107h4q13 50 54 145l462 1026h262zM1353 1566l-115 211l-205 -211h-166l293 329h191
l157 -329h-155z" />
    <glyph glyph-name="wcircumflex" unicode="&#x175;" horiz-adv-x="1551" 
d="M1112 0h-245l-40 644l-2 67q0 32 6 71h-4q-13 -54 -45 -117l-334 -665h-248l-79 1024h230l25 -716v-12q0 -47 -7 -94h6q25 72 31 86.5t366 735.5h225l37 -760q0 -20 -6 -64h7q8 35 49 124l308 700h237zM1069 1202l-115 211l-205 -211h-166l293 329h191l157 -329h-155z
" />
    <glyph glyph-name="Ycircumflex" unicode="&#x176;" horiz-adv-x="1190" 
d="M602 0h-249l112 527l-263 907h266l146 -603l10 -54l5 -46h4q31 68 51 97l413 606h278l-662 -902zM953 1566l-115 211l-205 -211h-166l293 329h191l157 -329h-155z" />
    <glyph glyph-name="ycircumflex" unicode="&#x177;" horiz-adv-x="1046" 
d="M-27 -481q-70 0 -133 21l42 194q39 -24 100 -24q126 0 214 135l103 160l-193 1019h251l96 -705l4 -65l-2 -42h5q25 64 48 106l383 706h257l-689 -1154q-114 -191 -226.5 -271t-259.5 -80zM811 1202l-115 211l-205 -211h-166l293 329h191l157 -329h-155z" />
    <glyph glyph-name="longs" unicode="&#x17f;" horiz-adv-x="650" 
d="M833 1322q-59 27 -124 27q-77 0 -118.5 -46t-61.5 -141l-327 -1502h-241l330 1532q75 348 419 348q91 0 161 -24z" />
    <glyph glyph-name="Aringacute" unicode="&#x1fa;" horiz-adv-x="1367" 
d="M992 0l-53 360h-560l-201 -360h-281l820 1397q-67 52 -67 145q0 57 29 107t82 79t121 29q103 0 165 -59.5t62 -150.5q0 -51 -23 -92t-61 -65l220 -1390h-253zM989 1547q0 45 -31 74t-81 29q-46 0 -76.5 -29.5t-30.5 -73.5q0 -49 29 -78t78 -29t80.5 31t31.5 76zM913 560
l-73 546l-2 29v43l2 36h-6q-10 -35 -30.5 -77.5t-322.5 -576.5h432zM1248 2092l-296 -286h-160l235 286h221z" />
    <glyph glyph-name="aringacute" unicode="&#x1fb;" horiz-adv-x="1162" 
d="M935 0h-245q0 25 6 91.5t12 102.5h-4q-63 -92 -108.5 -133.5t-98.5 -63.5t-120 -22q-146 0 -227 103t-81 285q0 186 87.5 354t234 250t341.5 82q161 0 383 -48l-141 -668q-15 -71 -27 -174.5t-12 -158.5zM843 853q-62 15 -137 15q-114 0 -201 -59.5t-140 -180.5t-53 -253
q0 -100 38.5 -154.5t112.5 -54.5q108 0 194.5 113t126.5 299zM977 1376q0 -92 -65.5 -151t-159.5 -59t-156.5 56t-62.5 147q0 94 64 152t160 58q98 0 159 -56t61 -147zM861 1374q0 45 -30.5 73.5t-78.5 28.5q-45 0 -74.5 -30t-29.5 -72q0 -48 28 -76.5t76 -28.5
q47 0 78 29.5t31 75.5zM834 1659h-179l302 326h225z" />
    <glyph glyph-name="AEacute" unicode="&#x1fc;" horiz-adv-x="1842" 
d="M1875 1225h-530l-86 -405h491l-44 -208h-491l-87 -405h561l-42 -207h-810l77 360h-492l-261 -360h-293l1075 1434h976zM1043 1227l-470 -656h385l138 656h-53zM1390 1566h-179l302 326h225z" />
    <glyph glyph-name="aeacute" unicode="&#x1fd;" horiz-adv-x="1726" 
d="M1701 772q0 -184 -172.5 -272.5t-524.5 -91.5l-1 -28q0 -104 61.5 -163t174.5 -59q76 0 162.5 27.5t158.5 70.5l-39 -199q-154 -82 -333 -82q-157 0 -258 76t-130 214h-4q-185 -290 -421 -290q-143 0 -224.5 99.5t-81.5 276.5q0 133 52.5 268.5t142.5 231t214.5 147
t278.5 51.5q167 0 326 -69q120 69 274 69q155 0 249.5 -76t94.5 -201zM1465 765q0 51 -38 80.5t-100 29.5q-107 0 -191 -83.5t-112 -216.5q441 0 441 190zM906 837q-70 31 -155 31q-124 0 -221.5 -64.5t-158 -189.5t-60.5 -251q0 -89 31 -143t94 -54q92 0 183 106.5
t170 315.5q65 173 117 249zM1084 1202h-179l302 326h225z" />
    <glyph glyph-name="Oslashacute" unicode="&#x1fe;" horiz-adv-x="1549" 
d="M1394 1220q105 -163 105 -377q0 -236 -105 -442t-278 -316t-406 -110q-112 0 -214.5 36.5t-181.5 107.5l-168 -172l-101 99l176 179q-97 159 -97 364q0 368 222.5 617t565.5 249q229 0 386 -133l154 157l99 -98zM1140 1159q-100 95 -247 95q-146 0 -264 -82
t-188.5 -243.5t-70.5 -341.5q0 -93 31 -178zM1251 842q0 106 -38 193l-741 -756q93 -105 259 -105q147 0 263.5 83.5t186.5 244.5t70 340zM943 1566h-179l302 326h225z" />
    <glyph glyph-name="oslashacute" unicode="&#x1ff;" horiz-adv-x="1137" 
d="M1020 843q47 -88 47 -212q0 -184 -74.5 -338t-206.5 -236t-303 -82q-180 0 -286 100l-146 -136l-89 101l153 142q-46 96 -46 211q0 186 75.5 339.5t207.5 235t302 81.5q169 0 281 -99l169 158l90 -102zM778 802q-49 65 -139 65q-98 0 -176.5 -60t-123 -168t-44.5 -234
q0 -26 4 -50zM840 621q0 37 -4 54l-481 -451q23 -30 60.5 -48.5t82.5 -18.5q100 0 178 60t121 167.5t43 236.5zM705 1202h-179l302 326h225z" />
    <glyph glyph-name="anoteleia" unicode="&#x387;" horiz-adv-x="506" 
d="M416 652q0 -60 -45 -101t-109 -41q-60 0 -102 38t-42 95q0 61 43.5 102t108.5 41q62 0 104 -38.5t42 -95.5z" />
    <glyph glyph-name="Wgrave" unicode="&#x1e80;" horiz-adv-x="1983" 
d="M1456 0h-261l-78 1016q0 49 12 130h-4q-25 -81 -57 -149l-500 -997h-276l-93 1434h259l42 -1022v-15q0 -57 -12 -135h5q6 21 29 77.5t32 73.5l509 1021h248l69 -1047v-17q0 -61 -6 -107h4q13 50 54 145l462 1026h262zM1198 1566l-249 326h208l208 -326h-167z" />
    <glyph glyph-name="wgrave" unicode="&#x1e81;" horiz-adv-x="1551" 
d="M1112 0h-245l-40 644l-2 67q0 32 6 71h-4q-13 -54 -45 -117l-334 -665h-248l-79 1024h230l25 -716v-12q0 -47 -7 -94h6q25 72 31 86.5t366 735.5h225l37 -760q0 -20 -6 -64h7q8 35 49 124l308 700h237zM932 1202l-249 326h208l208 -326h-167z" />
    <glyph glyph-name="Wacute" unicode="&#x1e82;" horiz-adv-x="1983" 
d="M1456 0h-261l-78 1016q0 49 12 130h-4q-25 -81 -57 -149l-500 -997h-276l-93 1434h259l42 -1022v-15q0 -57 -12 -135h5q6 21 29 77.5t32 73.5l509 1021h248l69 -1047v-17q0 -61 -6 -107h4q13 50 54 145l462 1026h262zM1184 1566h-179l302 326h225z" />
    <glyph glyph-name="wacute" unicode="&#x1e83;" horiz-adv-x="1551" 
d="M1112 0h-245l-40 644l-2 67q0 32 6 71h-4q-13 -54 -45 -117l-334 -665h-248l-79 1024h230l25 -716v-12q0 -47 -7 -94h6q25 72 31 86.5t366 735.5h225l37 -760q0 -20 -6 -64h7q8 35 49 124l308 700h237zM932 1202h-179l302 326h225z" />
    <glyph glyph-name="Wdieresis" unicode="&#x1e84;" horiz-adv-x="1983" 
d="M1456 0h-261l-78 1016q0 49 12 130h-4q-25 -81 -57 -149l-500 -997h-276l-93 1434h259l42 -1022v-15q0 -57 -12 -135h5q6 21 29 77.5t32 73.5l509 1021h248l69 -1047v-17q0 -61 -6 -107h4q13 50 54 145l462 1026h262zM1548 1685q0 -50 -35 -84.5t-91 -34.5t-91 35t-35 84
q0 51 36 83.5t89 32.5q54 0 90.5 -33t36.5 -83zM1127 1685q0 -51 -37.5 -85t-89.5 -34q-51 0 -89 33.5t-38 85.5q0 49 36 82.5t91 33.5q54 0 90.5 -33t36.5 -83z" />
    <glyph glyph-name="wdieresis" unicode="&#x1e85;" horiz-adv-x="1551" 
d="M1112 0h-245l-40 644l-2 67q0 32 6 71h-4q-13 -54 -45 -117l-334 -665h-248l-79 1024h230l25 -716v-12q0 -47 -7 -94h6q25 72 31 86.5t366 735.5h225l37 -760q0 -20 -6 -64h7q8 35 49 124l308 700h237zM1252 1321q0 -50 -35 -84.5t-91 -34.5t-91 35t-35 84q0 51 36 83.5
t89 32.5q54 0 90.5 -33t36.5 -83zM831 1321q0 -51 -37.5 -85t-89.5 -34q-51 0 -89 33.5t-38 85.5q0 49 36 82.5t91 33.5q54 0 90.5 -33t36.5 -83z" />
    <glyph glyph-name="Ygrave" unicode="&#x1ef2;" horiz-adv-x="1190" 
d="M602 0h-249l112 527l-263 907h266l146 -603l10 -54l5 -46h4q31 68 51 97l413 606h278l-662 -902zM797 1566l-249 326h208l208 -326h-167z" />
    <glyph glyph-name="ygrave" unicode="&#x1ef3;" horiz-adv-x="1046" 
d="M-27 -481q-70 0 -133 21l42 194q39 -24 100 -24q126 0 214 135l103 160l-193 1019h251l96 -705l4 -65l-2 -42h5q25 64 48 106l383 706h257l-689 -1154q-114 -191 -226.5 -271t-259.5 -80zM688 1202l-249 326h208l208 -326h-167z" />
    <glyph glyph-name="quotereversed" unicode="&#x201b;" horiz-adv-x="514" 
d="M389 1451l110 -446h-150l-170 446h210z" />
    <glyph glyph-name="uni203E" unicode="&#x203e;" horiz-adv-x="850" 
d="M87 1397v119h850v-119h-850z" />
    <glyph glyph-name="lira" unicode="&#x20a4;" horiz-adv-x="1142" 
d="M545 482q-61 -227 -215 -293h657l-40 -189h-937l40 181q104 28 168 98.5t102 202.5h-186l31 151h188l30 138h-188l31 149h189l23 108q43 203 175 316.5t325 113.5q128 0 223 -46l-44 -204q-35 25 -86.5 42.5t-105.5 17.5q-102 0 -170.5 -68t-96.5 -206l-15 -74h280
l-32 -149h-281l-29 -138h282l-33 -151h-285z" />
    <glyph glyph-name="estimated" unicode="&#x212e;" horiz-adv-x="1229" 
d="M316 530l1 -370q120 -121 296 -121q255 0 396 246l71 -43q-104 -151 -212.5 -214t-253.5 -63q-237 0 -383 161t-146 404q0 251 144.5 408.5t381.5 157.5q239 0 380 -155.5t153 -410.5h-828zM912 604v297q-131 123 -303 123q-175 0 -293 -123v-297h596z" />
    <glyph glyph-name="oneeighth" unicode="&#x215b;" horiz-adv-x="1925" 
d="M485 0h-196l1180 1434h195zM135 584l31 143h178l116 533l-204 -48l33 153l385 89l-157 -727h181l-30 -143h-533zM1769 259q0 -129 -91.5 -203t-261.5 -74q-138 0 -220 63t-82 167q0 173 230 245q-46 27 -77.5 73.5t-31.5 101.5q0 109 86.5 174.5t236.5 65.5
q128 0 202.5 -55.5t74.5 -145.5q0 -152 -205 -222q65 -27 102 -78.5t37 -111.5zM1654 650q0 36 -29 60.5t-82 24.5q-63 0 -99 -28t-36 -75q0 -70 95 -113q77 21 114 52.5t37 78.5zM1590 247q0 96 -119 140q-176 -50 -176 -163q0 -51 38 -78t98 -27q72 0 115.5 35.5
t43.5 92.5z" />
    <glyph glyph-name="threeeighths" unicode="&#x215c;" horiz-adv-x="1925" 
d="M485 0h-196l1180 1434h195zM1769 259q0 -129 -91.5 -203t-261.5 -74q-138 0 -220 63t-82 167q0 173 230 245q-46 27 -77.5 73.5t-31.5 101.5q0 109 86.5 174.5t236.5 65.5q128 0 202.5 -55.5t74.5 -145.5q0 -152 -205 -222q65 -27 102 -78.5t37 -111.5zM1654 650
q0 36 -29 60.5t-82 24.5q-63 0 -99 -28t-36 -75q0 -70 95 -113q77 21 114 52.5t37 78.5zM1590 247q0 96 -119 140q-176 -50 -176 -163q0 -51 38 -78t98 -27q72 0 115.5 35.5t43.5 92.5zM740 827q0 -76 -42 -136t-121 -94t-192 -34q-69 0 -145 14.5t-107 32.5l33 154
q34 -22 99.5 -39.5t122.5 -17.5q83 0 130 34.5t47 91.5q0 112 -178 112h-95l32 144h96q89 0 144 37t55 93q0 39 -29.5 64.5t-95.5 25.5q-98 0 -195 -52l34 159q40 16 98 27t113 11q117 0 185 -55.5t68 -148.5q0 -86 -57.5 -143.5t-153.5 -80.5v-4q154 -38 154 -195z" />
    <glyph glyph-name="fiveeighths" unicode="&#x215d;" horiz-adv-x="1925" 
d="M485 0h-196l1180 1434h195zM345 563q-137 0 -225 43l32 152q35 -23 88 -38.5t105 -15.5q105 0 152.5 42.5t47.5 110.5q0 120 -160 120q-74 0 -164 -10l100 470h483l-30 -145h-329l-37 -177l28 2h28q121 0 192 -64t71 -172q0 -147 -102 -232.5t-280 -85.5zM1769 259
q0 -129 -91.5 -203t-261.5 -74q-138 0 -220 63t-82 167q0 173 230 245q-46 27 -77.5 73.5t-31.5 101.5q0 109 86.5 174.5t236.5 65.5q128 0 202.5 -55.5t74.5 -145.5q0 -152 -205 -222q65 -27 102 -78.5t37 -111.5zM1654 650q0 36 -29 60.5t-82 24.5q-63 0 -99 -28t-36 -75
q0 -70 95 -113q77 21 114 52.5t37 78.5zM1590 247q0 96 -119 140q-176 -50 -176 -163q0 -51 38 -78t98 -27q72 0 115.5 35.5t43.5 92.5z" />
    <glyph glyph-name="seveneighths" unicode="&#x215e;" horiz-adv-x="1854" 
d="M388 0h-196l1180 1434h195zM1671 259q0 -129 -91.5 -203t-261.5 -74q-138 0 -220 63t-82 167q0 173 230 245q-46 27 -77.5 73.5t-31.5 101.5q0 109 86.5 174.5t236.5 65.5q128 0 202.5 -55.5t74.5 -145.5q0 -152 -205 -222q65 -27 102 -78.5t37 -111.5zM1556 650
q0 36 -29 60.5t-82 24.5q-63 0 -99 -28t-36 -75q0 -70 95 -113q77 21 114 52.5t37 78.5zM1492 247q0 96 -119 140q-176 -50 -176 -163q0 -51 38 -78t98 -27q72 0 115.5 35.5t43.5 92.5zM342 584h-197l477 716h-412l30 141h613l-16 -77z" />
    <glyph glyph-name="glyph412" horiz-adv-x="933" 
d="M660 -111l-232 -306h-158l168 306h222z" />
    <glyph glyph-name="glyph413" horiz-adv-x="1050" 
d="M676 -115l-167 -306h-158l103 306h222z" />
    <glyph glyph-name="uni037E" unicode="&#x37e;" horiz-adv-x="500" 
d="M479 907q0 -61 -43.5 -101t-108.5 -40q-63 0 -103 39t-40 94q0 62 43.5 102t107.5 40q60 0 102 -38.5t42 -95.5zM73 -259h-193l216 498h231z" />
    <glyph glyph-name="tonos" unicode="&#x384;" horiz-adv-x="604" 
d="M551 1522l-260 -349h-127l167 349h220z" />
    <glyph glyph-name="dieresistonos" unicode="&#x385;" horiz-adv-x="713" 
d="M768 1316q0 -47 -33 -79.5t-88 -32.5q-50 0 -85 32t-35 80q0 47 33.5 79.5t86.5 32.5q51 0 86 -31.5t35 -80.5zM360 1200h-116l136 365h212zM219 1316q0 -48 -33.5 -80t-87.5 -32q-50 0 -85 32t-35 80q0 47 33.5 79.5t86.5 32.5t87 -32t34 -80z" />
    <glyph glyph-name="Alphatonos" unicode="&#x386;" horiz-adv-x="1392" 
d="M1017 0l-53 360h-561l-200 -360h-281l840 1434h281l227 -1434h-253zM864 1149v35l2 35h-5q-20 -60 -47 -110l-308 -549h432l-70 540q-4 18 -4 49zM493 1436l-260 -349h-127l167 349h220z" />
    <glyph glyph-name="Epsilontonos" unicode="&#x388;" horiz-adv-x="1253" 
d="M1296 1226h-527l-86 -406h490l-45 -208h-489l-87 -405h561l-43 -207h-810l304 1434h777zM458 1436l-260 -349h-127l167 349h220z" />
    <glyph glyph-name="Etatonos" unicode="&#x389;" horiz-adv-x="1707" 
d="M1420 0h-248l129 613h-661l-129 -613h-250l304 1434h250l-129 -601h662l129 601h248zM458 1436l-260 -349h-127l167 349h220z" />
    <glyph glyph-name="Iotatonos" unicode="&#x38a;" horiz-adv-x="796" 
d="M509 0h-249l303 1434h250zM458 1436l-260 -349h-127l167 349h220z" />
    <glyph glyph-name="Omicrontonos" unicode="&#x38c;" horiz-adv-x="1706" 
d="M1656 847q0 -232 -98.5 -434.5t-272.5 -320t-413 -117.5q-175 0 -309.5 77t-208 218t-73.5 319q0 188 59 348t171.5 281.5t252 180.5t304.5 59q173 0 307.5 -75.5t207.5 -215t73 -320.5zM1396 838q0 186 -95.5 294.5t-258.5 108.5q-136 0 -253.5 -85.5t-183 -240.5
t-65.5 -325q0 -183 93.5 -291.5t258.5 -108.5q143 0 257.5 84t180.5 241t66 323zM458 1436l-260 -349h-127l167 349h220z" />
    <glyph glyph-name="Upsilontonos" unicode="&#x38e;" horiz-adv-x="1508" 
d="M919 0h-249l112 527l-263 907h266l146 -603l10 -54l5 -46h4q31 68 51 97l413 606h278l-662 -902zM458 1436l-260 -349h-127l167 349h220z" />
    <glyph glyph-name="Omegatonos" unicode="&#x38f;" horiz-adv-x="1769" 
d="M1744 895q0 -223 -126 -405t-352 -287h336l-43 -203h-558l48 234q211 106 317 269.5t106 365.5q0 169 -102 271.5t-270 102.5q-146 0 -264 -71.5t-184 -203t-66 -300.5q0 -129 44.5 -233t148.5 -201l-49 -234h-558l42 203h354q-118 89 -183.5 219t-65.5 277
q0 225 103 398t285 267t405 94q186 0 330.5 -71t223 -200t78.5 -292zM458 1436l-260 -349h-127l167 349h220z" />
    <glyph glyph-name="iotadieresistonos" unicode="&#x390;" horiz-adv-x="598" 
d="M329 -17q-113 0 -174 56t-61 155q0 33 5.5 73.5t13.5 82t143 674.5h243l-136 -645q-21 -105 -21 -129q0 -36 22 -56t64 -20q52 0 92 16l-38 -184q-66 -23 -153 -23zM835 1316q0 -47 -33 -79.5t-88 -32.5q-50 0 -85 32t-35 80q0 47 33.5 79.5t86.5 32.5q51 0 86 -31.5
t35 -80.5zM427 1200h-116l136 365h212zM286 1316q0 -48 -33.5 -80t-87.5 -32q-50 0 -85 32t-35 80q0 47 33.5 79.5t86.5 32.5t87 -32t34 -80z" />
    <glyph glyph-name="Alpha" unicode="&#x391;" horiz-adv-x="1367" 
d="M992 0l-53 360h-561l-200 -360h-281l840 1434h281l227 -1434h-253zM839 1149v35l2 35h-5q-20 -60 -47 -110l-308 -549h432l-70 540q-4 18 -4 49z" />
    <glyph glyph-name="Beta" unicode="&#x392;" horiz-adv-x="1250" 
d="M1211 1117q0 -143 -87 -240.5t-248 -128.5v-4q122 -19 191.5 -97t69.5 -194q0 -208 -153 -330.5t-419 -122.5h-504l304 1434h452q185 0 289.5 -83.5t104.5 -233.5zM952 1069q0 84 -54 127t-154 43h-171l-87 -402h170q140 0 218 61.5t78 170.5zM877 446q0 90 -62.5 143
t-189.5 53h-180l-94 -447h206q156 0 238 65.5t82 185.5z" />
    <glyph glyph-name="Epsilon" unicode="&#x395;" horiz-adv-x="1053" 
d="M1097 1226h-527l-86 -406h490l-45 -208h-489l-87 -405h561l-43 -207h-810l304 1434h777z" />
    <glyph glyph-name="Zeta" unicode="&#x396;" horiz-adv-x="1205" 
d="M333 207h750l-44 -207h-1113l24 118l998 1108h-702l44 208h1064l-25 -112z" />
    <glyph glyph-name="Eta" unicode="&#x397;" horiz-adv-x="1507" 
d="M1220 0h-248l129 613h-661l-129 -613h-250l304 1434h250l-129 -601h662l129 601h248z" />
    <glyph glyph-name="Iota" unicode="&#x399;" horiz-adv-x="597" 
d="M310 0h-249l303 1434h250z" />
    <glyph glyph-name="Kappa" unicode="&#x39a;" horiz-adv-x="1280" 
d="M1427 1434l-713 -705l443 -729h-301l-349 615q-25 43 -41 89h-4l-152 -704h-249l304 1434h250l-142 -670h4l48 56l591 614h311z" />
    <glyph glyph-name="Lambda" unicode="&#x39b;" horiz-adv-x="1400" 
d="M984 0l-120 1084q-6 60 -6 122h-7l-23 -52l-34 -68l-584 -1086h-280l815 1434h302l199 -1434h-262z" />
    <glyph glyph-name="Mu" unicode="&#x39c;" horiz-adv-x="1728" 
d="M1440 0h-228l193 910q28 126 76 296h-6q-51 -113 -161 -259l-406 -545h-154l-164 527q-18 55 -33 135t-17 142h-7q-35 -221 -52 -297l-194 -909h-226l304 1434h292l187 -590q30 -95 35 -179h5q55 120 113 198l429 571h319z" />
    <glyph glyph-name="Nu" unicode="&#x39d;" horiz-adv-x="1587" 
d="M1301 0h-240l-489 1030q-6 13 -20.5 50t-17.5 53h-6l-9 -68l-12 -73l-211 -992h-235l303 1434h261l479 -1025q23 -51 33 -84h4q5 69 19 133l208 976h237z" />
    <glyph glyph-name="Xi" unicode="&#x39e;" horiz-adv-x="1093" 
d="M1151 1222h-923l45 212h924zM881 620h-638l43 207h638zM917 0h-973l46 214h973z" />
    <glyph glyph-name="Omicron" unicode="&#x39f;" horiz-adv-x="1549" 
d="M1499 847q0 -232 -98.5 -434.5t-272.5 -320t-413 -117.5q-175 0 -309.5 77t-208 218t-73.5 319q0 188 59 348t171.5 281.5t252 180.5t304.5 59q173 0 307.5 -75.5t207.5 -215t73 -320.5zM1239 838q0 186 -95.5 294.5t-258.5 108.5q-136 0 -253.5 -85.5t-183 -240.5
t-65.5 -325q0 -183 93.5 -291.5t258.5 -108.5q143 0 257.5 84t180.5 241t66 323z" />
    <glyph glyph-name="Pi" unicode="&#x3a0;" horiz-adv-x="1494" 
d="M1210 0h-249l258 1214h-653l-257 -1214h-248l303 1434h1149z" />
    <glyph glyph-name="Rho" unicode="&#x3a1;" horiz-adv-x="1234" 
d="M1246 1041q0 -156 -73 -274.5t-212 -183.5t-332 -65h-210l-109 -518h-249l304 1434h432q210 0 329.5 -104t119.5 -289zM987 1023q0 96 -65 153.5t-189 57.5h-161l-110 -518h175q164 0 257 81t93 226z" />
    <glyph glyph-name="Sigma" unicode="&#x3a3;" horiz-adv-x="1121" 
d="M1195 1227h-621l297 -482l-565 -538h722l-43 -207h-1078l30 145l651 607l-348 560l25 122h973z" />
    <glyph glyph-name="Tau" unicode="&#x3a4;" horiz-adv-x="1139" 
d="M1246 1226h-406l-259 -1226h-248l259 1226h-413l45 208h1067z" />
    <glyph glyph-name="Upsilon" unicode="&#x3a5;" horiz-adv-x="1190" 
d="M602 0h-249l112 527l-263 907h266l146 -603l10 -54l5 -46h4q31 68 51 97l413 606h278l-662 -902z" />
    <glyph glyph-name="Chi" unicode="&#x3a7;" horiz-adv-x="1275" 
d="M843 714l293 -714h-280l-157 447q-21 60 -39 147h-4l-9 -18q-21 -50 -40 -73l-399 -503h-307l626 736l-290 698h288l144 -435q36 -107 38 -146h5l8 17q23 50 41 73l391 491h289z" />
    <glyph glyph-name="Psi" unicode="&#x3a8;" horiz-adv-x="1692" 
d="M1001 374h-77l-78 -374h-226l78 374h-55q-201 0 -318.5 108t-117.5 295q0 69 14 133l111 524h227l-109 -514q-13 -58 -13 -114q0 -106 62.5 -163t187.5 -57h54l182 848h227l-181 -848h68q157 0 243.5 79.5t124.5 261.5l107 507h227l-112 -532q-56 -268 -210.5 -398
t-415.5 -130z" />
    <glyph glyph-name="uni03A9" unicode="&#x3a9;" horiz-adv-x="1580" 
d="M1556 895q0 -223 -126 -405t-352 -287h336l-43 -203h-558l48 234q211 106 317 269.5t106 365.5q0 169 -102 271.5t-270 102.5q-146 0 -264 -71.5t-184 -203t-66 -300.5q0 -129 44.5 -233t148.5 -201l-49 -234h-558l42 203h354q-118 89 -183.5 219t-65.5 277
q0 225 103 398t285 267t405 94q186 0 330.5 -71t223 -200t78.5 -292z" />
    <glyph glyph-name="Iotadieresis" unicode="&#x3aa;" horiz-adv-x="597" 
d="M310 0h-249l303 1434h250zM856 1685q0 -50 -35 -84.5t-91 -34.5t-91 35t-35 84q0 51 36 83.5t89 32.5q54 0 90.5 -33t36.5 -83zM435 1685q0 -51 -37.5 -85t-89.5 -34q-51 0 -89 33.5t-38 85.5q0 49 36 82.5t91 33.5q54 0 90.5 -33t36.5 -83z" />
    <glyph glyph-name="Upsilondieresis" unicode="&#x3ab;" horiz-adv-x="1190" 
d="M602 0h-249l112 527l-263 907h266l146 -603l10 -54l5 -46h4q31 68 51 97l413 606h278l-662 -902zM1144 1685q0 -50 -35 -84.5t-91 -34.5t-91 35t-35 84q0 51 36 83.5t89 32.5q54 0 90.5 -33t36.5 -83zM723 1685q0 -51 -37.5 -85t-89.5 -34q-51 0 -89 33.5t-38 85.5
q0 49 36 82.5t91 33.5q54 0 90.5 -33t36.5 -83z" />
    <glyph glyph-name="alphatonos" unicode="&#x3ac;" horiz-adv-x="1307" 
d="M817 516q-11 187 -51.5 266.5t-111.5 79.5q-86 0 -163 -67t-126.5 -184.5t-49.5 -244.5q0 -87 37.5 -141.5t104.5 -54.5q173 0 319 266zM834 282q-89 -152 -194 -229.5t-240 -77.5q-155 0 -243 101.5t-88 280.5q0 183 78.5 343.5t214 254.5t289.5 94q116 0 189.5 -66.5
t105.5 -209.5h5q68 125 128 251h251l-310 -519q11 -176 38.5 -245.5t79.5 -69.5q44 0 70 13l-49 -198q-51 -17 -104 -17q-106 0 -158 72t-59 222h-4zM980 1531l-260 -349h-127l167 349h220z" />
    <glyph glyph-name="epsilontonos" unicode="&#x3ad;" horiz-adv-x="953" 
d="M439 -25q-198 0 -305.5 76.5t-107.5 205.5q0 110 80 182t230 95l2 4q-74 21 -123.5 77t-49.5 134q0 143 121.5 221.5t346.5 78.5q87 0 172 -14.5t135 -38.5l-37 -187q-57 29 -133 47t-133 18q-103 0 -163 -37t-60 -108q0 -60 55.5 -92.5t157.5 -32.5q77 0 137 6l-32 -170
q-39 6 -144 6q-310 0 -310 -165q0 -130 214 -130q158 0 339 79l-42 -198q-164 -57 -350 -57zM940 1531l-260 -349h-127l167 349h220z" />
    <glyph glyph-name="etatonos" unicode="&#x3ae;" horiz-adv-x="1217" 
d="M1127 784q0 -62 -33 -213t-220 -1049h-241l176 842q67 313 67 365q0 59 -30 94t-90 35q-72 0 -144 -53t-128.5 -141.5t-75.5 -174.5l-104 -489h-243l72 328q91 416 91 463q0 57 -60 57q-31 0 -52 -8l37 179q48 19 143 19q178 0 178 -164l-8 -71l-3 -16h4
q85 125 191.5 193.5t222.5 68.5q124 0 187 -70.5t63 -194.5zM1009 1530l-260 -349h-127l167 349h220z" />
    <glyph glyph-name="iotatonos" unicode="&#x3af;" horiz-adv-x="598" 
d="M329 -17q-113 0 -174 56t-61 155q0 33 5.5 73.5t13.5 82t143 674.5h243l-136 -645q-21 -105 -21 -129q0 -36 22 -56t64 -20q52 0 92 16l-38 -184q-66 -23 -153 -23zM681 1529l-260 -349h-127l167 349h220z" />
    <glyph glyph-name="upsilondieresistonos" unicode="&#x3b0;" horiz-adv-x="1252" 
d="M1151 745q0 -367 -154 -568.5t-449 -201.5q-201 0 -309 91t-108 257q0 68 20 157l47 220q16 78 16 94q0 57 -62 57q-24 0 -50 -6l37 177q48 19 138 19q102 0 148.5 -40t46.5 -107q0 -55 -26 -170l-55 -248q-14 -60 -14 -119q0 -189 198 -189q156 0 239 154.5t83 421.5
q0 145 -30 280h254q30 -139 30 -279zM1101 1316q0 -47 -33 -79.5t-88 -32.5q-50 0 -85 32t-35 80q0 47 33.5 79.5t86.5 32.5q51 0 86 -31.5t35 -80.5zM693 1200h-116l136 365h212zM552 1316q0 -48 -33.5 -80t-87.5 -32q-50 0 -85 32t-35 80q0 47 33.5 79.5t86.5 32.5t87 -32
t34 -80z" />
    <glyph glyph-name="beta" unicode="&#x3b2;" horiz-adv-x="1207" 
d="M1191 1192q0 -154 -91 -253.5t-263 -134.5v-4q129 -38 200 -129t71 -219q0 -225 -141 -350.5t-391 -125.5q-91 0 -166.5 22t-123.5 49l-112 -525h-243l326 1537q49 233 177 355.5t350 122.5q183 0 295 -95t112 -250zM937 1177q0 78 -44.5 124t-122.5 46
q-112 0 -176.5 -74t-96.5 -228l-169 -802q108 -75 242 -75q135 0 212.5 75.5t77.5 205.5q0 112 -73.5 178.5t-216.5 79.5l35 172q332 31 332 298z" />
    <glyph glyph-name="gamma" unicode="&#x3b3;" horiz-adv-x="1117" 
d="M1141 1024q-38 -269 -190 -527t-459 -556l-93 -418h-246q44 163 116 485q0 218 -55 491.5t-151 524.5h270q63 -186 101.5 -402t44.5 -412h4q352 417 403 814h255z" />
    <glyph glyph-name="zeta" unicode="&#x3b6;" horiz-adv-x="931" 
d="M320 445q0 -97 53.5 -156.5t186.5 -100.5q148 -49 209.5 -112.5t61.5 -153.5q0 -61 -32.5 -124t-84.5 -107h-241q45 33 78 78.5t33 88.5q0 36 -20.5 63t-64 50t-173.5 64q-265 80 -265 347q0 193 133 382.5t451 428.5l182 137v4h-423l39 182h676l-39 -175l-179 -138
q-330 -252 -455.5 -422t-125.5 -336z" />
    <glyph glyph-name="eta" unicode="&#x3b7;" horiz-adv-x="1217" 
d="M1127 784q0 -62 -33 -213t-220 -1049h-241l176 842q67 313 67 365q0 59 -30 94t-90 35q-72 0 -144 -53t-128.5 -141.5t-75.5 -174.5l-104 -489h-243l72 328q91 416 91 463q0 57 -60 57q-31 0 -52 -8l37 179q48 19 143 19q178 0 178 -164l-8 -71l-3 -16h4
q85 125 191.5 193.5t222.5 68.5q124 0 187 -70.5t63 -194.5z" />
    <glyph glyph-name="theta" unicode="&#x3b8;" horiz-adv-x="1220" 
d="M813 1540q188 0 290 -127.5t102 -364.5q0 -201 -54.5 -409t-148.5 -356.5t-220.5 -228t-276.5 -79.5q-192 0 -294 131t-102 372q0 203 53.5 406t149 351.5t223 226.5t278.5 78zM947 855q24 107 24 234q0 124 -47 193t-134 69q-125 0 -225 -131.5t-152 -364.5h534z
M374 675q-23 -123 -23 -219q0 -293 183 -293q123 0 218.5 127.5t154.5 384.5h-533z" />
    <glyph glyph-name="iota" unicode="&#x3b9;" horiz-adv-x="598" 
d="M329 -17q-113 0 -174 56t-61 155q0 33 5.5 73.5t13.5 82t143 674.5h243l-136 -645q-21 -105 -21 -129q0 -36 22 -56t64 -20q52 0 92 16l-38 -184q-66 -23 -153 -23z" />
    <glyph glyph-name="kappa" unicode="&#x3ba;" horiz-adv-x="1105" 
d="M1085 833q-23 7 -58 7q-31 0 -62 -14t-69 -43t-197 -169l296 -614h-267l-210 472l-177 -160l-66 -312h-243l217 1024h243l-101 -479l310 303q104 102 181 145.5t153 43.5q57 0 91 -10z" />
    <glyph glyph-name="lambda" unicode="&#x3bb;" horiz-adv-x="1068" 
d="M710 0l-92 762l-445 -762h-269l672 1029l-19 129q-22 159 -153 159q-62 0 -137 -29l37 203q77 23 175 23q135 0 208 -75.5t98 -258.5l161 -1180h-236z" />
    <glyph glyph-name="uni03BC" unicode="&#x3bc;" horiz-adv-x="1218" 
d="M728 217q-147 -242 -353 -242q-38 0 -69.5 14t-41.5 37l-100 -461h-234l305 1459h242l-123 -578q-21 -105 -21 -133q0 -142 118 -142q70 0 143 52.5t128.5 139.5t74.5 177l103 484h242l-145 -685q-11 -53 -11 -88q0 -36 21.5 -55.5t59.5 -19.5q32 0 68 11l-39 -185
q-75 -21 -166 -21q-99 0 -150.5 45t-51.5 131l4 60h-4z" />
    <glyph glyph-name="nu" unicode="&#x3bd;" horiz-adv-x="1088" 
d="M1080 956q0 -212 -155 -465.5t-422 -490.5h-228l-199 1024h245l138 -820q101 96 191 231t136 263t46 232q0 58 -9 94h251q6 -19 6 -68z" />
    <glyph glyph-name="xi" unicode="&#x3be;" horiz-adv-x="970" 
d="M54 351q0 163 129 292.5t337 179.5q-83 27 -135 85t-52 130q0 100 88 180t232 113v5l-93 -2h-209l39 182h678l-37 -172q-234 -41 -355 -115t-121 -178q0 -64 48.5 -110t135.5 -68q64 8 162 8l-40 -204q-46 7 -120 7q-121 0 -220.5 -38.5t-153.5 -104.5t-54 -146
q0 -49 22.5 -83t67 -61t154.5 -64q120 -42 174 -77t82.5 -80.5t28.5 -107.5q0 -60 -31.5 -125t-83.5 -106h-242q51 39 79.5 83t28.5 83q0 48 -43 79.5t-180 75.5q-165 53 -240.5 135t-75.5 204z" />
    <glyph glyph-name="omicron" unicode="&#x3bf;" horiz-adv-x="1137" 
d="M1067 631q0 -186 -74.5 -339.5t-206 -235t-303.5 -81.5q-193 0 -303.5 111t-110.5 307q0 186 74.5 338t205.5 235t304 83q190 0 302 -111.5t112 -306.5zM823 625q0 107 -49.5 170t-137.5 63q-91 0 -165 -62.5t-116.5 -169.5t-42.5 -229q0 -108 50.5 -169.5t137.5 -61.5
q93 0 167.5 62.5t115 169.5t40.5 227z" />
    <glyph glyph-name="rho" unicode="&#x3c1;" horiz-adv-x="1183" 
d="M1113 624q0 -187 -67.5 -336.5t-188.5 -231t-275 -81.5q-100 0 -176.5 34t-121.5 88h-4l-119 -574h-242l210 994q56 270 195 401t372 131q124 0 219.5 -54t146.5 -151.5t51 -219.5zM868 616q0 112 -54 177.5t-144 65.5q-113 0 -184.5 -74.5t-106.5 -235.5l-57 -265
q35 -54 93.5 -86.5t128.5 -32.5q138 0 231 127t93 324z" />
    <glyph glyph-name="sigma1" unicode="&#x3c2;" horiz-adv-x="973" 
d="M324 438q0 -62 25.5 -106.5t75 -76.5t158.5 -67q144 -45 207.5 -110t63.5 -156q0 -62 -32.5 -125t-84.5 -106h-242q45 33 78 78.5t33 88.5q0 55 -50 93t-206 86q-281 86 -281 356q0 182 80 335t220 237t314 84q70 0 139 -16.5t117 -46.5l-46 -203q-89 75 -216 75
q-94 0 -172.5 -54t-129.5 -160t-51 -206z" />
    <glyph glyph-name="upsilon" unicode="&#x3c5;" horiz-adv-x="1252" 
d="M1151 745q0 -367 -154 -568.5t-449 -201.5q-201 0 -309 91t-108 257q0 68 20 157l47 220q16 78 16 94q0 57 -62 57q-24 0 -50 -6l37 177q48 19 138 19q102 0 148.5 -40t46.5 -107q0 -55 -26 -170l-55 -248q-14 -60 -14 -119q0 -189 198 -189q156 0 239 154.5t83 421.5
q0 145 -30 280h254q30 -139 30 -279z" />
    <glyph glyph-name="chi" unicode="&#x3c7;" horiz-adv-x="1111" 
d="M639 325l97 -418q25 -113 56.5 -154.5t86.5 -41.5q36 0 70 16l-39 -187q-40 -17 -122 -17q-106 0 -163 71.5t-93 241.5l-66 297l-421 -601h-263l620 817l-75 335q-21 95 -49 136.5t-76 41.5q-33 0 -71 -19l40 190q34 16 111 16q94 0 146 -48t78 -167l63 -295l330 485h267
z" />
    <glyph glyph-name="psi" unicode="&#x3c8;" horiz-adv-x="1611" 
d="M872 -25h-80l-95 -453h-224l95 453h-41q-195 0 -308.5 107t-113.5 298q0 73 21 173l102 471h230l-99 -471q-18 -85 -18 -147q0 -117 58.5 -178.5t169.5 -61.5h39l250 1165h223l-249 -1165h44q146 0 238 95.5t134 291.5l101 471h233l-99 -469q-64 -305 -209 -442.5
t-402 -137.5z" />
    <glyph glyph-name="omega" unicode="&#x3c9;" horiz-adv-x="1681" 
d="M1595 695q0 -342 -131.5 -531t-373.5 -189q-116 0 -198.5 55t-114.5 156h-4q-68 -113 -153 -162t-202 -49q-161 0 -253 98t-92 275q0 314 262 676h260q-130 -165 -205.5 -340.5t-75.5 -318.5q0 -197 146 -197q188 0 253 306l56 270h231l-56 -270q-17 -79 -17 -128
q0 -85 43 -131.5t115 -46.5q128 0 197.5 130t69.5 379q0 76 -15.5 174.5t-38.5 172.5h257q18 -68 29 -162.5t11 -166.5z" />
    <glyph glyph-name="iotadieresis" unicode="&#x3ca;" horiz-adv-x="598" 
d="M329 -17q-113 0 -174 56t-61 155q0 33 5.5 73.5t13.5 82t143 674.5h243l-136 -645q-21 -105 -21 -129q0 -36 22 -56t64 -20q52 0 92 16l-38 -184q-66 -23 -153 -23zM743 1315q0 -50 -35 -84.5t-91 -34.5t-91 35t-35 84q0 51 36 83.5t89 32.5q54 0 90.5 -33t36.5 -83z
M322 1315q0 -51 -37.5 -85t-89.5 -34q-51 0 -89 33.5t-38 85.5q0 49 36 82.5t91 33.5q54 0 90.5 -33t36.5 -83z" />
    <glyph glyph-name="upsilondieresis" unicode="&#x3cb;" horiz-adv-x="1252" 
d="M1151 745q0 -367 -154 -568.5t-449 -201.5q-201 0 -309 91t-108 257q0 68 20 157l47 220q16 78 16 94q0 57 -62 57q-24 0 -50 -6l37 177q48 19 138 19q102 0 148.5 -40t46.5 -107q0 -55 -26 -170l-55 -248q-14 -60 -14 -119q0 -189 198 -189q156 0 239 154.5t83 421.5
q0 145 -30 280h254q30 -139 30 -279zM1051 1313q0 -50 -35 -84.5t-91 -34.5t-91 35t-35 84q0 51 36 83.5t89 32.5q54 0 90.5 -33t36.5 -83zM630 1313q0 -51 -37.5 -85t-89.5 -34q-51 0 -89 33.5t-38 85.5q0 49 36 82.5t91 33.5q54 0 90.5 -33t36.5 -83z" />
    <glyph glyph-name="omicrontonos" unicode="&#x3cc;" horiz-adv-x="1137" 
d="M1067 631q0 -186 -74.5 -339.5t-206 -235t-303.5 -81.5q-193 0 -303.5 111t-110.5 307q0 186 74.5 338t205.5 235t304 83q190 0 302 -111.5t112 -306.5zM823 625q0 107 -49.5 170t-137.5 63q-91 0 -165 -62.5t-116.5 -169.5t-42.5 -229q0 -108 50.5 -169.5t137.5 -61.5
q93 0 167.5 62.5t115 169.5t40.5 227zM949 1530l-260 -349h-127l167 349h220z" />
    <glyph glyph-name="upsilontonos" unicode="&#x3cd;" horiz-adv-x="1252" 
d="M1151 745q0 -367 -154 -568.5t-449 -201.5q-201 0 -309 91t-108 257q0 68 20 157l47 220q16 78 16 94q0 57 -62 57q-24 0 -50 -6l37 177q48 19 138 19q102 0 148.5 -40t46.5 -107q0 -55 -26 -170l-55 -248q-14 -60 -14 -119q0 -189 198 -189q156 0 239 154.5t83 421.5
q0 145 -30 280h254q30 -139 30 -279zM957 1530l-260 -349h-127l167 349h220z" />
    <glyph glyph-name="omegatonos" unicode="&#x3ce;" horiz-adv-x="1681" 
d="M1595 695q0 -342 -131.5 -531t-373.5 -189q-116 0 -198.5 55t-114.5 156h-4q-68 -113 -153 -162t-202 -49q-161 0 -253 98t-92 275q0 314 262 676h260q-130 -165 -205.5 -340.5t-75.5 -318.5q0 -197 146 -197q188 0 253 306l56 270h231l-56 -270q-17 -79 -17 -128
q0 -85 43 -131.5t115 -46.5q128 0 197.5 130t69.5 379q0 76 -15.5 174.5t-38.5 172.5h257q18 -68 29 -162.5t11 -166.5zM1219 1531l-260 -349h-127l167 349h220z" />
    <glyph glyph-name="uni0401" unicode="&#x401;" horiz-adv-x="1053" 
d="M1097 1226h-527l-86 -406h490l-45 -208h-489l-87 -405h561l-43 -207h-810l304 1434h777zM1119 1684q0 -50 -35 -84.5t-91 -34.5t-91 35t-35 84q0 51 36 83.5t89 32.5q54 0 90.5 -33t36.5 -83zM698 1684q0 -51 -37.5 -85t-89.5 -34q-51 0 -89 33.5t-38 85.5q0 49 36 82.5
t91 33.5q54 0 90.5 -33t36.5 -83z" />
    <glyph glyph-name="uni0402" unicode="&#x402;" horiz-adv-x="1512" 
d="M912 -17q-54 0 -109 9t-83 21l40 189q60 -29 141 -29q116 0 178.5 65.5t62.5 188.5q0 103 -65 164t-190 61h-197l-139 -652h-247l261 1226h-355l43 208h1070l-43 -208h-468l-81 -382h242q121 0 219 -48t151.5 -136.5t53.5 -204.5q0 -218 -128 -345t-357 -127z" />
    <glyph glyph-name="uni0403" unicode="&#x403;" horiz-adv-x="1026" 
d="M1120 1223h-552l-260 -1223h-247l305 1434h799zM824 1570h-179l302 326h225z" />
    <glyph glyph-name="uni0404" unicode="&#x404;" horiz-adv-x="1279" 
d="M1303 1147q-141 93 -352 93q-212 0 -357.5 -114t-185.5 -303h614l-42 -203h-596l-2 -46q0 -115 46.5 -201.5t137 -135t221.5 -48.5q183 0 348 87l-49 -238q-84 -35 -168.5 -49t-189.5 -14q-288 0 -447.5 164t-159.5 458q0 256 108 454.5t299 302.5t449 104q195 0 374 -72
z" />
    <glyph glyph-name="uni0405" unicode="&#x405;" horiz-adv-x="1059" 
d="M1029 1160q-63 43 -151.5 69t-167.5 26q-77 0 -131 -26.5t-82.5 -70t-28.5 -95.5q0 -72 42 -128.5t161 -135.5q154 -103 213.5 -194.5t59.5 -204.5q0 -125 -63.5 -225.5t-178.5 -150t-272 -49.5q-102 0 -210 26.5t-187 69.5l42 229q76 -56 173 -89t189 -33
q119 0 184 51.5t65 145.5q0 72 -46 126t-174 135q-136 86 -197.5 182.5t-61.5 213.5q0 121 62 219t176 152.5t270 54.5q175 0 358 -72z" />
    <glyph glyph-name="uni0407" unicode="&#x407;" horiz-adv-x="597" 
d="M310 0h-249l303 1434h250zM856 1686q0 -50 -35 -84.5t-91 -34.5t-91 35t-35 84q0 51 36 83.5t89 32.5q54 0 90.5 -33t36.5 -83zM435 1686q0 -51 -37.5 -85t-89.5 -34q-51 0 -89 33.5t-38 85.5q0 49 36 82.5t91 33.5q54 0 90.5 -33t36.5 -83z" />
    <glyph glyph-name="uni0409" unicode="&#x409;" horiz-adv-x="2024" 
d="M1325 839h172q209 0 329.5 -103.5t120.5 -284.5q0 -216 -150 -333.5t-434 -117.5h-464l258 1220h-354q-168 -497 -277 -766t-215 -370.5t-261 -101.5q-93 0 -145 18l44 208q34 -17 83 -17q90 0 160 95t182 382.5t270 765.5h808zM1684 439q0 206 -255 206h-146l-95 -450
h166q166 0 248 63t82 181z" />
    <glyph glyph-name="uni040A" unicode="&#x40a;" horiz-adv-x="2057" 
d="M1052 620h-611l-130 -620h-251l304 1434h250l-127 -595h612l126 595h249l-127 -595h172q209 0 329.5 -104t120.5 -284q0 -216 -150 -333.5t-434 -117.5h-464zM1706 439q0 205 -256 205h-146l-94 -449h166q166 0 248 63t82 181z" />
    <glyph glyph-name="uni040B" unicode="&#x40b;" horiz-adv-x="1580" 
d="M554 0h-250l261 1226h-385l44 208h1070l-44 -208h-437l-80 -378h291q189 0 290.5 -77t101.5 -228q0 -74 -21 -170l-78 -373h-249l75 361q13 59 13 131q0 75 -45.5 109t-136.5 34h-286z" />
    <glyph glyph-name="uni040C" unicode="&#x40c;" horiz-adv-x="1280" 
d="M1427 1434l-713 -705l443 -729h-301l-349 615q-25 43 -41 89h-4l-152 -704h-249l304 1434h250l-142 -670h4l48 56l591 614h311zM910 1566h-179l302 326h225z" />
    <glyph glyph-name="uni040E" unicode="&#x40e;" horiz-adv-x="1194" 
d="M177 -25q-55 0 -109 12t-80 27l44 215q29 -18 69 -29t77 -11q76 0 144 53.5t156 183.5l-260 1008h268l138 -641q11 -47 21 -143h4q36 76 69 131l396 653h277l-662 -1029q-123 -191 -201.5 -273t-161.5 -119.5t-189 -37.5zM1254 1890q-51 -154 -169.5 -240t-274.5 -86
q-153 0 -250 90.5t-101 235.5h201q2 -84 44.5 -133t120.5 -49q76 0 135.5 47.5t89.5 134.5h204z" />
    <glyph glyph-name="uni040F" unicode="&#x40f;" horiz-adv-x="1516" 
d="M60 0l303 1434h249l-259 -1217h675l258 1217h249l-304 -1434h-455l-80 -386h-228l83 386h-491z" />
    <glyph glyph-name="uni0410" unicode="&#x410;" horiz-adv-x="1367" 
d="M992 0l-53 360h-561l-200 -360h-281l840 1434h281l227 -1434h-253zM839 1149v35l2 35h-5q-20 -60 -47 -110l-308 -549h432l-70 540q-4 18 -4 49z" />
    <glyph glyph-name="uni0411" unicode="&#x411;" horiz-adv-x="1244" 
d="M1168 1223h-600l-81 -385h227q209 0 329.5 -104t120.5 -283q0 -216 -150 -333.5t-434 -117.5h-519l304 1434h849zM901 439q0 205 -256 205h-201l-94 -449h221q166 0 248 63t82 181z" />
    <glyph glyph-name="uni0412" unicode="&#x412;" horiz-adv-x="1250" 
d="M1211 1117q0 -143 -87 -240.5t-248 -128.5v-4q122 -19 191.5 -97t69.5 -194q0 -208 -153 -330.5t-419 -122.5h-504l304 1434h452q185 0 289.5 -83.5t104.5 -233.5zM952 1069q0 84 -54 127t-154 43h-171l-87 -402h170q140 0 218 61.5t78 170.5zM877 446q0 90 -62.5 143
t-189.5 53h-180l-94 -447h206q156 0 238 65.5t82 185.5z" />
    <glyph glyph-name="uni0413" unicode="&#x413;" horiz-adv-x="1026" 
d="M1120 1223h-552l-260 -1223h-247l305 1434h799z" />
    <glyph glyph-name="uni0414" unicode="&#x414;" horiz-adv-x="1501" 
d="M1187 217h216l-129 -603h-228l83 386h-971l-81 -386h-227l128 603h118q197 193 330.5 470t247.5 747h771zM840 1215q-184 -717 -461 -998h559l212 998h-310z" />
    <glyph glyph-name="uni0415" unicode="&#x415;" horiz-adv-x="1053" 
d="M1097 1226h-527l-86 -406h490l-45 -208h-489l-87 -405h561l-43 -207h-810l304 1434h777z" />
    <glyph glyph-name="uni0416" unicode="&#x416;" horiz-adv-x="1778" 
d="M1268 734l391 -734h-280l-320 657q-9 23 -16 54h-4l-152 -711h-231l149 702h-5l-41 -55l-584 -647h-293l708 744l-370 690h272l301 -629l19 -53h4l144 682h230l-143 -676h4q11 21 35 47l568 629h284z" />
    <glyph glyph-name="uni0417" unicode="&#x417;" horiz-adv-x="1123" 
d="M1113 1121q0 -151 -98.5 -253t-272.5 -128v-4q119 -23 189 -109.5t70 -211.5q0 -129 -73 -232.5t-202.5 -155.5t-306.5 -52q-259 0 -435 91l46 225q82 -54 190.5 -85t205.5 -31q156 0 241.5 65t85.5 183q0 213 -291 213h-166l41 205h169q181 0 269.5 64t88.5 180
q0 82 -59 127.5t-163 45.5q-79 0 -184 -29.5t-169 -62.5l39 220q79 32 182.5 52t193.5 20q191 0 300 -90t109 -247z" />
    <glyph glyph-name="uni0418" unicode="&#x418;" horiz-adv-x="1563" 
d="M1277 0h-232l187 888q24 109 43 181h-4q-28 -34 -53 -63t-935 -1006h-222l303 1434h232l-190 -906q-16 -78 -34 -135h4l22 26l77 86l867 929h239z" />
    <glyph glyph-name="uni0419" unicode="&#x419;" horiz-adv-x="1563" 
d="M1277 0h-232l187 888q24 109 43 181h-4q-28 -34 -53 -63t-935 -1006h-222l303 1434h232l-190 -906q-16 -78 -34 -135h4l22 26l77 86l867 929h239zM1428 1890q-51 -154 -169.5 -240t-274.5 -86q-153 0 -250 90.5t-101 235.5h201q2 -84 44.5 -133t120.5 -49
q76 0 135.5 47.5t89.5 134.5h204z" />
    <glyph glyph-name="uni041A" unicode="&#x41a;" horiz-adv-x="1280" 
d="M1427 1434l-713 -705l443 -729h-301l-349 615q-25 43 -41 89h-4l-152 -704h-249l304 1434h250l-142 -670h4l48 56l591 614h311z" />
    <glyph glyph-name="uni041B" unicode="&#x41b;" horiz-adv-x="1450" 
d="M1147 0h-249l259 1220h-354q-198 -585 -299 -819t-203.5 -326.5t-250.5 -92.5q-93 0 -145 18l44 208q34 -17 83 -17q63 0 114 43.5t108.5 155.5t169.5 413t220 631h808z" />
    <glyph glyph-name="uni041C" unicode="&#x41c;" horiz-adv-x="1728" 
d="M1440 0h-228l193 910q28 126 76 296h-6q-51 -113 -161 -259l-406 -545h-154l-164 527q-18 55 -33 135t-17 142h-7q-35 -221 -52 -297l-194 -909h-226l304 1434h292l187 -590q30 -95 35 -179h5q55 120 113 198l429 571h319z" />
    <glyph glyph-name="uni041D" unicode="&#x41d;" horiz-adv-x="1507" 
d="M1220 0h-248l129 613h-661l-129 -613h-250l304 1434h250l-129 -601h662l129 601h248z" />
    <glyph glyph-name="uni041E" unicode="&#x41e;" horiz-adv-x="1549" 
d="M1499 847q0 -232 -98.5 -434.5t-272.5 -320t-413 -117.5q-175 0 -309.5 77t-208 218t-73.5 319q0 188 59 348t171.5 281.5t252 180.5t304.5 59q173 0 307.5 -75.5t207.5 -215t73 -320.5zM1239 838q0 186 -95.5 294.5t-258.5 108.5q-136 0 -253.5 -85.5t-183 -240.5
t-65.5 -325q0 -183 93.5 -291.5t258.5 -108.5q143 0 257.5 84t180.5 241t66 323z" />
    <glyph glyph-name="uni041F" unicode="&#x41f;" horiz-adv-x="1494" 
d="M1210 0h-249l258 1214h-653l-257 -1214h-248l303 1434h1149z" />
    <glyph glyph-name="uni0420" unicode="&#x420;" horiz-adv-x="1234" 
d="M1246 1041q0 -156 -73 -274.5t-212 -183.5t-332 -65h-210l-109 -518h-249l304 1434h432q210 0 329.5 -104t119.5 -289zM987 1023q0 96 -65 153.5t-189 57.5h-161l-110 -518h175q164 0 257 81t93 226z" />
    <glyph glyph-name="uni0421" unicode="&#x421;" horiz-adv-x="1304" 
d="M1319 1141q-167 100 -347 100q-174 0 -309.5 -79.5t-209.5 -220.5t-74 -318q0 -206 113.5 -319.5t307.5 -113.5q99 0 186 22t181 73l-53 -240q-161 -70 -373 -70q-187 0 -328.5 77.5t-217 220t-75.5 328.5q0 250 107.5 447.5t303.5 303.5t454 106q202 0 386 -78z" />
    <glyph glyph-name="uni0422" unicode="&#x422;" horiz-adv-x="1139" 
d="M1246 1226h-406l-259 -1226h-248l259 1226h-413l45 208h1067z" />
    <glyph glyph-name="uni0423" unicode="&#x423;" horiz-adv-x="1194" 
d="M177 -25q-55 0 -109 12t-80 27l44 215q29 -18 69 -29t77 -11q76 0 144 53.5t156 183.5l-260 1008h268l138 -641q11 -47 21 -143h4q36 76 69 131l396 653h277l-662 -1029q-123 -191 -201.5 -273t-161.5 -119.5t-189 -37.5z" />
    <glyph glyph-name="uni0424" unicode="&#x424;" horiz-adv-x="1672" 
d="M1640 795q0 -173 -90.5 -317t-246 -217.5t-359.5 -73.5h-64l-46 -222h-238l47 222h-38q-234 0 -362 131t-128 374q0 162 94 303.5t251 216t355 74.5h64l39 182h231l-39 -182h38q227 0 359.5 -130t132.5 -361zM1391 795q0 149 -71 227t-204 78h-45l-151 -727h36
q132 0 230 54.5t151.5 151.5t53.5 216zM785 1100q-124 0 -219 -53.5t-147.5 -148t-52.5 -206.5q0 -153 70.5 -236t201.5 -83h45l152 727h-50z" />
    <glyph glyph-name="uni0425" unicode="&#x425;" horiz-adv-x="1275" 
d="M843 714l293 -714h-280l-157 447q-21 60 -39 147h-4l-9 -18q-21 -50 -40 -73l-399 -503h-307l626 736l-290 698h288l144 -435q36 -107 38 -146h5l8 17q23 50 41 73l391 491h289z" />
    <glyph glyph-name="uni0426" unicode="&#x426;" horiz-adv-x="1587" 
d="M1278 219h199l-128 -605h-227l83 386h-1145l304 1434h249l-259 -1215h675l258 1215h249z" />
    <glyph glyph-name="uni0427" unicode="&#x427;" horiz-adv-x="1410" 
d="M1127 0h-249l124 590q-226 -110 -433 -110q-170 0 -262.5 80t-92.5 226q0 54 20 141l105 507h249l-108 -504q-12 -60 -12 -96q0 -65 45 -104.5t143 -39.5q179 0 391 107l134 637h249z" />
    <glyph glyph-name="uni0428" unicode="&#x428;" horiz-adv-x="1930" 
d="M1661 0h-1601l303 1434h249l-257 -1215h426l256 1215h250l-256 -1215h426l258 1215h249z" />
    <glyph glyph-name="uni0429" unicode="&#x429;" horiz-adv-x="2017" 
d="M1705 219h202l-129 -605h-228l82 386h-1572l304 1434h249l-259 -1215h427l258 1215h248l-256 -1215h425l259 1215h249z" />
    <glyph glyph-name="uni042A" unicode="&#x42a;" horiz-adv-x="1500" 
d="M1435 454q0 -220 -150.5 -337t-433.5 -117h-519l259 1223h-394l45 211h642l-127 -596h223q212 0 333.5 -101.5t121.5 -282.5zM1172 442q0 202 -258 202h-199l-94 -449h219q332 0 332 247z" />
    <glyph glyph-name="uni042B" unicode="&#x42b;" horiz-adv-x="1730" 
d="M1445 0h-249l303 1434h249zM486 838h172q210 0 330.5 -103.5t120.5 -283.5q0 -216 -150 -333.5t-434 -117.5h-464l304 1434h249zM846 439q0 205 -256 205h-146l-94 -449h166q166 0 248 63t82 181z" />
    <glyph glyph-name="uni042C" unicode="&#x42c;" horiz-adv-x="1244" 
d="M487 838h227q209 0 329.5 -104t120.5 -283q0 -216 -150 -333.5t-434 -117.5h-519l304 1434h248zM901 439q0 205 -256 205h-201l-94 -449h221q166 0 248 63t82 181z" />
    <glyph glyph-name="uni042D" unicode="&#x42d;" horiz-adv-x="1298" 
d="M1254 865q0 -260 -108 -467.5t-300.5 -315t-452.5 -107.5q-216 0 -374 66l47 230q164 -82 334 -82q217 0 367.5 115t193.5 316h-616l42 203h598q4 23 4 63q0 163 -107.5 259t-296.5 96q-183 0 -331 -69l45 231q151 55 337 55q291 0 454.5 -158.5t163.5 -434.5z" />
    <glyph glyph-name="uni042E" unicode="&#x42e;" horiz-adv-x="2052" 
d="M1450 1458q171 0 295 -76.5t190.5 -217t66.5 -326.5q0 -243 -98 -445.5t-265 -310t-381 -107.5q-164 0 -287.5 70t-193.5 213t-70 307v35l1 34h-264l-133 -634h-251l304 1434h250l-124 -581h247q71 284 260 444.5t453 160.5zM1741 828q0 195 -85 303.5t-230 108.5
q-133 0 -235 -80t-163 -233t-61 -324q0 -195 82.5 -304t234.5 -109q131 0 234 80.5t163 234t60 323.5z" />
    <glyph glyph-name="uni042F" unicode="&#x42f;" horiz-adv-x="1271" 
d="M1288 1434l-304 -1434h-246l123 579h-110q-98 0 -169 -52t-130 -147l-236 -380h-283l272 419q125 192 289 245v4q-116 26 -186 112.5t-70 207.5q0 136 66.5 237t194.5 155t308 54h481zM822 1237q-153 0 -237 -67t-84 -191q0 -92 65 -147t182 -55h154l100 460h-180z" />
    <glyph glyph-name="uni0430" unicode="&#x430;" horiz-adv-x="1162" 
d="M935 0h-245q0 25 6 91.5t12 102.5h-4q-63 -92 -108.5 -133.5t-98.5 -63.5t-120 -22q-146 0 -227 103t-81 285q0 186 87.5 354t234 250t341.5 82q161 0 383 -48l-141 -668q-15 -71 -27 -174.5t-12 -158.5zM843 853q-62 15 -137 15q-114 0 -201 -59.5t-140 -180.5t-53 -253
q0 -100 38.5 -154.5t112.5 -54.5q108 0 194.5 113t126.5 299z" />
    <glyph glyph-name="uni0431" unicode="&#x431;" horiz-adv-x="1153" 
d="M375 857h4q152 167 362 167q157 0 248.5 -108t91.5 -292t-73 -335t-201 -232.5t-297 -81.5q-203 0 -314 129t-111 368q0 235 73 460.5t200 354.5q58 59 122 99.5t140.5 67t183 43t393.5 31.5l-47 -213q-264 -11 -360.5 -24.5t-163.5 -38.5t-110.5 -65.5t-78.5 -122
t-62 -207.5zM837 606q0 115 -51 173t-141 58q-81 0 -162 -48t-140 -128q-22 -88 -22 -208q0 -138 52.5 -212.5t150.5 -74.5q89 0 160.5 59.5t112 163t40.5 217.5z" />
    <glyph glyph-name="uni0432" unicode="&#x432;" horiz-adv-x="1083" 
d="M1028 810q0 -104 -70.5 -176.5t-199.5 -97.5q103 -9 162 -61.5t59 -146.5q0 -99 -66.5 -184t-181 -127t-261.5 -42q-214 0 -306 86.5t-92 281.5q0 203 72 369t211.5 251.5t333.5 85.5q109 0 185 -30.5t115 -84t39 -124.5zM794 774q0 49 -34.5 80.5t-103.5 31.5
q-115 0 -198.5 -77t-116.5 -212q211 7 290 25t121 53.5t42 98.5zM745 327q0 68 -51.5 97.5t-149.5 29.5t-233 -18q-9 -41 -9 -96q0 -102 44.5 -148t148.5 -46q110 0 180 51t70 130z" />
    <glyph glyph-name="uni0433" unicode="&#x433;" horiz-adv-x="895" 
d="M852 789q0 -78 -33.5 -137t-99 -103.5t-192.5 -90.5q-150 -55 -190 -78.5t-61 -51.5t-21 -67q0 -47 39 -77t122 -30q75 0 159.5 24.5t160.5 66.5l-44 -214q-136 -56 -320 -56q-167 0 -257.5 73.5t-90.5 203.5q0 84 38 146t108 108t218 97q139 50 183 86.5t44 86.5
q0 45 -37 70t-110 25q-67 0 -145 -19.5t-131 -47.5l40 198q59 21 138 34t152 13q158 0 244 -68.5t86 -191.5z" />
    <glyph glyph-name="uni0434" unicode="&#x434;" horiz-adv-x="1165" 
d="M1131 1007q0 -299 -86 -543t-236 -366.5t-351 -122.5q-182 0 -285.5 106.5t-103.5 298.5q0 174 73.5 328t194.5 235.5t271 81.5q96 0 167.5 -45t106.5 -123h4q3 18 7.5 67t4.5 76q0 160 -62 242.5t-201 82.5q-63 0 -146 -21t-136 -53l47 217q42 21 115.5 34.5t144.5 13.5
q471 0 471 -509zM851 677q-23 76 -81 121.5t-131 45.5q-88 0 -161.5 -59t-120 -172t-46.5 -225q0 -102 45 -162t133 -60q132 0 229 138t133 373z" />
    <glyph glyph-name="uni0435" unicode="&#x435;" horiz-adv-x="1031" 
d="M1004 772q0 -185 -172 -272.5t-522 -91.5l-2 -11v-20q0 -104 62 -161.5t173 -57.5q76 0 162.5 27.5t158.5 70.5l-40 -199q-151 -82 -333 -82q-199 0 -310.5 111t-111.5 313q0 174 76 325.5t212 238t298 86.5q161 0 255 -76t94 -201zM770 766q0 50 -36.5 79.5t-100.5 29.5
q-106 0 -192 -87t-113 -214q442 0 442 192z" />
    <glyph glyph-name="uni0436" unicode="&#x436;" horiz-adv-x="1559" 
d="M1125 515l307 -515h-261l-274 504h-4l-107 -504h-229l108 506h-4l-489 -506h-281l551 534l-294 490h252l268 -483h4l102 483h230l-104 -485h4l473 485h271z" />
    <glyph glyph-name="uni0437" unicode="&#x437;" horiz-adv-x="950" 
d="M900 797q0 -109 -74.5 -177t-216.5 -90v-4q105 -11 165 -74t60 -154q0 -99 -55.5 -170.5t-164.5 -111.5t-268 -40q-104 0 -206 18t-164 48l35 200q154 -85 316 -85q130 0 199.5 40t69.5 109q0 140 -248 140h-167l31 163h164q136 0 210.5 38.5t74.5 108.5q0 60 -53.5 90
t-145.5 30q-160 0 -319 -77l38 193q164 57 349 57q178 0 274 -63.5t96 -188.5z" />
    <glyph glyph-name="uni0438" unicode="&#x438;" horiz-adv-x="1184" 
d="M941 0h-240l31 217h-4q-81 -114 -181 -178t-204 -64q-127 0 -194 72.5t-67 203.5q0 49 31 196l122 577h242l-125 -589q-21 -112 -21 -134q0 -60 30 -95t90 -35q69 0 141.5 51t128.5 137.5t74 172.5l105 492h242l-147 -688q-39 -186 -54 -336z" />
    <glyph glyph-name="uni0439" unicode="&#x439;" horiz-adv-x="1184" 
d="M941 0h-240l31 217h-4q-81 -114 -181 -178t-204 -64q-127 0 -194 72.5t-67 203.5q0 49 31 196l122 577h242l-125 -589q-21 -112 -21 -134q0 -60 30 -95t90 -35q69 0 141.5 51t128.5 137.5t74 172.5l105 492h242l-147 -688q-39 -186 -54 -336zM1162 1529
q-51 -154 -169.5 -240t-274.5 -86q-153 0 -250 90.5t-101 235.5h201q2 -84 44.5 -133t120.5 -49q76 0 135.5 47.5t89.5 134.5h204z" />
    <glyph glyph-name="uni043A" unicode="&#x43a;" horiz-adv-x="1072" 
d="M629 537l315 -537h-271l-282 528h-5l-112 -528h-242l218 1024h241l-94 -448h4l460 448h294z" />
    <glyph glyph-name="uni043B" unicode="&#x43b;" horiz-adv-x="1167" 
d="M916 0h-242l178 838h-216q-124 -396 -205 -553.5t-177.5 -228t-231.5 -70.5q-25 0 -64.5 5t-51.5 10l33 187q25 -9 64 -9q82 0 149.5 76.5t136 244t174.5 524.5h670z" />
    <glyph glyph-name="uni043C" unicode="&#x43c;" horiz-adv-x="1503" 
d="M1248 0h-229l174 820q-7 -23 -100 -189l-362 -631h-212l-98 631q-13 81 -20 188l-174 -819h-195l217 1024h289l99 -626q12 -74 22 -192q21 43 51.5 98.5t410.5 719.5h344z" />
    <glyph glyph-name="uni043D" unicode="&#x43d;" horiz-adv-x="1203" 
d="M953 0h-242l94 445h-440l-93 -445h-243l217 1024h243l-86 -400h440l85 400h242z" />
    <glyph glyph-name="uni043E" unicode="&#x43e;" horiz-adv-x="1137" 
d="M1067 631q0 -186 -74.5 -339.5t-206 -235t-303.5 -81.5q-193 0 -303.5 111t-110.5 307q0 186 74.5 338t205.5 235t304 83q190 0 302 -111.5t112 -306.5zM823 625q0 107 -49.5 170t-137.5 63q-91 0 -165 -62.5t-116.5 -169.5t-42.5 -229q0 -108 50.5 -169.5t137.5 -61.5
q93 0 167.5 62.5t115 169.5t40.5 227z" />
    <glyph glyph-name="uni043F" unicode="&#x43f;" horiz-adv-x="1188" 
d="M1098 774q0 -51 -31 -198l-122 -576h-242l124 592q20 107 20 131q0 60 -31.5 97.5t-89.5 37.5q-64 0 -136.5 -50.5t-128.5 -135.5t-74 -169l-107 -503h-244l155 716q36 172 53 308h236q-8 -85 -31 -220h4q80 117 182.5 181t203.5 64q124 0 191.5 -71t67.5 -204z" />
    <glyph glyph-name="uni0440" unicode="&#x440;" horiz-adv-x="1162" 
d="M1092 668q0 -187 -82 -351t-224.5 -253t-319.5 -89q-102 0 -194 29l-101 -477h-243l248 1170q12 52 25.5 157t16.5 170h239q0 -26 -8 -92.5t-14 -102.5h4q137 220 348 220q145 0 225 -102t80 -279zM850 646q0 106 -41 159t-117 53q-70 0 -135 -51t-117.5 -152t-74.5 -206
l-58 -266q21 -8 73 -17.5t92 -9.5q107 0 193.5 67t135.5 181.5t49 241.5z" />
    <glyph glyph-name="uni0441" unicode="&#x441;" horiz-adv-x="919" 
d="M882 782q-38 32 -94.5 54t-124.5 22q-95 0 -173.5 -56t-128.5 -161.5t-50 -221.5q0 -124 55.5 -188.5t158.5 -64.5q62 0 131.5 25t124.5 61l-42 -203q-142 -74 -282 -74q-182 0 -285 111.5t-103 308.5q0 178 77 330.5t214.5 238t311.5 85.5q73 0 145 -17.5t112 -44.5z
" />
    <glyph glyph-name="uni0442" unicode="&#x442;" horiz-adv-x="1811" 
d="M1722 773q0 -50 -31 -197l-123 -576h-240l125 592q20 107 20 131q0 135 -119 135q-92 0 -195 -112.5t-130 -241.5l-106 -504h-242l126 592q20 107 20 131q0 135 -119 135q-61 0 -131 -53t-124 -137.5t-70 -164.5l-108 -503h-243l155 716q36 172 53 308h236
q-8 -85 -31 -220h4q79 116 177 180.5t195 64.5q235 0 252 -250q84 122 185.5 186t207.5 64q128 0 192 -71.5t64 -204.5z" />
    <glyph glyph-name="uni0443" unicode="&#x443;" horiz-adv-x="1046" 
d="M-27 -481q-70 0 -133 21l42 194q39 -24 100 -24q126 0 214 135l103 160l-193 1019h251l96 -705l4 -65l-2 -42h5q25 64 48 106l383 706h257l-689 -1154q-114 -191 -226.5 -271t-259.5 -80z" />
    <glyph glyph-name="uni0444" unicode="&#x444;" horiz-adv-x="1678" 
d="M889 204q17 -22 56 -38.5t91 -16.5q95 0 169 63t117.5 177.5t43.5 246.5q0 106 -40.5 165t-111.5 59q-108 0 -198 -70zM825 992l49 209q39 164 131.5 245t253.5 81q82 0 155 -21l-31 -177q-51 20 -98 20q-155 0 -196 -210l-33 -163l4 1q110 71 241 71q142 0 224.5 -105.5
t82.5 -284.5q0 -193 -69.5 -350.5t-195.5 -245t-290 -87.5q-59 0 -115 14.5t-84 40.5l-22 -96q-49 -215 -150.5 -312.5t-267.5 -97.5q-34 0 -78 6t-65 14l32 174q11 -6 40 -13t54 -7q75 0 123.5 53.5t80.5 185.5l25 108q-80 -42 -132.5 -56t-115.5 -14q-141 0 -225 107.5
t-84 281.5q0 192 70 350.5t196 246t291 87.5q63 0 118 -16t81 -40zM789 818q-17 22 -58 38.5t-88 16.5q-96 0 -171 -65.5t-117 -179.5t-42 -242q0 -102 40 -162.5t112 -60.5q111 0 196 68z" />
    <glyph glyph-name="uni0445" unicode="&#x445;" horiz-adv-x="1027" 
d="M669 507l232 -507h-266l-110 293l-32 97h-5q-21 -32 -39.5 -58.5t-260.5 -331.5h-283l458 514l-224 510h266l104 -298q18 -51 29 -102h4q14 21 33 48t274 352h273z" />
    <glyph glyph-name="uni0446" unicode="&#x446;" horiz-adv-x="1228" 
d="M732 223q-84 -118 -186 -183t-203 -65q-127 0 -194 72.5t-67 203.5q0 49 31 196l122 577h242l-125 -589q-21 -112 -21 -134q0 -60 30 -95t90 -35q69 0 141.5 51t128.5 137.5t74 172.5l105 492h242l-147 -688q-11 -44 -11 -95q0 -67 82 -67l73 4l-131 -559h-213l110 375
q-91 0 -134 29.5t-43 93.5q0 52 10 106h-6z" />
    <glyph glyph-name="uni0447" unicode="&#x447;" horiz-adv-x="1148" 
d="M1115 1024l-218 -1024h-243l83 394q-173 -104 -337 -104q-127 0 -202.5 69.5t-75.5 188.5q0 34 5 68t86 408h236l-73 -338q-12 -55 -12 -88q0 -57 36 -91t105 -34q72 0 134.5 24t131.5 65l100 462h244z" />
    <glyph glyph-name="uni0448" unicode="&#x448;" horiz-adv-x="1785" 
d="M1540 0h-241l9 64l28 175h-4q-93 -129 -193.5 -196.5t-197.5 -67.5q-112 0 -167 64.5t-59 209.5q-87 -130 -194.5 -202t-211.5 -72q-227 0 -227 268q0 65 26 185l125 596h243l-122 -577q-23 -109 -23 -148q0 -132 109 -132q58 0 126.5 54t123 141t72.5 171l106 491h240
l-121 -577q-22 -100 -22 -157q0 -122 107 -122q58 0 125.5 51.5t122.5 138.5t75 177l105 489h244l-153 -713q-22 -105 -35.5 -193.5t-15.5 -117.5z" />
    <glyph glyph-name="uni0449" unicode="&#x449;" horiz-adv-x="1828" 
d="M1335 242q-91 -129 -194 -198t-200 -69q-112 0 -167 64.5t-59 209.5q-87 -130 -194.5 -202t-211.5 -72q-227 0 -227 268q0 65 26 185l125 596h243l-122 -577q-23 -109 -23 -148q0 -132 109 -132q58 0 126.5 54t123 141t72.5 171l106 491h240l-121 -577q-22 -100 -22 -157
q0 -122 107 -122q58 0 127.5 53.5t124 140.5t71.5 173l105 489h244l-148 -685q-13 -57 -13 -98q0 -67 82 -67l73 4l-131 -559h-213l110 374q-91 0 -134 30t-43 94q0 54 13 124z" />
    <glyph glyph-name="uni044A" unicode="&#x44a;" horiz-adv-x="1292" 
d="M1204 367q0 -112 -59 -201.5t-169.5 -140t-261.5 -50.5q-214 0 -311.5 83.5t-97.5 261.5q0 108 34 271l53 253l-254 -6h-72l39 186h566l-87 -411q142 43 278 43q166 0 254 -73.5t88 -215.5zM969 343q0 145 -176 145q-109 0 -242 -39q-13 -61 -13 -131q0 -88 45.5 -129.5
t142.5 -41.5q109 0 176 55t67 141z" />
    <glyph glyph-name="uni044B" unicode="&#x44b;" horiz-adv-x="1542" 
d="M1507 1024l-217 -1024h-241l217 1024h241zM957 367q0 -113 -56.5 -202.5t-162.5 -139.5t-249 -50q-204 0 -298 84.5t-94 262.5q0 70 14.5 159.5t110.5 542.5h242l-87 -411q129 43 259 43q155 0 238 -73.5t83 -215.5zM721 343q0 145 -159 145q-99 0 -219 -39
q-13 -91 -13 -135q0 -86 42.5 -126.5t129.5 -40.5q100 0 159.5 55t59.5 141z" />
    <glyph glyph-name="uni044C" unicode="&#x44c;" horiz-adv-x="1084" 
d="M997 367q0 -112 -59 -201.5t-169.5 -140t-261.5 -50.5q-212 0 -310.5 82.5t-98.5 262.5q0 78 14.5 171.5t59.5 295.5l50 237h242l-87 -411q142 43 278 43q166 0 254 -73.5t88 -215.5zM762 343q0 145 -176 145q-109 0 -242 -39q-13 -61 -13 -131q0 -85 42.5 -128
t145.5 -43q109 0 176 55t67 141z" />
    <glyph glyph-name="uni044D" unicode="&#x44d;" horiz-adv-x="951" 
d="M884 630q0 -191 -73.5 -341t-210.5 -232t-320 -82q-85 0 -167 16.5t-118 41.5l35 204q33 -26 103.5 -48t135.5 -22q146 0 240 70t126 204h-456l32 160h442l3 34q0 107 -67 165t-191 58q-128 0 -260 -73l45 215q127 49 290 49q193 0 302 -112t109 -307z" />
    <glyph glyph-name="uni044E" unicode="&#x44e;" horiz-adv-x="1618" 
d="M1156 1049q191 0 292 -111.5t101 -308.5q0 -188 -72.5 -343.5t-195.5 -233t-286 -77.5q-188 0 -292.5 112t-104.5 301l4 57h-237l-93 -445h-243l217 1024h243l-86 -400h226q56 201 195 313t332 112zM1305 624q0 111 -44 172.5t-132 61.5q-79 0 -144 -56t-105 -167
t-40 -236q0 -113 47 -173.5t130 -60.5q86 0 151 62t101 167.5t36 229.5z" />
    <glyph glyph-name="uni044F" unicode="&#x44f;" horiz-adv-x="1104" 
d="M854 0h-242l85 398h-117q-62 0 -113.5 -38.5t-101.5 -119.5l-147 -240h-273l180 273q49 75 106.5 122.5t137.5 69.5q-93 20 -150.5 87t-57.5 153q0 160 113.5 239.5t329.5 79.5h467zM628 861q-223 0 -223 -166q0 -67 49 -103.5t134 -36.5h141l65 306h-166z" />
    <glyph glyph-name="uni0451" unicode="&#x451;" horiz-adv-x="1031" 
d="M1004 772q0 -185 -172 -272.5t-522 -91.5l-2 -11v-20q0 -104 62 -161.5t173 -57.5q76 0 162.5 27.5t158.5 70.5l-40 -199q-151 -82 -333 -82q-199 0 -310.5 111t-111.5 313q0 174 76 325.5t212 238t298 86.5q161 0 255 -76t94 -201zM770 766q0 50 -36.5 79.5t-100.5 29.5
q-106 0 -192 -87t-113 -214q442 0 442 192zM1012 1321q0 -50 -35 -84.5t-91 -34.5t-91 35t-35 84q0 51 36 83.5t89 32.5q54 0 90.5 -33t36.5 -83zM591 1321q0 -51 -37.5 -85t-89.5 -34q-51 0 -89 33.5t-38 85.5q0 49 36 82.5t91 33.5q54 0 90.5 -33t36.5 -83z" />
    <glyph glyph-name="uni0452" unicode="&#x452;" horiz-adv-x="1199" 
d="M1101 674q0 -211 -51.5 -428t-137.5 -370.5t-203.5 -236t-259.5 -82.5q-90 0 -145 22l39 189q47 -26 99 -26q77 0 147.5 66t129.5 199.5t96.5 309.5t37.5 302q0 215 -141 215q-90 0 -186 -99t-139 -228q-21 -51 -49 -206l-62 -301h-243l253 1190h-124l32 146h123l39 180
h241l-39 -180h341l-32 -146h-340l-90 -430h4q90 128 192.5 196t209.5 68q123 0 190.5 -94t67.5 -256z" />
    <glyph glyph-name="uni0453" unicode="&#x453;" horiz-adv-x="895" 
d="M852 789q0 -78 -33.5 -137t-99 -103.5t-192.5 -90.5q-150 -55 -190 -78.5t-61 -51.5t-21 -67q0 -47 39 -77t122 -30q75 0 159.5 24.5t160.5 66.5l-44 -214q-136 -56 -320 -56q-167 0 -257.5 73.5t-90.5 203.5q0 84 38 146t108 108t218 97q139 50 183 86.5t44 86.5
q0 45 -37 70t-110 25q-67 0 -145 -19.5t-131 -47.5l40 198q59 21 138 34t152 13q158 0 244 -68.5t86 -191.5zM653 1202h-179l302 326h225z" />
    <glyph glyph-name="uni0454" unicode="&#x454;" horiz-adv-x="920" 
d="M929 987l-47 -205q-38 32 -94.5 54t-124.5 22q-107 0 -193.5 -71t-123.5 -186h425l-32 -160h-427l-1 -14v-13q0 -123 55.5 -185.5t158.5 -62.5q62 0 131.5 25t124.5 61l-42 -203q-142 -74 -282 -74q-182 0 -285 111.5t-103 308.5q0 178 77 330.5t214.5 238t311.5 85.5
q73 0 145 -17.5t112 -44.5z" />
    <glyph glyph-name="uni0455" unicode="&#x455;" horiz-adv-x="854" 
d="M771 806q-44 26 -104.5 45t-120.5 19q-84 0 -125.5 -35.5t-41.5 -91.5q0 -50 34 -83t98 -68q130 -73 177.5 -139t47.5 -155q0 -97 -50.5 -169t-147.5 -113t-237 -41q-76 0 -161 17t-130 41l40 198q55 -33 130.5 -56t145.5 -23q88 0 131 33t43 91q0 45 -29.5 78t-114.5 79
q-113 61 -164.5 129t-51.5 160q0 94 48.5 168.5t140 116.5t217.5 42q75 0 146.5 -13.5t120.5 -33.5z" />
    <glyph glyph-name="uni0457" unicode="&#x457;" horiz-adv-x="590" 
d="M314 -17q-111 0 -169 55t-58 156q0 67 26 184l136 646h243l-136 -645q-21 -100 -21 -129q0 -76 87 -76q51 0 91 16l-38 -184q-77 -23 -161 -23zM754 1321q0 -50 -35 -84.5t-91 -34.5t-91 35t-35 84q0 51 36 83.5t89 32.5q54 0 90.5 -33t36.5 -83zM333 1321
q0 -51 -37.5 -85t-89.5 -34q-51 0 -89 33.5t-38 85.5q0 49 36 82.5t91 33.5q54 0 90.5 -33t36.5 -83z" />
    <glyph glyph-name="uni0459" unicode="&#x459;" horiz-adv-x="1714" 
d="M1628 367q0 -113 -56.5 -202.5t-162.5 -139.5t-249 -50q-204 0 -298 84.5t-94 262.5q0 106 31 249l55 267h-238q-70 -223 -128 -384t-123 -264.5t-146.5 -153t-196.5 -49.5q-34 0 -70 4.5t-46 9.5l34 187q25 -9 63 -9q82 0 149.5 76.5t136 244t174.5 524.5h672l-87 -411
q129 43 259 43q155 0 238 -73.5t83 -215.5zM1392 343q0 145 -159 145q-99 0 -219 -39q-13 -91 -13 -135q0 -86 42.5 -126.5t129.5 -40.5q100 0 159.5 55t59.5 141z" />
    <glyph glyph-name="uni045A" unicode="&#x45a;" horiz-adv-x="1701" 
d="M1613 367q0 -113 -56.5 -202.5t-162.5 -139.5t-249 -50q-204 0 -297.5 84.5t-93.5 262.5q0 54 9 126h-394l-94 -448h-243l217 1024h243l-87 -405h389l84 405h242l-87 -411q132 43 260 43q155 0 237.5 -73.5t82.5 -215.5zM1378 343q0 145 -160 145q-101 0 -218 -39
q-3 -15 -8 -60t-5 -75q0 -86 42 -126.5t129 -40.5q100 0 160 55.5t60 140.5z" />
    <glyph glyph-name="uni045B" unicode="&#x45b;" horiz-adv-x="1183" 
d="M1093 773q0 -54 -30 -197l-122 -576h-242l124 592q20 107 20 131q0 135 -122 135q-65 0 -137.5 -51.5t-128 -135.5t-73.5 -171l-107 -500h-243l254 1190h-123l30 146h124l38 180h242l-39 -180h330l-30 -146h-330l-83 -385h4q83 116 184 180t202 64q128 0 193 -72.5
t65 -203.5z" />
    <glyph glyph-name="uni045C" unicode="&#x45c;" horiz-adv-x="1072" 
d="M629 537l315 -537h-271l-282 528h-5l-112 -528h-242l218 1024h241l-94 -448h4l460 448h294zM729 1202h-179l302 326h225z" />
    <glyph glyph-name="uni045E" unicode="&#x45e;" horiz-adv-x="1046" 
d="M-27 -481q-70 0 -133 21l42 194q39 -24 100 -24q126 0 214 135l103 160l-193 1019h251l96 -705l4 -65l-2 -42h5q25 64 48 106l383 706h257l-689 -1154q-114 -191 -226.5 -271t-259.5 -80zM1080 1528q-51 -154 -169.5 -240t-274.5 -86q-153 0 -250 90.5t-101 235.5h201
q2 -84 44.5 -133t120.5 -49q76 0 135.5 47.5t89.5 134.5h204z" />
    <glyph glyph-name="uni045F" unicode="&#x45f;" horiz-adv-x="1184" 
d="M573 -82l-91 -389h-209l109 389h191zM941 0h-240l31 217h-4q-81 -114 -181 -178t-204 -64q-127 0 -194 72.5t-67 203.5q0 49 31 196l122 577h242l-125 -589q-21 -112 -21 -134q0 -60 30 -95t90 -35q69 0 141.5 51t128.5 137.5t74 172.5l105 492h242l-147 -688
q-39 -186 -54 -336z" />
    <glyph glyph-name="uni0490" unicode="&#x490;" horiz-adv-x="1009" 
d="M1119 1223h-550l-261 -1223h-248l305 1434h581l59 275h216z" />
    <glyph glyph-name="uni0491" unicode="&#x491;" horiz-adv-x="854" 
d="M849 838h-401l-178 -838h-241l218 1024h441l57 270h201z" />
    <glyph glyph-name="uni2015" unicode="&#x2015;" horiz-adv-x="2048" 
d="M-8 471l36 175h2048l-36 -175h-2048z" />
    <glyph glyph-name="uni2116" unicode="&#x2116;" horiz-adv-x="2425" 
d="M2437 1111q0 -147 -65.5 -271t-178 -187.5t-262.5 -63.5q-173 0 -267.5 90t-94.5 251q0 145 66.5 268.5t181 187.5t262.5 64q168 0 263 -87t95 -252zM2276 443l-32 -152h-775l33 152h774zM1211 0h-211l-430 949l-25 67l-24 60h-4q-7 -61 -22.5 -134.5t-200.5 -941.5h-234
l303 1434h232l416 -925q27 -59 45 -126h4q2 19 7.5 47t211.5 1004h235zM2219 1105q0 85 -41 132.5t-121 47.5t-142 -49t-96 -131t-34 -173q0 -81 42 -129.5t123 -48.5q80 0 141.5 47.5t94.5 128.5t33 175z" />
    <glyph glyph-name="pi" unicode="&#x3c0;" horiz-adv-x="1339" 
d="M1338 839h-215l-102 -492q-14 -77 -14 -96q0 -76 88 -76q50 0 91 16l-40 -184q-62 -24 -154 -24q-110 0 -173.5 57t-63.5 159q0 49 21 147l105 493h-330l-118 -543q-43 -198 -93 -296h-246q27 51 54.5 135t45.5 169l114 535q-57 0 -128 -21t-124 -51l43 206
q102 51 253 51h1027z" />
    <glyph glyph-name="four.frac" horiz-adv-x="789" 
d="M649 774l-42 -191h-172l41 191h-396l24 122l467 537h218l-113 -527h112l-28 -132h-111zM588 1295q-9 -15 -20 -30.5t-298 -358.5h234l64 302l24 86z" />
    <glyph glyph-name="five.frac" horiz-adv-x="789" 
d="M354 563q-137 0 -225 43l32 152q35 -23 88 -38.5t105 -15.5q105 0 152.5 42.5t47.5 110.5q0 120 -160 120q-74 0 -164 -10l100 470h483l-30 -145h-329l-37 -177l28 2h28q121 0 192 -64t71 -172q0 -147 -102 -232.5t-280 -85.5z" />
    <glyph glyph-name="seven.frac" horiz-adv-x="789" 
d="M357 584h-197l477 716h-412l30 141h613l-16 -77z" />
    <glyph glyph-name="eight.frac" horiz-adv-x="789" 
d="M761 840q0 -129 -91.5 -203t-261.5 -74q-138 0 -220 63t-82 167q0 173 230 245q-46 27 -77.5 73.5t-31.5 101.5q0 109 86.5 174.5t236.5 65.5q128 0 202.5 -55.5t74.5 -145.5q0 -152 -205 -222q65 -27 102 -78.5t37 -111.5zM646 1231q0 36 -29 60.5t-82 24.5
q-63 0 -99 -28t-36 -75q0 -70 95 -113q77 21 114 52.5t37 78.5zM582 828q0 96 -119 140q-176 -50 -176 -163q0 -51 38 -78t98 -27q72 0 115.5 35.5t43.5 92.5z" />
    <glyph glyph-name="glyph572" horiz-adv-x="590" 
d="M314 -17q-111 0 -169 55t-58 156q0 67 26 184l136 646h243l-136 -645q-21 -100 -21 -129q0 -76 87 -76q51 0 91 16l-38 -184q-77 -23 -161 -23z" />
    <glyph glyph-name="uni0218" unicode="&#x218;" horiz-adv-x="1059" 
d="M1029 1160q-63 43 -151.5 69t-167.5 26q-77 0 -131 -26.5t-82.5 -70t-28.5 -95.5q0 -72 42 -128.5t161 -135.5q154 -103 213.5 -194.5t59.5 -204.5q0 -125 -63.5 -225.5t-178.5 -150t-272 -49.5q-102 0 -210 26.5t-187 69.5l42 229q76 -56 173 -89t189 -33
q119 0 184 51.5t65 145.5q0 72 -46 126t-174 135q-136 86 -197.5 182.5t-61.5 213.5q0 121 62 219t176 152.5t270 54.5q175 0 358 -72zM579 -115l-167 -306h-158l103 306h222z" />
    <glyph glyph-name="uni0219" unicode="&#x219;" horiz-adv-x="854" 
d="M771 806q-44 26 -104.5 45t-120.5 19q-84 0 -125.5 -35.5t-41.5 -91.5q0 -50 34 -83t98 -68q130 -73 177.5 -139t47.5 -155q0 -97 -50.5 -169t-147.5 -113t-237 -41q-76 0 -161 17t-130 41l40 198q55 -33 130.5 -56t145.5 -23q88 0 131 33t43 91q0 45 -29.5 78t-114.5 79
q-113 61 -164.5 129t-51.5 160q0 94 48.5 168.5t140 116.5t217.5 42q75 0 146.5 -13.5t120.5 -33.5zM470 -115l-167 -306h-158l103 306h222z" />
    <glyph glyph-name="currency" unicode="&#xa4;" horiz-adv-x="1139" 
d="M1081 356l-117 -121l-141 139q-107 -70 -236 -70q-133 0 -236 70l-140 -139l-117 121l139 135q-70 112 -70 234q0 124 70 233l-139 138l117 120l140 -139q108 72 236 72q126 0 236 -72l141 139l117 -120l-139 -138q72 -112 72 -233q0 -118 -72 -234zM847 727
q0 105 -78 180.5t-182 75.5q-105 0 -180.5 -75.5t-75.5 -180.5t74 -180.5t182 -75.5q107 0 183.5 75.5t76.5 180.5z" />
    <glyph glyph-name="Ohorn" unicode="&#x1a0;" horiz-adv-x="1610" 
d="M1499 847q0 -244 -103.5 -448.5t-280 -314t-400.5 -109.5q-175 0 -309.5 77t-208 218t-73.5 319q0 246 103.5 449t282.5 311.5t401 108.5q198 0 341 -98q43 -13 93 -13q125 0 181.5 45.5t56.5 151.5l-3 54h164q3 -16 3 -62q0 -152 -87 -236t-247 -84h-7l-10 1
q103 -154 103 -370zM1239 838q0 186 -95.5 294.5t-258.5 108.5q-138 0 -253 -85t-182 -238.5t-67 -327.5q0 -183 93.5 -291.5t258.5 -108.5q139 0 252 83t182.5 237.5t69.5 327.5z" />
    <glyph glyph-name="ohorn" unicode="&#x1a1;" horiz-adv-x="1196" 
d="M1005 882q62 -138 62 -251q0 -188 -76 -342t-207.5 -234t-300.5 -80q-193 0 -303.5 111t-110.5 307q0 186 74.5 338t205.5 235t304 83q49 0 137 -17q87 -18 149 -18q100 0 153 52.5t53 148.5l-2 48h163l3 -59q0 -146 -78 -229.5t-226 -92.5zM823 625q0 107 -49.5 170
t-137.5 63q-91 0 -165 -62.5t-116.5 -169.5t-42.5 -229q0 -108 50.5 -169.5t137.5 -61.5q93 0 167.5 62.5t115 169.5t40.5 227z" />
    <glyph glyph-name="Uhorn" unicode="&#x1af;" horiz-adv-x="1554" 
d="M1400 1434q124 0 181 45t57 151l-3 54h164q3 -16 3 -62q0 -150 -85 -235t-239 -85h-10l-17 1l-156 -730q-48 -224 -127.5 -350t-205.5 -187t-312 -61q-226 0 -358.5 127.5t-132.5 341.5q0 100 26 225l165 765h249l-167 -771q-27 -125 -27 -196q0 -129 74 -203t200 -74
q150 0 236.5 90.5t128.5 286.5l187 867h169z" />
    <glyph glyph-name="uhorn" unicode="&#x1b0;" horiz-adv-x="1243" 
d="M900 1024h142q90 0 139.5 53t49.5 147l-2 48h163q3 -16 3 -59q0 -140 -71.5 -223t-210.5 -97l-113 -534q-15 -68 -34 -184t-25 -175h-240l31 217h-4q-81 -114 -181 -178t-204 -64q-127 0 -194 72.5t-67 203.5q0 49 31 196l122 577h242l-125 -589q-21 -112 -21 -134
q0 -58 31 -94t89 -36q69 0 141.5 51.5t128 137.5t74.5 172z" />
    <glyph glyph-name="hookabovecomb" unicode="&#x309;" horiz-adv-x="622" 
d="M294 1218h-124l25 120q130 4 130 76q0 53 -72 53q-28 0 -73 -10l23 110q49 7 86 7q91 0 139.5 -37t48.5 -101q0 -68 -45.5 -112.5t-127.5 -55.5z" />
    <glyph glyph-name="dotbelowcomb" unicode="&#x323;" horiz-adv-x="682" 
d="M340 -352q-54 0 -90 34.5t-36 83.5q0 48 35.5 81.5t90.5 33.5t90.5 -33t35.5 -82q0 -50 -36 -84t-90 -34z" />
    <glyph glyph-name="gravecomb" unicode="&#x300;" horiz-adv-x="549" 
d="M471 1219h-159l-251 286h216z" />
    <glyph glyph-name="acutecomb" unicode="&#x301;" horiz-adv-x="549" 
d="M506 1505l-296 -286h-160l235 286h221z" />
    <glyph glyph-name="glyph584" horiz-adv-x="1073" 
d="M813 1370l233 246h225l-296 -246h-162zM865 1219h-152l-118 143l-192 -143h-165l281 249h187z" />
    <glyph glyph-name="glyph585" horiz-adv-x="1073" 
d="M695 1370h-141l-210 246h224zM585 1219l282 249h186l160 -249h-152l-113 143l-197 -143h-166z" />
    <glyph glyph-name="glyph586" horiz-adv-x="1004" 
d="M871 1719q49 7 85 7q91 0 140 -37t49 -102q0 -69 -47 -113t-127 -55l-10 -49h-124l25 120q131 4 131 76q0 23 -18 38t-54 15q-33 0 -73 -11zM860 1219h-152l-118 143l-192 -143h-165l280 249h187z" />
    <glyph glyph-name="glyph587" horiz-adv-x="979" 
d="M932 1219h-152l-119 143l-191 -143h-166l282 249h186zM1058 1770q-11 -98 -76.5 -161.5t-161.5 -63.5q-48 0 -82 12t-61 27t-51.5 27t-54.5 12q-40 0 -75 -30t-37 -67h-125q10 102 78.5 164.5t167.5 62.5q44 0 75.5 -13t58 -28t53 -28t60.5 -13q37 0 68.5 28.5t37.5 70.5
h125z" />
    <glyph glyph-name="glyph588" horiz-adv-x="672" 
d="M895 1483q-37 -130 -130.5 -203t-230.5 -73q-124 0 -198.5 60t-74.5 162q0 33 7 54h134q-3 -7 -3 -33q0 -56 40.5 -85t106.5 -29q159 0 211 147h138zM908 1695l-296 -241h-146l223 241h219z" />
    <glyph glyph-name="glyph589" horiz-adv-x="672" 
d="M895 1483q-37 -130 -130.5 -203t-230.5 -73q-124 0 -198.5 60t-74.5 162q0 33 7 54h134q-3 -7 -3 -33q0 -56 40.5 -85t106.5 -29q159 0 211 147h138zM676 1454h-137l-210 241h220z" />
    <glyph glyph-name="glyph590" horiz-adv-x="671" 
d="M613 1456h-124l25 120q131 4 131 76q0 22 -17 37.5t-55 15.5q-28 0 -73 -10l23 110q49 7 85 7q91 0 140 -37t49 -101q0 -69 -46.5 -113t-127.5 -55zM895 1483q-37 -130 -130.5 -203t-230.5 -73q-124 0 -198.5 60t-74.5 162q0 33 7 54h134q-3 -7 -3 -33q0 -56 40.5 -85
t106.5 -29q159 0 211 147h138z" />
    <glyph glyph-name="glyph591" horiz-adv-x="980" 
d="M1023 1770q-11 -98 -76.5 -161.5t-161.5 -63.5q-48 0 -82 12t-61 27t-51.5 27t-54.5 12q-40 0 -75 -30t-37 -67h-125q10 102 78.5 164.5t167.5 62.5q44 0 75.5 -13t58 -28t53 -28t60.5 -13q37 0 68.5 28.5t37.5 70.5h125zM965 1478q-36 -128 -128 -199.5t-234 -71.5
q-127 0 -200 58.5t-73 158.5q0 28 7 54h134l-2 -33q0 -56 40 -82.5t106 -26.5q162 0 211 142h139z" />
    <glyph glyph-name="glyph592" horiz-adv-x="622" 
d="M520 1217h-124l25 120q130 4 130 76q0 22 -17 37.5t-55 15.5q-28 0 -73 -10l23 110q49 7 86 7q91 0 139.5 -37t48.5 -101q0 -68 -45.5 -112.5t-127.5 -55.5z" />
    <glyph glyph-name="glyph593" horiz-adv-x="979" 
d="M916 1219h-152l-118 143l-192 -143h-166l282 249h186zM1046 1770q-14 -102 -78.5 -163.5t-160.5 -61.5q-48 0 -82 12t-61 27t-51.5 27t-54.5 12q-40 0 -74.5 -29.5t-36.5 -67.5h-125q11 105 80 166t166 61q44 0 75.5 -13t58 -28t52.5 -28t60 -13q39 0 69.5 29t36.5 70
h126z" />
    <glyph glyph-name="glyph594" horiz-adv-x="672" 
d="M895 1483q-37 -130 -130.5 -203t-230.5 -73q-124 0 -198.5 60t-74.5 162q0 33 7 54h134q-3 -7 -3 -33q0 -56 40.5 -85t106.5 -29q159 0 211 147h138zM908 1695l-296 -241h-146l223 241h219z" />
    <glyph glyph-name="glyph595" horiz-adv-x="672" 
d="M895 1483q-37 -130 -130.5 -203t-230.5 -73q-124 0 -198.5 60t-74.5 162q0 33 7 54h134q-3 -7 -3 -33q0 -56 40.5 -85t106.5 -29q159 0 211 147h138zM676 1454h-137l-210 241h220z" />
    <glyph glyph-name="glyph596" horiz-adv-x="671" 
d="M613 1456h-124l25 120q131 4 131 76q0 22 -17 37.5t-55 15.5q-28 0 -73 -10l23 110q49 7 85 7q91 0 140 -37t49 -101q0 -69 -46.5 -113t-127.5 -55zM895 1483q-37 -130 -130.5 -203t-230.5 -73q-124 0 -198.5 60t-74.5 162q0 33 7 54h134q-3 -7 -3 -33q0 -56 40.5 -85
t106.5 -29q159 0 211 147h138z" />
    <glyph glyph-name="glyph597" horiz-adv-x="980" 
d="M1023 1770q-11 -98 -76.5 -161.5t-161.5 -63.5q-48 0 -82 12t-61 27t-51.5 27t-54.5 12q-40 0 -75 -30t-37 -67h-125q10 102 78.5 164.5t167.5 62.5q44 0 75.5 -13t58 -28t53 -28t60.5 -13q37 0 68.5 28.5t37.5 70.5h125zM964 1478q-36 -128 -128 -199.5t-234 -71.5
q-127 0 -200 58.5t-73 158.5q0 28 7 54h134l-2 -33q0 -56 40 -82.5t106 -26.5q162 0 211 142h139z" />
    <glyph glyph-name="glyph598" horiz-adv-x="1004" 
d="M871 1719q49 7 85 7q91 0 140 -37t49 -102q0 -69 -47 -113t-127 -55l-10 -49h-124l25 120q131 4 131 76q0 23 -18 38t-54 15q-33 0 -73 -11zM860 1219h-152l-118 143l-192 -143h-165l280 249h187z" />
    <glyph glyph-name="uni1EA0" unicode="&#x1ea0;" horiz-adv-x="1367" 
d="M992 0l-53 360h-561l-200 -360h-281l840 1434h281l227 -1434h-253zM839 1149v35l2 35h-5q-20 -60 -47 -110l-308 -549h432l-70 540q-4 18 -4 49zM597 -352q-54 0 -90 34.5t-36 83.5q0 48 35.5 81.5t90.5 33.5t90.5 -33t35.5 -82q0 -50 -36 -84t-90 -34z" />
    <glyph glyph-name="uni1EA1" unicode="&#x1ea1;" horiz-adv-x="1162" 
d="M935 0h-245q0 25 6 91.5t12 102.5h-4q-63 -92 -108.5 -133.5t-98.5 -63.5t-120 -22q-146 0 -227 103t-81 285q0 186 87.5 354t234 250t341.5 82q161 0 383 -48l-141 -668q-15 -71 -27 -174.5t-12 -158.5zM843 853q-62 15 -137 15q-114 0 -201 -59.5t-140 -180.5t-53 -253
q0 -100 38.5 -154.5t112.5 -54.5q108 0 194.5 113t126.5 299zM498 -352q-54 0 -90 34.5t-36 83.5q0 48 35.5 81.5t90.5 33.5t90.5 -33t35.5 -82q0 -50 -36 -84t-90 -34z" />
    <glyph glyph-name="uni1EA2" unicode="&#x1ea2;" horiz-adv-x="1367" 
d="M992 0l-53 360h-561l-200 -360h-281l840 1434h281l227 -1434h-253zM839 1149v35l2 35h-5q-20 -60 -47 -110l-308 -549h432l-70 540q-4 18 -4 49zM928 1566h-124l25 120q130 4 130 76q0 22 -17 37.5t-55 15.5q-28 0 -73 -10l23 110q49 7 86 7q91 0 139.5 -37t48.5 -101
q0 -68 -45.5 -112.5t-127.5 -55.5z" />
    <glyph glyph-name="uni1EA3" unicode="&#x1ea3;" horiz-adv-x="1162" 
d="M935 0h-245q0 25 6 91.5t12 102.5h-4q-63 -92 -108.5 -133.5t-98.5 -63.5t-120 -22q-146 0 -227 103t-81 285q0 186 87.5 354t234 250t341.5 82q161 0 383 -48l-141 -668q-15 -71 -27 -174.5t-12 -158.5zM843 853q-62 15 -137 15q-114 0 -201 -59.5t-140 -180.5t-53 -253
q0 -100 38.5 -154.5t112.5 -54.5q108 0 194.5 113t126.5 299zM731 1203h-124l25 120q130 4 130 76q0 53 -72 53q-28 0 -73 -10l23 110q49 7 86 7q91 0 139.5 -37t48.5 -101q0 -68 -45.5 -112.5t-127.5 -55.5z" />
    <glyph glyph-name="uni1EA4" unicode="&#x1ea4;" horiz-adv-x="1367" 
d="M992 0l-53 360h-561l-200 -360h-281l840 1434h281l227 -1434h-253zM839 1149v35l2 35h-5q-20 -60 -47 -110l-308 -549h432l-70 540q-4 18 -4 49zM1140 1719l233 246h225l-296 -246h-162zM1192 1568h-152l-118 143l-192 -143h-165l281 249h187z" />
    <glyph glyph-name="uni1EA5" unicode="&#x1ea5;" horiz-adv-x="1162" 
d="M935 0h-245q0 25 6 91.5t12 102.5h-4q-63 -92 -108.5 -133.5t-98.5 -63.5t-120 -22q-146 0 -227 103t-81 285q0 186 87.5 354t234 250t341.5 82q161 0 383 -48l-141 -668q-15 -71 -27 -174.5t-12 -158.5zM843 853q-62 15 -137 15q-114 0 -201 -59.5t-140 -180.5t-53 -253
q0 -100 38.5 -154.5t112.5 -54.5q108 0 194.5 113t126.5 299zM960 1355l233 246h225l-296 -246h-162zM1012 1204h-152l-118 143l-192 -143h-165l281 249h187z" />
    <glyph glyph-name="uni1EA6" unicode="&#x1ea6;" horiz-adv-x="1367" 
d="M992 0l-53 360h-561l-200 -360h-281l840 1434h281l227 -1434h-253zM839 1149v35l2 35h-5q-20 -60 -47 -110l-308 -549h432l-70 540q-4 18 -4 49zM669 1719h-141l-210 246h224zM559 1568l282 249h186l160 -249h-152l-113 143l-197 -143h-166z" />
    <glyph glyph-name="uni1EA7" unicode="&#x1ea7;" horiz-adv-x="1162" 
d="M935 0h-245q0 25 6 91.5t12 102.5h-4q-63 -92 -108.5 -133.5t-98.5 -63.5t-120 -22q-146 0 -227 103t-81 285q0 186 87.5 354t234 250t341.5 82q161 0 383 -48l-141 -668q-15 -71 -27 -174.5t-12 -158.5zM843 853q-62 15 -137 15q-114 0 -201 -59.5t-140 -180.5t-53 -253
q0 -100 38.5 -154.5t112.5 -54.5q108 0 194.5 113t126.5 299zM536 1355h-141l-210 246h224zM426 1204l282 249h186l160 -249h-152l-113 143l-197 -143h-166z" />
    <glyph glyph-name="uni1EA8" unicode="&#x1ea8;" horiz-adv-x="1367" 
d="M992 0l-53 360h-561l-200 -360h-281l840 1434h281l227 -1434h-253zM839 1149v35l2 35h-5q-20 -60 -47 -110l-308 -549h432l-70 540q-4 18 -4 49zM1187 2069q49 7 85 7q91 0 140 -37t49 -102q0 -69 -47 -113t-127 -55l-10 -49h-124l25 120q131 4 131 76q0 23 -18 38
t-54 15q-33 0 -73 -11zM1176 1569h-152l-118 143l-192 -143h-165l280 249h187z" />
    <glyph glyph-name="uni1EA9" unicode="&#x1ea9;" horiz-adv-x="1162" 
d="M935 0h-245q0 25 6 91.5t12 102.5h-4q-63 -92 -108.5 -133.5t-98.5 -63.5t-120 -22q-146 0 -227 103t-81 285q0 186 87.5 354t234 250t341.5 82q161 0 383 -48l-141 -668q-15 -71 -27 -174.5t-12 -158.5zM843 853q-62 15 -137 15q-114 0 -201 -59.5t-140 -180.5t-53 -253
q0 -100 38.5 -154.5t112.5 -54.5q108 0 194.5 113t126.5 299zM1005 1704q49 7 85 7q91 0 140 -37t49 -102q0 -69 -47 -113t-127 -55l-10 -49h-124l25 120q131 4 131 76q0 23 -18 38t-54 15q-33 0 -73 -11zM994 1204h-152l-118 143l-192 -143h-165l280 249h187z" />
    <glyph glyph-name="uni1EAA" unicode="&#x1eaa;" horiz-adv-x="1367" 
d="M992 0l-53 360h-561l-200 -360h-281l840 1434h281l227 -1434h-253zM839 1149v35l2 35h-5q-20 -60 -47 -110l-308 -549h432l-70 540q-4 18 -4 49zM1183 1566h-152l-118 143l-192 -143h-166l282 249h186zM1313 2117q-14 -102 -78.5 -163.5t-160.5 -61.5q-48 0 -82 12
t-61 27t-51.5 27t-54.5 12q-40 0 -74.5 -29.5t-36.5 -67.5h-125q11 105 80 166t166 61q44 0 75.5 -13t58 -28t52.5 -28t60 -13q39 0 69.5 29t36.5 70h126z" />
    <glyph glyph-name="uni1EAB" unicode="&#x1eab;" horiz-adv-x="1162" 
d="M935 0h-245q0 25 6 91.5t12 102.5h-4q-63 -92 -108.5 -133.5t-98.5 -63.5t-120 -22q-146 0 -227 103t-81 285q0 186 87.5 354t234 250t341.5 82q161 0 383 -48l-141 -668q-15 -71 -27 -174.5t-12 -158.5zM843 853q-62 15 -137 15q-114 0 -201 -59.5t-140 -180.5t-53 -253
q0 -100 38.5 -154.5t112.5 -54.5q108 0 194.5 113t126.5 299zM1030 1204h-152l-119 143l-191 -143h-166l282 249h186zM1156 1755q-11 -98 -76.5 -161.5t-161.5 -63.5q-48 0 -82 12t-61 27t-51.5 27t-54.5 12q-40 0 -75 -30t-37 -67h-125q10 102 78.5 164.5t167.5 62.5
q44 0 75.5 -13t58 -28t53 -28t60.5 -13q37 0 68.5 28.5t37.5 70.5h125z" />
    <glyph glyph-name="uni1EAC" unicode="&#x1eac;" horiz-adv-x="1367" 
d="M992 0l-53 360h-561l-200 -360h-281l840 1434h281l227 -1434h-253zM839 1149v35l2 35h-5q-20 -60 -47 -110l-308 -549h432l-70 540q-4 18 -4 49zM1042 1567l-115 211l-205 -211h-166l293 329h191l157 -329h-155zM597 -352q-54 0 -90 34.5t-36 83.5q0 48 35.5 81.5
t90.5 33.5t90.5 -33t35.5 -82q0 -50 -36 -84t-90 -34z" />
    <glyph glyph-name="uni1EAD" unicode="&#x1ead;" horiz-adv-x="1162" 
d="M935 0h-245q0 25 6 91.5t12 102.5h-4q-63 -92 -108.5 -133.5t-98.5 -63.5t-120 -22q-146 0 -227 103t-81 285q0 186 87.5 354t234 250t341.5 82q161 0 383 -48l-141 -668q-15 -71 -27 -174.5t-12 -158.5zM843 853q-62 15 -137 15q-114 0 -201 -59.5t-140 -180.5t-53 -253
q0 -100 38.5 -154.5t112.5 -54.5q108 0 194.5 113t126.5 299zM891 1202l-115 211l-205 -211h-166l293 329h191l157 -329h-155zM498 -352q-54 0 -90 34.5t-36 83.5q0 48 35.5 81.5t90.5 33.5t90.5 -33t35.5 -82q0 -50 -36 -84t-90 -34z" />
    <glyph glyph-name="uni1EAE" unicode="&#x1eae;" horiz-adv-x="1367" 
d="M992 0l-53 360h-561l-200 -360h-281l840 1434h281l227 -1434h-253zM839 1149v35l2 35h-5q-20 -60 -47 -110l-308 -549h432l-70 540q-4 18 -4 49zM1250 1841q-37 -130 -130.5 -203t-230.5 -73q-124 0 -198.5 60t-74.5 162q0 33 7 54h134q-3 -7 -3 -33q0 -56 40.5 -85
t106.5 -29q159 0 211 147h138zM1263 2053l-296 -241h-146l223 241h219z" />
    <glyph glyph-name="uni1EAF" unicode="&#x1eaf;" horiz-adv-x="1162" 
d="M935 0h-245q0 25 6 91.5t12 102.5h-4q-63 -92 -108.5 -133.5t-98.5 -63.5t-120 -22q-146 0 -227 103t-81 285q0 186 87.5 354t234 250t341.5 82q161 0 383 -48l-141 -668q-15 -71 -27 -174.5t-12 -158.5zM843 853q-62 15 -137 15q-114 0 -201 -59.5t-140 -180.5t-53 -253
q0 -100 38.5 -154.5t112.5 -54.5q108 0 194.5 113t126.5 299zM1106 1483q-37 -130 -130.5 -203t-230.5 -73q-124 0 -198.5 60t-74.5 162q0 33 7 54h134q-3 -7 -3 -33q0 -56 40.5 -85t106.5 -29q159 0 211 147h138zM1119 1695l-296 -241h-146l223 241h219z" />
    <glyph glyph-name="uni1EB0" unicode="&#x1eb0;" horiz-adv-x="1367" 
d="M992 0l-53 360h-561l-200 -360h-281l840 1434h281l227 -1434h-253zM839 1149v35l2 35h-5q-20 -60 -47 -110l-308 -549h432l-70 540q-4 18 -4 49zM1232 1842q-37 -130 -130.5 -203t-230.5 -73q-124 0 -198.5 60t-74.5 162q0 33 7 54h134q-3 -7 -3 -33q0 -56 40.5 -85
t106.5 -29q159 0 211 147h138zM1013 1813h-137l-210 241h220z" />
    <glyph glyph-name="uni1EB1" unicode="&#x1eb1;" horiz-adv-x="1162" 
d="M935 0h-245q0 25 6 91.5t12 102.5h-4q-63 -92 -108.5 -133.5t-98.5 -63.5t-120 -22q-146 0 -227 103t-81 285q0 186 87.5 354t234 250t341.5 82q161 0 383 -48l-141 -668q-15 -71 -27 -174.5t-12 -158.5zM843 853q-62 15 -137 15q-114 0 -201 -59.5t-140 -180.5t-53 -253
q0 -100 38.5 -154.5t112.5 -54.5q108 0 194.5 113t126.5 299zM1120 1483q-37 -130 -130.5 -203t-230.5 -73q-124 0 -198.5 60t-74.5 162q0 33 7 54h134q-3 -7 -3 -33q0 -56 40.5 -85t106.5 -29q159 0 211 147h138zM901 1454h-137l-210 241h220z" />
    <glyph glyph-name="uni1EB2" unicode="&#x1eb2;" horiz-adv-x="1367" 
d="M992 0l-53 360h-561l-200 -360h-281l840 1434h281l227 -1434h-253zM839 1149v35l2 35h-5q-20 -60 -47 -110l-308 -549h432l-70 540q-4 18 -4 49zM969 1814h-124l25 120q131 4 131 76q0 22 -17 37.5t-55 15.5q-28 0 -73 -10l23 110q49 7 85 7q91 0 140 -37t49 -101
q0 -69 -46.5 -113t-127.5 -55zM1251 1841q-37 -130 -130.5 -203t-230.5 -73q-124 0 -198.5 60t-74.5 162q0 33 7 54h134q-3 -7 -3 -33q0 -56 40.5 -85t106.5 -29q159 0 211 147h138z" />
    <glyph glyph-name="uni1EB3" unicode="&#x1eb3;" horiz-adv-x="1162" 
d="M935 0h-245q0 25 6 91.5t12 102.5h-4q-63 -92 -108.5 -133.5t-98.5 -63.5t-120 -22q-146 0 -227 103t-81 285q0 186 87.5 354t234 250t341.5 82q161 0 383 -48l-141 -668q-15 -71 -27 -174.5t-12 -158.5zM843 853q-62 15 -137 15q-114 0 -201 -59.5t-140 -180.5t-53 -253
q0 -100 38.5 -154.5t112.5 -54.5q108 0 194.5 113t126.5 299zM842 1456h-124l25 120q131 4 131 76q0 22 -17 37.5t-55 15.5q-28 0 -73 -10l23 110q49 7 85 7q91 0 140 -37t49 -101q0 -69 -46.5 -113t-127.5 -55zM1124 1483q-37 -130 -130.5 -203t-230.5 -73
q-124 0 -198.5 60t-74.5 162q0 33 7 54h134q-3 -7 -3 -33q0 -56 40.5 -85t106.5 -29q159 0 211 147h138z" />
    <glyph glyph-name="uni1EB4" unicode="&#x1eb4;" horiz-adv-x="1367" 
d="M992 0l-53 360h-561l-200 -360h-281l840 1434h281l227 -1434h-253zM839 1149v35l2 35h-5q-20 -60 -47 -110l-308 -549h432l-70 540q-4 18 -4 49zM1317 2129q-11 -98 -76.5 -161.5t-161.5 -63.5q-48 0 -82 12t-61 27t-51.5 27t-54.5 12q-40 0 -75 -30t-37 -67h-125
q10 102 78.5 164.5t167.5 62.5q44 0 75.5 -13t58 -28t53 -28t60.5 -13q37 0 68.5 28.5t37.5 70.5h125zM1258 1837q-36 -128 -128 -199.5t-234 -71.5q-127 0 -200 58.5t-73 158.5q0 28 7 54h134l-2 -33q0 -56 40 -82.5t106 -26.5q162 0 211 142h139z" />
    <glyph glyph-name="uni1EB5" unicode="&#x1eb5;" horiz-adv-x="1162" 
d="M935 0h-245q0 25 6 91.5t12 102.5h-4q-63 -92 -108.5 -133.5t-98.5 -63.5t-120 -22q-146 0 -227 103t-81 285q0 186 87.5 354t234 250t341.5 82q161 0 383 -48l-141 -668q-15 -71 -27 -174.5t-12 -158.5zM843 853q-62 15 -137 15q-114 0 -201 -59.5t-140 -180.5t-53 -253
q0 -100 38.5 -154.5t112.5 -54.5q108 0 194.5 113t126.5 299zM1156 1770q-11 -98 -76.5 -161.5t-161.5 -63.5q-48 0 -82 12t-61 27t-51.5 27t-54.5 12q-40 0 -75 -30t-37 -67h-125q10 102 78.5 164.5t167.5 62.5q44 0 75.5 -13t58 -28t53 -28t60.5 -13q37 0 68.5 28.5
t37.5 70.5h125zM1098 1478q-36 -128 -128 -199.5t-234 -71.5q-127 0 -200 58.5t-73 158.5q0 28 7 54h134l-2 -33q0 -56 40 -82.5t106 -26.5q162 0 211 142h139z" />
    </font>
</defs>
</svg>
